<mxfile host="Electron" modified="2023-11-08T10:05:33.258Z" agent="Mozilla/5.0 (Windows NT 10.0; Win64; x64) AppleWebKit/537.36 (KHTML, like Gecko) draw.io/21.7.5 Chrome/114.0.5735.289 Electron/25.8.1 Safari/537.36" etag="CT9S5OR5JWYYemju2KWY" version="21.7.5" type="device" pages="2">
  <diagram name="прецеденты" id="S3kzHv6pqh5x9b9SZa1L">
    <mxGraphModel dx="1418" dy="828" grid="1" gridSize="10" guides="1" tooltips="1" connect="1" arrows="1" fold="1" page="1" pageScale="1" pageWidth="827" pageHeight="1169" math="0" shadow="0">
      <root>
        <mxCell id="0" />
        <mxCell id="1" parent="0" />
        <mxCell id="2kZgn2yWBnld6z_HZbz6-88" value="" style="rounded=0;whiteSpace=wrap;html=1;fillColor=#e7ecf4;strokeColor=none;" parent="1" vertex="1">
          <mxGeometry x="140" y="30" width="530" height="1220" as="geometry" />
        </mxCell>
        <mxCell id="2kZgn2yWBnld6z_HZbz6-1" value="" style="shape=image;verticalLabelPosition=bottom;labelBackgroundColor=default;verticalAlign=top;aspect=fixed;imageAspect=0;image=data:image/png,iVBORw0KGgoAAAANSUhEUgAAAI0AAAE1CAYAAADasGMJAAAAAXNSR0IArs4c6QAAAARnQU1BAACxjwv8YQUAAAAJcEhZcwAADsMAAA7DAcdvqGQAAFQ9SURBVHhe7Z0HgBXV1cfPNvpSd+lFQFQQRY2CXUQsWFCxG7sxtk+JMYlJTNEYjYlGxVhTrNh7771gryh2RZogdVnqtu/8zn3n7ezjLbCw+/a93feHuzNz576Zc87933PL3LmTs2zZsirJIos6IDe2zSKLtUaWNFnUGVnSZFFnZEmTRZ2RJU0WdUaWNFnUGVnSZFFnZDxpqqqqh5nYW9tBp3X9XRYiGT24R8YTKjXk5uZoxufoP1VH/+fk5Fga3yaioqJCf5OrSS2xxVVVVFp6D8ng94yC6zQnZPyIcHl5uWX60uXLpKSkRNoXFkqbVq0tI1eXmZAGss2eM0cWLy6RTp06SZdOnY0seXl5tZJm5cqVsmjRIttv1aqVhYKCAjtuLmgS1dM777wjW265pYwYMUIOPeQQWbJkiVRWVsZSrAp+Ayluv/122WGHHWSHHXeUkSNHyowZM+x8bYQBN998s2y33XYyfPhwOf/881fxOs0BGe1pKqhclBzbbrutfPb555bZuVpB7bP33nLTTTdJixYtYilrAjqVla2UDQcNkhL1GmYAzfydd9xJHnzwQcnPzyemBvBMH374oeyzzz7mafAwEJP7HHDAAbFUzQMZ7WnwBxWacXO0irGmSaX+0cx/7bXXZP78+SFRbVCCde7c2aqoHAsib7/9tlV3id7DPdPVV18ty5cvNzISB2m+/fbbWKrmg4wmDV4lV/P3ZyecKHmaqV4l4Qlefvlly9hk1QckKcjNk00GbSTtWreRPN13YuBRkgEyvfnmm/Frci9Id8YZZ8RSNB9kfJuGjD788MNtv2XLltbe2HfffeXuu++utV3jbRbaPvymXbt2FkeDtrYqbd68eTJz5sw4uXJycuW4Y4/X41iCZoSMJg0ZSA9pkLZNdtllF+sBkfELFy6USZMmibbXLE0iiMNzzJo1SxaVLJJlK1ZIlfJo4403tp5TIiDJE088YV4oEC6EsfvvL/l5q7Z/mjoyu02jGQhp2J588sm2JWO/+uorbeiWybRp05J6G9KtUKJ88803Uq7nl2l3HWrtsPNOoQufBI888oj9LpAwR3r26CmDNxkcPE0z8zYZRZpEr8ExAQIMHjxYFi9ebOMom266qey2227mcRJ/45g6dar1viACAYzZa0zSsZ2lS5fKu+++GzsK991pp52koEWB/lYjws+bDTKCNHgNqhrv2XjAi+BZyOiioiIZOHCg9YA++OADef/99+X++++33ycSB9/z5ddfxfYDcQq0mz14k01qkIbfcU8I5mM/wXNVyvY7bB9P09yQ1qQhgyAM3oOM9UxzwrAlHuLQFtl5552lb9++lsGzZ8+Wu+66R/eXxj1JFJxnPIZrkO00gNu0bWtpE4lA1eT3A/xu2LDNlGBKGqNg80LaexoykUyixEMOMg9wDKEInMdDENq0aSOlpUs0bZWULCqRS/5xqaWPAqWXLC61a9BtB1WVVXqtlXEiAq5Nr+nSSy+Nx3sPq1evXnacrDpr6khrjckUAkTxfT92kuBhnEgnnniiVSXebYZk33z7je0nwrrZOA68h4bl2i5aom2XRC9DYxryAO4H0XbffXerDl2eTAG6RfVj3z1oot6rQ0aQBk8CEcg0lPTgDwqJJ12fPn3koIMOinmfPOnUubMcc/Qxah1LVgPDhg2LX1MtJp07d5KOHTrUIALnaFTzmAIQX1xcHPc86Q4nA4EC5N6a6p7OA1v33h7WRq+0f/bkSrjiKMpzHwzgYypkpmW+AmPccMMN8tlnn8lpp/2fDBwwUHs5q4698DiAsRdGdPv07SPXX3e9bKINYa7pJOSeNMDZ5xkT1yR9z549jXCkdYKlI5wIFCJs5rZEZtfPgW05dp1Wp1dakwaFXRnAFu8CYVxpV869DnFuLD/26ioKyOdE4x7sE0jvhvNqifNRY3LttTFuYwKZgevocqIfiMpNnNvNdfKQDGlNGlcmShyAITwjCcAV9HRRhf06BOIxjhsTRH/jaZxAfp3ob6Lx6Qa3FVU6YJ8AnEjROO9EREGBwq5+jUSkLWlQCo/CFgVQ2DOSDIy2Z1YH8zeant9R1eA9qJrcW/mWgAvnevTAeCZFnF/fO9arv1vjAztF7eP2Qk+PA+jl8X4ctSXXgTTJCkfakobMjWaqE4dtooJRYAiQo+fLKyvkxzk/yqMPP2ztl++//95m9y1V0nD98nIteWivdsnNybUR3tatW2uDuKMUaSN69O6jZdy4A6X/wAE2BcMMXabddN0iRzKDNjbQy+XDFhyz78cEiATYogPkcHLxW9eL31K1J+qZ1qQBKONKEbwEYIQoiHfFP/roI3nksUflueefl88//1xWLF1m6cM19Jpqgyr+JEV4CEp3PC8vjMv07ddPdth5R9l/v/1l+DbbSMtYIzjd4AWMgA5OII6xD0iscpxEBHQiHb8huBeKeiiQtqRxgVECoZ3tvnVFUY4tVc57770nl2h3+Pnnn5NcNc5KiFepxogZEZdSpR7Ff8+V4spDJLYWHwxfVUEmaFSuejz1Wi0LWsimQ4bIub/7vT17KiwstOs4XLbGAm2RaLXktouSx+1l+uuxy0xa9zScC/YKhZeqOoq0IY0ribAuMMcEECVO1MVCLrrCxx57rHzPU22Nr6wK50ldGSNNIEwIOVUYpsLOc5VEp2O/tcurEfmtvenAIVVfjpInVGP//ve/ZdSoUXEvVlsbIFXwTAfYDVmIi5KDY2xmOmoc6V3uqF39N6SN2h6EO6QBXGACgkaZ7wJHFeIcT58ZN2He7tSp07TdEX5PDjOjTxPWUJBTToYoiIsGvWO4J/818IgBCWgn5SiBKH3cG6IeffTR8t1331n6qGEbG04aL3TsYxvsBglo9ONBsC9xwPc9Hb+J2t/R6J7GBcS1wnhntguPwATOYQCUIC3TOU899VSbH5yToyXdMlgpor8x7xAhht8jNzdPOnTqLN2Li6Vtu3ZavbS165ZpNbRMq7fSxYvtlZaFCxbYO1DAjS552rg06gSCu1zsMwnsrLPOkoMPPti8DgE5Uwl0JPh9GeTEjlFP4fOb2QduF7bYAbi+/A5S+e+jaFTSIDABOMsRkn1Xnq0bg3OU8iuuuEL+/ve/W5wpCWnUP5iHwM2ou8ililKvgJHoQkOwQw45xEZz/doAA3J9B8fMw2G6KCPL9Li4B/flnKf3hnSPHj2UuD9Y3FFHHWVyUYpT3VAOMiUnjQ9uQhpkc7sTSI9O6Mc5dCWerR8n6tKopEFJhGKLoAAl2Pd61onBvspqmf/UU0+ZUZQW9ltVQ7faLTdPgyFypJdm5i9//SubLtG/f/94hidDuEYgjIN97jt9+nSbUM7zJmYEmszl6mny86S4a1dZpARbplVVnt4TWbfR3tWNN95oz6jc6zQ0kMkD9zMZVXa3HeQhDg8NgbCvp4Ms5m116+cIkM0J5sRyNAppENbhQrrCrixCsgXE8YbB7373O7nvvvv0GLrodWJ/AyBNjmw0aCM54fjj5fDDDpM2he3sGolKg6gM0XPER4+jRnzsscfkmmuukfff/1A6FRXJvPnzZMXyFZKvVZf6Qy5kaXfWnhWN5O7du6eENCBqQ7Yce3y06uEcW6+m0Av7OLlIT+CY6okt14zaJOWkcaGAZ5ALRny0/uQ8Aa9yzjnnyK233mqN0UraG951poej21ZaBf3shBPkN7/+tbRqGUpIi1ahq8g9okrXBVwHGQBbSuRdd94tF1x0kcycNcvGbCromquHQzZ1eFZNbrXllnL//Q9Ihw7t1/nedQGyQQD30MjtdkVmtyvxbmfXzfUjjmsQzzX4rZMpipSSxgV0YXGXuECUgu0ISQCuHIFGJm2MNu3aqsdZHJTU/2QFv+vVq4fccsstMmTIEDOaX6O+EZXph9lz5Kijj5GPPvpQKsvLYKZ19a2HpczB94zYdoTcc/c92uhmRmB1e6Oh4OM0TlIyHFm5L2SI2hYbRj2Qk428APyGY9LxO78maFgtaoErAWG8dCQK5njooYfk3vvutfbLokUl0lXbEaFhp2k1c3Yduas8+vAjNrG8tmvUFzzTuUe3rsVy7913yk+PODyWGbBYtxAm5gWZp3zZ5ZdpGyjWA1MY4RsAnrnY04G8BCcIcnPMvh87YYhn3+Hn2BKiSImnQWgCDAfOdBcUZT3DXUDO8wbArruNsu4uYyUaae9u9+zZSxYsWCgjd9pZ/v2f66VjYXvJLUj+RLa+gVwO9laql/nV2WfLbbfdGUqpkoZGMVp42okTb5W9xuy5io71Dbcxwe8FOMYLYW+/v8sWJYznD8fR84lICWlokyAIAjibEQrhXUHOA1cUJXlT8o2339LMCee0Cae+lPkxBTJmzBi59uprrDvNO9yQxn+bKmA4pbGSpVzbXL+V//73v6KaaKwTQ88qgejmf/DeO/GM9MxrCDhpAPdxuwInQuK9SY+HomojTXQ/+nvHqjH1CG6KQAjp+2w59uBM92MEJt1VV18tb779tpo/xnp+p6U4X8mxxRZbWBeYoXwzTKRUpRLcUaXW3lOeXPjXC7Sq+qlHGplUXPOMM2ZMl9NPP72G+28oYA9sij2wI94P+5kNY/BjztvQhW79N4QouZOhwTyNCwXY+j7xCOWCEaKANAxCbTNiuEyfMVPtr70l/Q3tBHQo1G70E088LptsvInlD9fR/AmZ1UjwDJk5Y5bsvsfuMn36DNOL51xGIPWE7dq2luefe0422mijeCFpSLhMUdsD7u3HLoPZUOHH/HZ18tWbp+FGHkCisDCZc+YZNHi6ZLjwwgvtPWvIwDXU/BobSMg4CYTRC9h1GpswAAMTirsWaTf7Pq0yWwe5FCaeyserv7/+za9DpGJ1+tcHXCYIge0JXlD9mH2zYQKIXx3qlTROFNojAIHwHE4YtsS5sMmEY9ie1aaMLNZNDUanPTNCvc9uo0ZVexhg5xofXiBYRIBVLHK18V5Z6dUR3fEqmfT6JGvcu61SBezsNne7E7Bh9HhtUW+k8ZuGzK5umyAYW4Rj39meCC95PIhkFQdsas93dMt6Mh3aFcpVV15pr8+GB5LVSAfSoBM60G455zfnSPdu3bWQ1BwUW1m2Uu69915LU5dMSjfUG2mAlyC27gmicQBjeXB4Gl5Yu+qaq0ODN4d+iP6zMY8c2X///a0UF2hG2ABa5Br1qsR6gB5Hbn6edC7uLKf83ylaUNT7KOtzmLtDD091YZCSaRVuj0xEvZMGjwLIUPcwxEdJkgg3IA8Gv/zqK/NS+gv1MoQg5HHHHKsJLZmB3fQ0O24/X8but1+wQUR3towvPfTgw+ZJMxX1Rhr3JmQ4xok+7/A+f63Q9BVVlfKs9i7oolo7RUunFk/tgVTJNsO3kc2HDdOEeo3auZcWQDxC7169ZNxBB9kBugVQhYk8+NBDgUjpyfo1ot5Ig0fxdot7GAjkcA+UCLOb2o/z773/nh1QI+Uw9U5Jw/aEE0+08ZmojT1z0g3IRJuLqmj8+PHSokVLk5vmmUv9zTffKmlQkrjMQ72RBpDxEMbdMccEjj0kB+dybclV7bRrG0CjYgzhOdPmm2++mt+mJ9CbZU86deoYuBGRf+rU77WHGR4MZiLqjTRkKobiISQZTZXkYwGrA2cRYtrUqVK6qCQs6xoB1/JlPTKFOC5ra7UFr7+EZ2fWPLMHr+WVZfL8i8+HxBmIevU0UdQ1g1966aV4u4e/eCzAqg1t27a1/UwDDeJtR4wwvdwegVC58vTTT9lxJqLBSFNXsOSZNgSsw2T1f6y0svy8d98zEdttzzJrppAdG3T3zbfeqvFkOZOQFqShJH755ZcxT0MXXa2qVR1HW221Vax0RoyeQejXpy9u0wiCfqajhm++/jojCQPSxtPYSpxqQ6VHqJ80YNTevXuHBBkIaA5p8qxDAPE1DvWUNDxdJoBQWDIHaeNpwvOqmFVjxKHuZyn5TAWa0DEIHQJMTQz6MsWyepQ805A2ngYDhiqIrUXYWAftmUw1LmCuDa/WuA6JVW0mVruNThpMaU0Y7ZbaAI3VUUocPWRUeMGCBSFhBgKiLFu2zKqhanKEagrNOZ+JBSItPA0G7dCpkxmQd6Vz2Wo8x6zWmalAL9Yrpm0WJQe7rVq1tqorS5p1AOTAwfAZHYSxF/djwOjM6M9kfPHFF6ZHtacJGDigvw2A1jZVJJ2RNp6GRwWUOu+GuqFfffVVi0ssrZkC1sxJfGDL/hZbhqGETERakAZsvfXWoX2jgaF2gHFZ1Yp2QSaCl+def2NS5Cl30AuusK5NpiItSIMXGTp0qHTo2EElCjOCMTNbCPPjjz/qXmaVSh68MgNx6vRpShqfiKbxum3ZoqXsOnJkLGXmIW08DSOmzMzzagmOsGX85qOPJpvBM8WdG+n1z49z58rMGTMkL796FiMPdVmCrUP79haXiUgL0mBIDLrt8BHB2jHwCgiv9197/fVhNl/1qbQFHrKsvMzmA1922WW27h+v5TIirO5GirsUSfdu3aQgg79IlxakgTBMgeDDXsYMJ0ds+8Ybb8qUT6dkBGkAL+8tXLRQbrvtNuWJVk0qOCPCfLuhdHGJjNx5l6BbhuiTiLQgjVdJfIeSuTOUyCpemq+ssEnZWnfJbbffpt4mfAACkqUrzKBKlMcffUwqVH7WzMlTcXt26y7z584znhxy2GFSVlmeac20ONKmTQNpGLPg9VUbu9AqyxrFZtgqueeeu5MOlKUjWBlrwhUTpKIsLDhZXFxk3wlfsXy5jDtwnLRtX2hL1mYq0oY0jr333lsbjvk2MqxM0hht7+h2wfyFcvbZv7JMSNcGsRN6woQJNpLN976ZYM5Hy5avWG76HHHkkdp7KtDykKFuRpFWpMHgTIXYZ9999QijhoBf4dnUp9qu4RuV6eppkItl3q697jobo2G1iLnz5snSZeGTiJsMHiw77LiDGZ0ykalI+fJpawJd7JLSxTJ8+LYyd+58zYhQent176Fd2B+lXbu28vrrr6XdPBtkXKCNX9Y0/uzzz208Bm7zWUTQWhv6zz3/rAwdyrcvM5gxirSrnph70q5NoS3sTFumIL+FNiK7yfwF8zQDymThwgVy5pln2ocx0sHjIAPDAWUa/vLXC+STz6ZYA7i8gtl61e+j7zpqpAwY2J9fhB9mMNLO04Q2S54sX7Zc9tprjPzwwyz5Ye4PtjhjWK4+vHy311572dfeIFljgnYMLwZefsUVctE/LrY4IzP/tePHGFRxUbG8/trL0rlLR8nPY028tCurdULatWkwMiWzZauWcumll8iceT/auAfvSDNwxsTzFZpJfGXlyKN+anNVqNJS7XUgCx6mvKJcLv7HP+Sfl/1TKm2YoMpew4He2g42fc47/8+2ViBeM9MJA9JKAx+vCaiULbYcJhdddKF6kzB7z87FyMHk8yeffNq+kMuX/1Pdo4I0vMj/l7/8RSZcOcFGfuNTOmOy8PekE0+QA/Y/ICZfamVsKKQ17WkwHnvMMbLP3vsE4tg/XsoLz3LIiMcefcyWr+dLLN7l9W19gWv59bg2gU8v07a69trrtPopsnM2qKQhV6tXZNtMG72//9250kobwU0JademSQSZtaJspRx22OHy4osvaIYRGzwS50I7p9K+s33xxRdrusNiVVwoD/XhgZwoDDpSHdLtP/LII2XJkiXSpUsXma29uoryULVyP8JGgzaUF55/Ttq1bRcu0jScjCEjKlgmZv/n+utlt9GjzcsEHnh1ZUmktLRUzhg/XkaN3k0ef/zxGosPRLE6D+Tn2EbTcR8a6G+88YYcevhhMvbAA2TpsmX2/YPw6k2QxX+zycYbyx133FGzkV77bTMOae9pomCS+UknnSTPPfe8zT8PpVerIv4SoRnH1NG83HzZbtvt5Bit2vigRtduofpwL+AhiihR8Cq+xZswe/DOO++UJ595WlYsZz3ePCNMyaJFsnz5snjRy8stkCFDBstdd94hfTL4fa01IaNI40uw//rXv7YnyH4cSBOIwPA8L6dxjldgWKJk9OhRNu7DV//5hCDpeD8ckjiB2PcX2NQm9uEv7nHPPfdYHDyCnhCmX79+MnPmDFm5YqXxtjKn0pZ1Gz5ihNyr6Vu3am0yNFVkFGncG7Bk7DPPPiOnnHqq9mCWaYYST8PZJzvhKTRC/wd/EtbLYfZ/hw4dbP1hyEM3mC+NQIp58+ZZL4weEY8CSpcuMU+jNNSL0FbRTVWudO/Z3WYSVmp1xU2ptiDNBdqLOvW002yKh6aO3bdpIqNI44A4ZNZX33xtXd7HHnsyZDBdXuonSxT+hMNQ3STCqygIF7xNSGfkjOc6HoNlVAuka5dimbdgrpTFxoV4ILnt9tvKuX88V7bZemsbdCQtP82SJs1gmar/mNwEeZ588ik577y/WJXCZ3Q8jVU9RohVVeS3TizLaNLGctpOea7rfm5evvTo3lPm/TjHZuRB0A20ijr55JPlZ9rGyitQD6c/4qEqlGnKhAEZSZpkKCkplddfe11+efYvZfq0aZKXH9oURrAYgRy2nIkxI6ThjIVImkAojcvNUcL0kJmzZmqXO0fatGknf/rTH+TQQw+V9u3bW1VJddec0GRIQ7uETCcTedeIr8Ddf//91lZJRDLS+DZKHAYXi7p00Ybxctlv7FjZZ58xsu2221q7yNPhdUK11HzQZEjj3sTIEDuGQK+99po888wztv7NjBkzrBELkSwt6Szv9Y8eMNmbXlXnTp2lV+8eMnz4cA3baLd9Fxs8dETvFSVZc0GTIU0iyFC8AG0eek6M5nKMRxo9erR88sknyhPN+Fh7h5YIva+PP/hIuvformn5tmO4Dg9MeTqdRUDwz00QeADI4u9Lx+N0f2V5hZJFVacrrSaw5quSI5/JUUoinnPxO3pMLOnKYGEW1WiypAGQJBrM42hgXCeWokYIJGMBItozjM1gnvDbLKrRpEmTFEoAqil1LHFACbwRc3p9lDmL2tH8SANyKkOI9avxKN26dbPpDlmsGc2TNMBcTZjO0Fm71T/Mmq37YbFsGr9Z1I5mRxqqIhZOyq3Sxq6SpG+v3rJwwQIlClVWeKcq24ZZPZqtp2ElB16Dmfr91NCOiXmYLGHWjGZHGohBo5f5MN9P+z60arSKql54KIs1oVmRxtsqNHrnzJ5jA3/2znjMuVQ/2c5idWh2pCHwJV5m+tEIhjhZ1A3NijTWXsGb5PIluyqrkmwQj4Yx57OdprVCsyMN/4q0PcMMuyhiNVcWa4FmRRoAceb/OFe6dukiLfjyLlNFGSHWkMXaodmRBtCOmfXDD9KtazerrpjFl20Erz2aHWm8B8X8Xmbj9ejZ04hjvags1gh7yyO23+zAQ0ueds/UnpTxKEYmJ1UWq6K8PHw+u1mRJkoI26dqoi0T8TSrpMliFTQ70jAFNCcvL8wTjsXzgh1NGrrfjOEwu685TZFYU+HAw4SPuIW0za56evnll2XmzJmh++1B/9F7gii8ljJlyhQjUHMAJCCgOyFxsJM4zmMnJ1eTnSMcBW9OMi7z3HPP2fvdVEllsbXwqsExhqmUAQMGyCOPPCq9e/aQPL6pHTNaUwRehBAmpoVFwH16LN6FfYjk59hvFsWJ+b5PP/20LR5QVlYhlasQBjgpcuS776bKmDFjrKrCWF7CmiLckwC2Th62rHqBx01coi7tSIOwHtYns1xxQJV0xhlnSunSZVKlRqiMvfOdDFZd5ebItGnfywEH7B//9HP0ek0F6IQnIbAfrYJ8C6nwRBQ8vIzZJx2qp6ignjFeHXjboq7VA9cqVyVfeeUVOezQQ6WivFIq9BrlLJ1vZaWy1mdNbrwcrao23XSI3HXXXbZYACWusReGrE+gY6LNvbCiJ1uI4lUUeUFodNJ4fepCen0aLdWuHOei5CFudWR6+dVXZNy4g6RKFWZ51nI0tTcMAiBFMvg1+S4DRuKTQs8++6ytMIGcq7tnpsFtSwBRkrjNPX9c75RXTwiCEAiF60MQF8gJA+KsjsWzD8G8Do6GKPzaL73yshx3/PGyvGylrNB2DE+1g8p4mBDWBN6Novnz6Wefyx577S3fT59h148SOtPh9vMtdsZ+2N31pGryvCCknDQuDEJClqgwwDPFAyAt5yEP+ygF/DdRcO6dd96Ro446WubM/VHTewaHtKub/uCGqwa/oaoS+yziySefYm8scN9V02Ye0IFAYUQnbBclTG1eNaXVEwLiKXxaAscIhdAMqOH+o0ABzrEYEeRyuKKUAAdxeJO33n5L9h87VlaUlxGpVRP3qH7DMhgE0q1qDNCiRYHKyCu5gSxcF7AlbvOhm9q74dzb5Y96yEwBsnvBRH7sCUlcXy/MnHe7OVLqaYLhI20KFYQRWuJ58R7hIYorw3kyh31IFVWA4AqyzzLzn33xuZx40s+MMJoiLKBoKaqhSZUYNckJiOf62223nb2eSzvIVruKIdwveBzeBWchATd8JgLZPUAYbI+NCW5X4OSJImWkQRAI4VUMAQEhBcG7drCdNAQEdqFJ454HEO8EgzBffvWljDtoXBjtNZ1jhInpS3qufc45v7UvvCUCO3H+8ssut49iMKhntooYELDA0ceTP5Fjjz1OZs+Zo9cPba2ooTMF2NULIvKjf+LktGRIKWkgggNhERIw8uiZGiWLH7ty7HMd9jnv+wz777nnnqH0ay/JMpA8JNdDzts1fvnLX8ppp56q101WnQT52rVpLddcc7Vsv/32apwY4+xiARXqvXgV/PU33pRTTzvdVv9ElkwkDjYBUXsTx/7qkFLSIJALag8OdZ94J4YDrwMZgCvBlji2eBj/3ffTp8nhRxwui0oXWzxpOWcZWKXX1MBrt3/605/kjNNPl9atWibtOZHc5NF9FgGYOHGirdYZDBjkdPIEmXLktddel0MOPdTWMCYOhHTpD+SF6HgWZDbdY1vXpTakhDQI4yQA7LuXYZ/MB179kFHEU335xzKcOK4cH7KYM2+uHH3ssTJj1ky9kGaWBh48mtJKFiNAfkv5zW9+Iyed+DNtN2mDOo/2kt6jxuKNmtLe7dbuuhKqZavWUtihvdxx152yx5576PViZDBjBlJwiKxvvfWWfZ+Bzw1y7FVmOgJbUiC9UJIH7JtuirUhDEiZpwGJAiG4E4SA8F4lsaUUsPVMIK0pqftz5s6Vv150kX04jCrD8p0TQX/L1Fb5LeTnJ50ov/nVr6R161Y2W89GGZLYhSiMQeASeKfCwvZy9dXXyA7b7yAt+CSyVX1cO3YToLusZH7eeefZg1GXNd2A3dzW5IMXUGyNPk6YaKgNKSVNMriAKINSwEurK+P7Hj9/wQL53bm/l5KSRaENo/GArFQHY2vQtCzIk/G/GC9/+fN5tjB0Hj0iPc/veWCpd7PfAMwTHb9xc+Xn50qXzh3ljtsnSv8B/UJvDIIqzKYaWrdpI+UaN/H2O+V49WYsmGSjz5oheMrGBnajKYBtCdjQ7epwr7+2aFTSoAQKEIDvk7GALcaPgsWhDz7kYPnhhx/sfL56gEA8qi81DDmpl/v5z38uZ40/08iCfZycai69R+xiCYA4UfJgHCZotS8slBeef1621+54MHiQrbBdobRs2cIaw9z0pZdfluOOO1ZlXGKZU9fMaAggL94ET4MtfXoDcJsQ6oKUkSYqWHTfCZNIoGgaKx26Xbyk1FYF5xuRZBjLyVOaqXKCm6UN00KOOvKn8odzz5U2bdtIDvNh7NdrNhJeigCiKUjftl1bufW2W2S7Hba3444dOxkp5s5l9dCQGk/04osvyx/+8Me4lzHPFisEjQW3qXsZ5Gbr3qeuSClpooRg34/ZkukEGmtRI1ta3S4qKZGLL7lEPvvqC/Uu2jVu186qJdoRZBoZxtdaDjn4ELniignhnSZNxxfp+EQz+Wr30/9cMwquz/RP7soW1EyhR3k50qVrsdx48w2y4YaD7Brz58dWCY3pQaZQFdxyyy0yfvz4eCPeS3aqgP3wKngX7o2MkCPafmHca10IA1JCGhfaqxoXmmP2URIFgTd+Uc4zo6y8TCZcdaVM1+71nB9mS6/evaSlkuLbr7/RjGH9YK2X1SAnaE/q4r/9zdo5XNczPlFJrssaNbXBfhc9rxFcjWZ0t65d5amnnpKuSiBWA3UZLQX3RBgNDz30kJxyyilWnaJ7VJ+GRpSk3NuP2ffgssZlrgNS5mkciQpAGIRmn3ME4jzMX7hALp8wQaZ9P83ejOSDqP369JUl2m74aPJky6ACrYL4sv55fzlfezztpKBVgeRrW8M8h90tIGog9yiJiJMp4TytpbDNkc4d28sD990rW20xTO/NcEFNQtCbK1PiPvjwI/KXCy6UJcvCIxBCQxPH78EWXSmMFET28TROmPVBykjjQkMKlOIYj0LwOOBkwgvRwPzXVVfZk+UlWmLfeuttKWxfKB06dJRvvpmqXqbMSv/Y/faTa9QTtdFutdljDfmyRqPx+2TX0DiXj0Udb7zxRunfv7/KHjsfQ7g+3dpKuebaa+XCC/9q+qCj69kQcMJwf4J78mXLlsVSBPnXFyn1NAgMSajrgRuQksA5FLR6WOOZYXfDTTfZiO/ixSXyyksvmRF69ewtUz79TD6bMsV6OvvuM1auvupq9S4tJa9AeyvaW0r0EnWBeSAPiBfLY9tErou8/fr1kccee1R69eplesEVzzACaRg5vu666+Xss882+UF9k4dr0fB20hC4vxdKZglQYImrD6S8ekJwFEhUEgMTn09bp6Jc/v3f/8rkKZ9oO2a6vPzSy7JsyVJbU+aLL7+0ebs8gR41cleZcMUVNqWCa8QzfB3gP4WI8Sotcj2yOFlV16NHd3n88Ue1cTwgdqYmGAZgKgZTRvnMkBOnPoHu/kAXJDZyXdb6QqORBu8CII63Y/hy/lztkfz1ogvloYcfkueefU7efONNWaqEMWLpb/1bS7uP3l0m3nqrdn07xg0S/VsX2C+UFWw9JII+3KrxoefUv/8GcvNNN0tfnp7bc61EL5Jjn2C+6uqr5ZJLLrV9G8VeT3BvD8Crebw19gyebv3bMIlIOWmAM9/dJySi3mWKw1lnnaXu/Dp57913bdVN1FWzaCnnr/aS1N1vO2K43HrrLWFyVr5WA96tTpKta4vEX0a9CkhOmlBN4Z0Gb7KxPKJEb6UN8LBsSTUpEI3PJRL+fsklcsmll+n+upEmShK2eC73XtgRwjQ5TxMFSqMMCua3KLD3kh565BErMWGENyhLZ5dvXRdoF3eXHXfSUn2jGkbraLo6q7E9ytVFQZNnHfLS5ezbt699JLWPbgP8YiHDSEN+T5hwhZx33vnx6mRtgXzumQFkcY/C1qp3LYTEO7G4Z32jUUmDorxmsli7z3yP8kEtqfkYoFyNQmlF79g3mZRCsvXWw+WWiROlqKhYSaaNZzVQ0uJfR9htuI6Gcq1ePKtrYs2mIoMGDRokt95yi2ywQX89rv6NE4uwfPkKufLKK+Vqra6iPZu1QbQKYgth2EIYAl4G4vi9GgKNShqUWrFiuZxxxhly3wMP2MoNVdqazauiI11T4Z/85Cfy2COPSoe27ex3ocpaA4wNYXf10Gup4du0a2c9ML7Isi6GsapKZeOrvLfecnONb0RF4Rn6xz/+Uf79739bnHuGNYGCRiA95IBE3NerKL+2h4ZAo5DGSwtKnf3Ls+XhBx+yRwJ8jZa4Kus2q2imdKUMHbqp3HjDjdqzymPoV+O5Sk2DoAihRiwHNZOtAgxO4GtxtEXig3vxPFxr5sWB+EM3HaIN+aelqHNHVSF5NcQrMn+96G9y1VXXaHsuTFtdHXkgBkQBEAc74l3Y9zhHQxEGpJw0GAXleEZz5pln2nevOeYb2iFvPKc16PHgwYPlzttvl569esQNYSU6lmp9wb35FiX3ZwYeGbG+13UibrzRRnLTTTdJ9+7dYmeqEXTB066UP/zpTzLxtol2vDp4QSNAHu4BvGry44ZGykiDwh6ox5l+ycw4xla8PQFLwntKYQicV2IffPBB6dOHr+mvWgJXb+LVI8Y/8zAczJs31455j7tufiU5nOAjRoyQ66+/3oYGgNugJqq01/hLG8vhdxA3GTjnv/U0xFkhit0vFUgpaXCvKHvRRRfJf/7zH1lZXiYrK7QHAFnQWbsuTHzC6fTr11vu5h3qoiIzCCXJWBKzzfqaCEPzQXcG3piqmRebl6N/LJg86wmux8DjrrvuKnfffbe0adPGCkUicXjcgMfD895xxx01zkVhNlC4PRKrI5M/BWhw0kQNgFKMiv7nhv9ZI7bK2jBqiFgPibR8V5uu6z133yM9u3cPv2cgLJkdk9t2rQBhMHxJyWLbajbGzqicsVBfQIfNN9/cpkzQ88MONe4Xy3AK1TnnnCP33XefxSeSx9N5QG7IT7rEtA2JlHgauodUSf/85z/l6uuulRXa5fQBURqejI3kVAYXu/HGm8gzTz4lgzbcUPK03mZmnrUsk+XiOuQsxoUw3AsPA2q8FOe2r8c84F5tWrWQ0aNGymWX/kM6FLaV/CSyc8v5C0vkxJNOtifkvEee6E0gCWRxwhDnIVVocNJAGAJjEhMmTLB9SBAWRlRFzduoIXS/X+8+8vDDD0mXLl2CYPWYcYAMgDSU6AULFkaMrtsoAxuAOIB7jR07Vm677TbL9EREM/+YY46VJ554Mn7siKbx/cQ0DY0GIQ0ZQwaROWwvv/xy+cell8rC0sWhraDnc7SCqtSqKFeLdkXZSm2QFsodt98hXYu72mMBzVHjVDQv1xduXORjN2wxOufsVHWj3EM9gntBVF79vfPOO+0dLL1jOGkIBHBvcv7559mSb7QDnfDpgAYhDYo7aa78178sMPuOVagsV2I5VKCNXnpKfXr3lMcff1w22XhjJZEajZZwAyAQJMcG3QhkjmVETB7nSOi/NQycFLvttptcfsUV2jhum0CGMMqLt/36629sjUDWxsGe6YJ6zx0MQIAwd2mP4W9/v1iWrViu1RIjlmRLII0/se7etas8qvX3kMGDw+/tb8OBTFuwYIG0atVaQ1gIgPnFEFUpZdWkk6ehACmopg8++GC54orLhTc63W5MIe3Tt4/MmTPH0ixbvtyqqkmTJtn5dCBPvZIGhZhghTtlVts5v/utkYdMEV5Uo1BryM/Jl/KVZdKhfQd103fJBv376/kce2gJoSBOQ5OH975btmwlbVq3ljy9J41h5CRjGhLuaWzimWp50IEHyB23TZS2rVtqoz9XevToYVNbkYO0jBQvV5sefezx8sFHk22BpsZGvZDGSwnggRlTG/6s9XHpklKrjZi2EK12eGRQrO73/nvvk02HDGmU0kOboaSkRNq0bWsvvJFB5mFMjYambDV5kIOq6uKLL7YppLNmzbRC5yAdpsU7jhs3Tt57770a9m4M1JunwaPgZR544AG54soJYVEhzQacPj1mSpWyRbvYVdKtW7H2kh6RbUYMl4KWLSykGhCVgMfh/SjIA8G1yZkCygQ4cQBtFwb38EAsc7IqqmyIYNyBB8qbb74Zl78xUC+ksRfW1ADMtmNRoaVLl0nHjp1V+YIaWZCvadq0aSW33HSzDN10UyvZnG+sMhNKcZW1H1q1biWtlDwVmhFUofVWmlYD7g/wNhDg6KOPliuv/JcRiXMeAKPGgDYObaEvvvjCjhsD62Ub3CgBpe/QLuQvzjrLphiULl1qA3hFnbtIgRInz0Z9w/Okm7StM1w9DM941Dp6lWCU1AOqhnkoYN68eTYTsGWLlvGMShW4H0ShQTx2333kwgsu0O64tnniI42Yyl/34U3TpXLguIPkS+1d8apMGfOPUoh1Jo3Xq1RJjzzyiPzhD3/QNswSJQ3jCSKlpUuszdC+XXubclBcVCz333efjNp1lLaJwzhMsswhxkNDAhlDIGP0biqLLRfC4GMjAFuwcAHE+dnPTpRfnX22vQAYHuAiY2gYu9wzZs6SUaNGyccfT7bfpxJ1Jo2TJShQJa+//rqcctppsqi0xLwMClEimCLFBKvly5ZKj+7dbUR4hx13tEcDq0MqCJMUKjgNdW9jpBpuT+7Pltd6WVcHa2BT4hy+v2hRiRxxxBEyY8YMO04V1ok0kIL5MLx6esyxx8rS5UtlpTaEHepItV1QaVM3GWu49JJLZI/Ru0sBbyAkbeQ1PkI2KOm12vSynWpQVRJoDBNOPfVU+etfL7AeaSBPdYENqLLVM/bdbz/b2vBGhFwNhbXOQRfGBX7xxRflN789RxaX8gI+Q2Ia6FKbp8+1RYBaqFe58X//kzF77RVKED+MK1wLSNQYOWYI3W6MsgYpGxwUTKZSnHba6XL66afH215uHPKhoEALoQr6/dSpNv3iq6++snMNjToVe3pJsNmWDNNe0hztrvJaBjBD635ulZYWVYiSwgPKsQfsL7n+5uPagGSNkWOaF9Z+8MfvjUbcAAqZVZWV5fLnP54rp558khbCXBaviAMvXoGH10I6Z85cOfSQw+Xrr7/VfAqTzhsKdSINbpI2zEEHHWSNXuOLeQ4NPK1mSwtf//3zkkvlEO0aRjoAq4BfpkOpXgUucyMTB5D5eB1mOrJQk7d9APv+xkPZyjL5ftr3tlRteO254ay61qRBQLrXDMRVKd1Z0JD1YKznbPLx/g1zV/NsSdUjf3qkjQTHHFHGwLIDmT00IrA51RKFlXD++efLcccdZ3ZmxmE1ecTGmViV6+STf26zBRuS8XX2NNsMH24vtHXv1t0Gwky4qgpt31bZ2AKN3oMOHGfzZXKYuolGGQRIjrkbzuR1A1WUk4fJ5DxuOOGEE/SYXmiQ1B/PXHft9XLE4UfEf9NQqBNpAMIM23xzee6ZZ6WoSxeTGyF5in3u738vR//0p3YcSx3b1gLPnXTJoRiQOl2oHs189iHOhRdeJEceeWQsViyOCfj77LuPVWWka8AmTd1JQyM3PyfPlopnsnS34mKpUML889JLbT28Fiy9ytNqReLFOa4R57mTLjmkWPW9p/QARKAwEli59O9/u1COOOxQaav2vunG/8mWWw7TcyItWxWoF6KtE/thA2C9vsJC650l5pkkRCOtNdMM4l3D9ES59jaYOffZF9HuKeMfldrjK5DJH31sT5vjpIm35NOD2bRj/Ck4208//VSGDh1qZOKYXmtDo14+3YMiBEpD1J2mI9ZEmo8+/lh691DSxJFepAFeBTnc9myrmwYNh3q5g7vOdCdMU4Hb2oMfp4IwIDV3ySCsblwpi4AsaRIQ95VZ8tSKLGmyqDOypEmALUig20wbyU4lsqRJAviS5UztyJImAek6uJdOyJImGbLEWS2ypEmA8cTrp2wdlRRZ0iQg3Z5ypyOypEmCrJNZPbKkSUC2IbxmZEmTDFnirBZZ0iSgxqd7snVUUmRJkwQ4mKyTqR1Z0sTArI58PpbKfixkkRxZ0hiq7ONk3Xt0r54akXU1tSJLGgUTs7sWF8uM6dNjMVmsDs2eNLyn1alTJ5k9e45Nl/T1crJPuWtHsyQN5ABMj+zRo6ctMcKkbI/PtmlWj2ZLGt6a4DUclulgojaNGNumybvc6YxmSRraMF26dJbp06fFXwfxSfGBQDFkiZMUzYo0eBhCsTZ6bdWrcr6V6ecCcRaVlIQIkK2jkqLZkQbPwgJAvEYcvEtgBruQ6L3337NFjWxkOIukaHbV09KlSy143VPd+M2xlbtu/N8NdpxF7Wh2pGEpVdotrDKFd2HZjhw1A9/P5KOrH7z/oXwy+VNbcDKL5Gh2pLnmmmtk9uzZ0rZtW/s2QiW9pZi3sVXVlUJPPP64rTAVRmyySESTIo23WViYgHe2HXgWAo3fJ5980tLNnTvXvoDCC/M5eblSXllhCzVVKFFefPkl+x0+KItV0aRIEyUKxPD2CoA0b7/9tqwoWxlfunbevPnSsWMHI09YxFbT6fbdd96NtXuySIYmQxonCJ7GX4Z34hCIe/qZZ4w8rJZOewZAnDIlUl5u9RIpS5YukYm3TsxWTrWgXpYaSQdADAgBaSAMK5EyiMfIL4Eqa5NNh9gHNAIbai8vrBq+Qf9+8ubrk2zJuCxqIuM8jXsUwD4kgSCQAtJAGLYsVoh3IVBtvfTSS/bhDKqmNTVV+HjFHG0s0wbKYlVkBGkgBV/b9Q+QQQoPAE/i1ZHHOblo5LJK+l333GMLGtJDWhP4bcnixfLqa6/Z9aJEzSLNSUOG4UEIUVJEA3Gch0yQx9szVE1hKbHwPc33GenV3hHp428crAHXXXuteSl+kyVONdLe00AC2hVODMt0JQX7BDLV2x2Qw4lDukCqSvn2229l6tSp9lUT70bn6HkWnexaVCxdOnXCvVh8gO7r8bvvvivff/99vJrLIiCtSeOZ5V7EARkgDiCeY4jj+/67QBqxlUeddHieEAJOPfUUGT58mxrVFr+BQqyTTFuoqSDRY1YXrOq4tUFGkAZCECAKxHDlfSVLJxZb9zQezzen7r3vvrBQtrZp8DRmIw1c7+ijjpY99tjT0ieCUWFWLvUqKtPgdiJADvTATrQR+YoOWydNNKwJGVE9ORHYevsGYAQnEm2YKNwAU6Z8GtLlUDXFFjTM0bTKq/4b9JcOHTrIvvvuG79mFKR94YUXYt8ayDygv5MEoCOBwmZf0dMepuuNXb1wrIk4aU0ahKckoDiBfTwOygEy1dOwnyw888yzljYAD8QnhFgaPl923mVnyS/IlaKizjJ69G56rqaxICOEueOOO2LGjJ3IAGATgA5ODi98wIkRJRLn3J5+PhnS3tM4QqYFhVCeLcriYRK9jIPSc/edd+qPURNjQRc1SE6V1lRV9o0BroEdDxx3oJ6PrM/LU++qHL1GhTz44MNSXqY9uZXVjynSEdiHwuUemODx2It4P49tvJ3nBMGO6E9a4mtD2pIGRVxJV54thAGUDI9PBpR/4403bMIV1wqGqS49mw3dTAZtuKF2w4NL3nrrn9i3NeFMCIE8GHLKp1O0TaSN8fzQnkpXRD1FIvCYnCdgQ+yHbk4g7MzvOE88+7XpmrakQRkUcNajaNQgboBEeBpVWR5+9FGp0OOQlrNqVP3HR0tG7rqzkkDjJQwM9u/fXwb038CeS1WTKzSw5y+Yb9/Ctpgk90wnoL8XLIAdsYePkHOeOEjEFt0hCfHoypZ0TiiOE5G2pAFuABQAXgICCZJnHr8JxMqRSW9OsprJ0ts/S6BVzcpAmrzgwnNzwz1+//vf25d9wxdq+R1XCcT9+8V/j103fUGmo6t7YDyIH0MAAvb03iiB81GysO82Bsl0TtsHliiMsmzJUPZRxJWpDSiJcWb+MEuGbbmFHjMCTFc7EKpMq5mOHQrli8+m2ESsHL4ZHsPylStk0KBBsnDRIi1N9LbCbzzw8ZDevaPfTUgv0EvyYQjgtouSiYAuDrcnnid6DnJxjmtErwnSxtMgLJntzHavgiK+XRNhUJev2a2sKJerrrlavUZ4ZBD9FVMgTjrpFGnXrn0NwgCotdGGg4wu6l8szoyt9RnyMM8mavB0g3sOAFG8SjcdYvbDxhCEACHc5k4uwG88cA3PE0fakAbBEJItyrigayJKImiz8P2pBx96yK7njOHFfkjRMr9Axh2wf4hMAOn33nvv8LsQYRueWVWUV8hTTz9lx/HzaQzsRoAIEIJ9bEqAXHgPCMF59OE88Zx3m/tv/NjR6KRBYATHtSIcJcCVcYHd26wJqIaXmPrdd7Jw3ny0tldR+GVVTO/27QttUC8RXJ/7HnbYYdZoZOqn/1YFkPKqCnn88celtLTUSmc6EQdZXCYnAMd+DhAXreo9DqJEiYMNPK2nSUSjk8YF5gNjLjQKo5grsDZVk4Nr8bwI8kEENxpgf+TOu0hh23Z6EIuMgPNdu3aVnXfeWXtRDAJWg7VrFi5YKI888kjc6OmGZDaKxrFPwC7Y3YnmNvc0UZslQ6Nqj3AEBMXToAgKeByBDKoLabjGf/7zn/g11AzhhAIijP/FL2IfbK0J0lIKuf/IkSPD7zWe6o6/XIr9R7UbvzZeL9WI2gfZV0dszqOne5nE30aRzO6NXmQQHsGB16leB3MumdC1AYU/+OADmc46M0l+t+HAgTJk8GDJL6jZAAbcx++Jp2Fr5IgZkQ3nP/roIzuui1wNDZc9CkjjBMC+TiT2qXr8HL+LFgK/TiJ5okg5aRAQV4jg3uB1onh7xr1LXYCSXIen0uyjvA23VMWMqTbYZpttJFfvY1hNng9WYjHYFz6UXu2u6Y0xvwZirs6ojQHTNyYT+04GCiJ2BeyTBtt6ek8bDfyOhjLnvUBHkVLSRA2NcJDHBeWce5h1AYrSeH3hpRe10cp4cKxawzDaiFVTyL777i05+XqvtbjFL8aP17/VmeDo1q2bTJgwwe4X1aexgYzIBJDLCx025ok2BdSrIoIXWPZJg+2dJK6XXyeqP0gpafzmCIKg9FLYejXkYV2AAWZMn2Gz7Rx4ijAlIk+6dOli1Q5YU1Yjz6hRu8Vf3cWGGLBLURfrPT333HNpOenc7YqsBPQAEAFSALexe3Q/R1xiQeDYyRdFSkiDIAjgCuEuXUgXNBmj6wJ+e9ONN0p5mbpTnh1oVcIjgUr1MmDcwYdI28J2pvCalEamos6dpXfPHnpQIQV5OdKrRzdZurRUlixZYpPcv/rqq7js6QJsSHCZsAmEII6OBvaHJJ4XBKosCEScw6um2pAS0rhrdIWcIFGl/NhDXYFRGEdZVdkce0K91157xY7XnMlcA8MdcMABJltRUZG9/w1hkI3z9957rxnd2wvpALcd8jmhOUYHhjQgCPZmi34EzpM3BMD56D7nE9GgpEHwKINRguBu0/edNOuDRYtL7HnTqg1cCFAgG2+8Uex4zUAeFUiOOvYY6dmnt5QsKVWPVd1OQKf77rvPSEQGpBOwIzZ14rh3J3DOA4iej+YDW9/3tFE0GGlcUAJAQHeNBISMepn1AXd44sknZfHSJfbsqQZyqmT77bfTBmxXu28SVq0CI0dujvTp21f6btBPli1frveo1gV5Fy5cJJMmTYqXynSBZ3SUBF4Vuf2958qxEySaD35cG+qNNFGCsEUgtgiCACgRMi0I5WnrC5dddpnk54UeQCIuvPBC267OEFGY4fUfz5xGjNhWdSknMm5UO6+N7GefeV71Ss/XdqN2p3CydfnZ9xB0qS5IicfJUK+kgRSQxV0eN4fRLogLD1BoTcKtDbjX5Mkfh3tr4FUUvx+hV88+svnmm0fq5+rqcnXAMPS79tpjj/jiAFXqfSxoj6xKL/XCKy9ZtZXuQG8nEMH3PQ+CXdYe9Uaa6I2dQAQEY8t5BK2vKglwH7Js0qQ3ZObMmdK9ezfJ0+s7uBeEWVcg41Zbbil9eveJxVSDgcPvvp0qkz/5ROWIRTYT1BtpHHgWQIZZpsZCFGRGfZCGp9C8q33/ww+p/6iSadOm2eAbS6LRM8ALHXjg2Fhqx9qrrFJaQ/f444+ztzPxYqZLDnejUJTLP/95qVVf7l2bA+q9esKbOFEITpCGMCiZOn3mDHnjzTdsiJ+Y2T/8oB6nh5G3Q2Gh7Lfvfut8b/wYK0jsOmqUTTqnKjKqa90EYZgWOmnS69ooXlhv3jMTUK/VE5kDcfAyjF94VcS2IQzKFR+4/wEpV4JUaluKY0r8nDmzpbt6nP32209at2xpadcF5WVM0ciRgQMG6HVaaUdMdQy00XgakSIlJYtsKTb0boiCkY6o1+oJYkASCINbp1FMnMfXN3G4GosqUnVATF7o5x6sBzxrxkwZw4Ce5uO63rfArpkr7dsVymGHHhq8Gf8tQCCRZcuWy2233RZ+0ExQrxPLKWkQBoJAGKqqhhj88hINGTZQLzBv3lw9oK+DtwuN7qrySvn444+ld6/ukq/tm/XFrFmzZNMhm9nE9FDW6IXhd3KkfWFbe6zAg8HmgHr3NDRAKfUYkG1DANJQDT3wwANaNfyoMYEwDqqUHXbZQfr06y259UTazp07y6CNBqqSkMW77XibKnuI+dZbb8Ximj7qlTQA4nh14Nv6Bu0HcMEFF+hfvweqUAVqF1+9zVm/OMvaIPUhASSlAIwYMSIWUw2cHu+Fv/rqq3EP2NRR76RJBaj2WKTo66+/VpL4c6wKLfPMSCuXos5dZMTw4fYmZfzzgtYCWTdAfjzbuHHjrP2kfSqNVeKq18nNVa9XsVIee+wxS9McGsQZSRoyxqddJoIM7j+gvxS2a1dNmPXMQ/c022+/vfToGV6Wo1rSE7bPucmTJ8snn3wS94JNGRlJGsZM7r73nqQz8MjHww47HPbYgJ9hPesoiOhDB3ibPN2PnTBCMSbE9tZbbw3xTRwZSZo5P/4oTz37zKpPtJUj7QrbyeFHHC5l5ZqR2iCuqCcNIQ5hjz324Cj8i8URAIsEZD1NmoHSTHj8icfDg1ENUXBupx12kLatWktBXv333CDH0E03DVVTnK/VxPn8889l8eLFJkdTRkaRhlJMY/OJx5+IDxwGhMcVKLP76N2tKrEQ8wj1CQb6jtTqz94R511xjXM5kK05VFEZtcw9JZgFBjffcguZ9cMPgQ6sCKE7FO6C/Fx5W6uIgf0HkJNhGoMmCSWDvfUjEPeHrHwzaqeddrJ9h3kXlaWwsFB7dV9Ky1br/vgi3ZExnoYsL6sol6eeedqWoI/Om4EMjAT/ZOutZQPtOUEWZt7xm/oGHmzAgAHSo0cPm79DY9sa5Nr1r9TuGqT+ePInSqim27bJKNJQmidceWX8aXP1GAyOJUdOOukkW/mKBnJDZJlXQxCHeTosigRMNtvLlZXlFbHR4dCzaorIGNIAFhv68ssvw4HmR/Ax4aBtm7ay1ZZbqYOhJVN9rr79DcSh63388cdrGyu0pYy8EFn3aSTffc896mnSe1HH9UFGkYaHgotLFtu+9WAUEAOabL7ZZtK7V2/dj5IGj+SkIWb9YSTRMHr0aOnTu7fkMxU09mndsOxalXz44Qfy6afM6KtfwqYLMoI0GJ9/YTUI5gHzgJLJXiGziouKZezY/a3aCJOxoqh/FSENPTnGbKKNYQcfHWNJEpO7CRInI0hDBjHR6TFW69Q8olqgXcPXbSEML8MdecQR1saIzQGPoX68SzJAnJ132SW0n/Q2UWrwVsQrr7zSJAkD0p40GJ4MeuXll+NzdfAmjMr00uph0aISGTp0qHTs2FHTxX6UAiALT70LWqw69QJCM5eHtz6bItKeNBCGKuCF556XnFxGeavUm+RIt+5dZc7c2fa4gJfh8DCQJlXEYb5Q167Fss+YvaWyXBu9eD73N7rP+9633HJLOG5iyJjqiQ9bkBlUOV26FMmCBQvsQSHjNQfsf4Clg2CcTwWQidHmk3/+8/jSb2HsSCXIDY3lq666yrwNaZsS0r960vD8iy/IjB9mGWe6d+8uS5aUyvLlyzQzKmSzzYfKoI0GWTWWKsI4IMZGG20k7dq18xgL9oF4BYsG+DL7TQlpTxpGXG+ZeCs5ZNUBbxosXbrMMoxJVkcccbhmSpgXnErY/TV06tTJFqzm7ngaB96FKaIffvhhljSpxorly23CVVFxUXyMJoptt93WtlYFpDBvnDS8ynLGGf8XSKvkwKA8xQB8nfdf//pXtnpKFWj8Er766mutilbIksWl9pF1nulYBil4ODhw4MB4BjYG8HJ77rmHFBd30f0K7X6rb1TW8DiDNxfeef89W6evKSFtSQMJcOt33HmHfQVlifZGaC8EcoT1VM4++2xrhDYmkIfXdFgEMgqGBlg4gEnnzz2rjfgmhLQkDbUMbZl5ixbIDTfcYG86EusehQyhy3vUUUfFjxuz3cC9d99993DAGJIem99TkcpXlsnzLzwv5eWqUSPKWJ9IW9Iw0vreBx/I8rKVqxib44EDBkqHwvZGGGAeqHFqKLs3y7PZN5U49n9VgeSvvzbJVs2ibdMUiJOWpMHw+do1euWll2VlbFQVYxMsU9Tuu+y0kwofWELGGGkaAdwX4hYXFwdvExGDczzDLFXC3HXXXU2mQZy2pGHq5FtvvikF+QVGjqry8GCQcxj/8MMP0/j0EZ821uGHHy55Km+FktqC+syqXBZFYBrozVlP09B4/fXX5f333pPevXppSWbVCW1Uqr3xMpsNHSpDBm8ar5rSAXiVzTbbzB6aJno9aMLaOaw9nOypeKYh7UhDScTL3HX3XbJixUqZPm2GLVTUIq8l5dYyhG8y5eSp98lLr1Lbs2dP2aBvP2sIQ3DA7A3khjCffvqpeaRMR9qRBsLwsO+dt99RA/OAMkdmzZot3Xp0l7yqPHvCvdtuu2lm8DpsepVaHwZI9DSA3uCEKyckPZdpSLu3ESANz2uGDdtC97VVgJE18A511y5FUqbe54OPP5A2bXlIqKyPvcudDsBLQvghQ4baA1WGhm0hRyycU2lrWzC63adPWMMvUwmUdp6GxuIll1xin//D2GQEq0DwRHvOj3PkjPFnSuvWrew5D//SCcjO/OFNNx1iXof2i/FFxfRXeflWuMVDpgxF2pGmpKREJk6cGDuqCQw/duzYWAm17LD4dICTgO3o3UYbgVj2hIY7pxjko+H+5JNPZqyHcaQdafjAV/z7kTHb2mx/de/FXYuka7eiWK8pvUSHCMjFI4UjjzzSpnzm6zEqwBHO4WGeeOIJe3U3k5E2lqeEEvjIF1ZOdN/0Rljqo8azJromaQQnDrMKdxm5S+he81ihMpwDS5cuTdtPGq4t0oI0EAQjLl+xQm69/TbzNFY8Y7DzWmZPOeW00PC1fmx6EcYBFaD7fgfsFwb2lDGVudWek3Dv/fetUigyCWlDGvDue+/KN998I1VMf9BjSmcovTmy8cYb2wRyJsWRGk5FeJVWKNMe4E+2+knyFpcK/+UXX+tOelWvdUF6kEaty2soNBJ5Q9LaLBGLQxy+Ckd7IZxSy3M+DUmDSPl5uTJoww1lwMCBkptPuyb8s8ceKvr0adNi38FUz5OB1VSjkwavgcvg88e+2KE9HY5XP1RdYUAvLzYljonb1RVBegHJIAg9vfFnjjcJGRHmhBFHCwWDln+76G/2FTwKRKZVVY0+uBeMKrJg4QIZ0H+AGpASWR1PFcQysyzKWNimrcZonFHdzrKTdsB7QIT5ixbKsC22kKWlpbbCRB7De9YmC2mmfPaJ9OjRzX7jDeVMQKN7GkyFEJddcqn2MvAwkAHolm6HepSjjv6ptGrd0sgSCAPS18hUrwzudWjfXvr27RMWrK7SLrfqVl5ZLuVV5dZAnjz5ozjBMgmNThrAmi7eDcV+zJpxM5IBhx50iPInswwLmNbB+97+vahE+Dc3M8nLgEYlDSTh8cCPP/5o7whV4VlUIh5GmiHV87QsaCUDBgy05zaxX0VCegOJjz/hhKSv7oI777wzI1/dbXTSUNIee/wxG6Oha0T1A3nsQZ9ip512lKLOnTSeE4neJr2Jg3Q9u/eQrbbYMkREgN5MAX3qqaeynqYuCD0Hkeuu+7c2FEMvia1FKqFoF/z2t7+1r8WFtgzGTQzpCxNZdRmtPb+AatLDE96ZeuqpZ4TXclA5U9o2jUoaMOWzz+Sbb7/TvdDtNqjt6J7269tXtthiWDU/jCPRA4tIa/DUe9ddd7W2GfI6MdjwQJOl1igsgTR2Ku3R6KR56ZWXtUfBvBmOYiTQngb2G7b5sJiRcfSNLuo6gYetwzbb3ObQUB1HayJ0Yyhh8seT7VzEEaU1GjUnyqsq5elnntbSyKipGlSNaIN62qbhQxV7jdkjRprMJIyDV1tOOflkrW55PyuQxdsxeNR/XPKPQJoIodIZ650b7m7xBdGCwj5xtYHfMbsN91yeuKihEqd1qzY2Fzi49cyFy7/HnnvEPiKmlqGXSIgZ7JWXX5GSJO+ppyvWK0d49L+4dLGcedYvtEH3pM2sowvJAzueJUXJ4D0l4DPXbrn5FlmxcoUNrbMUGiCeRYsOOvig+LovTQFMju/QoYPqs+q4zNJlS2X69Gm273YisF+utsSm2MwDU0r5dNHtt99ua+CYl0oh1vkxAoISpqmy222/vRGlW9euUlFWLl2Ki6RLUZGttUt3c9sRI6SrngNuMIyx595j5P0PP7Df8M4z4DSF87aJE2WvPfeKl9RMJ0+5NnbPPfcPcu11VyshyOQcya0MuvFsavz48fLnP//JjtDViQM5+FAHgQlqjGnNmDHDZjjS6xq04SCZ9MYkq/pShXUmDT9irdyPPvpYRo0OXUp6CsVKllmzfjBPo1pbQ5CMZzGiIUOGyCaDB8smm2wsXbXk/eykk2TRokV2Mf/YVzCayKefTJYe3XtYDEbMfNJUaKbPkC233MJsU2mrX+TF7dO5U2e54cb/yXfffWvr9U2ZMsUCn2/Gu6A/hbRI7ct6f1ad6e8KWrSQr778Ujp1VC8Wu1dDgsK+7p5GM5eScO+991rmQxDKD4p1LS4Os/E1Lkx4rAa1EFMhKV2MBnM2ECKQBgOOGLG1PPnEE3quuoua6aTRylqJIjbF41MlAxPnmTXE13jRsZVmfufOnbTAzTQbEBfVmX23BQspUSPNL1mkBKyUJx57XHbeaYcG7y5AGLAe9wkKTZr0hilE4BPHBXl5Mm/uvFoJA1hcEaNhHIhBaXNUKJHO//N59n4T8GtnMshsX8Z25MiRmEbhy2TTu4IwXazqAaQ328T0jm4JeB8KJx+rb6HendeXAXFOrIbEOpOG7jEz7F5/9VV7mEjGe+CiUSIAJwweysZhtIfElg9RVMWqJn7XvVt3GTZ0mJozKlpqG3r1DTI6X9tsBbl5svdeY3QLYRhWyJW22tjvWNhBZs+Zbe9/CyuYatCzHMQJk4jS0hKbl9OhfQetzj7SvFDPhftZB6yJaFSP7mWM0La3DkAZnp34Kk9eCjysAriit8utgiCh3ZIMQ7TNwww9/3B6UwE2CVVv6BRw3Ea74CzyOG/+PPNC2ISprWuLhfPnqndXD6aem6p+XQAJCPyekEg84iCNpwPrTBqAwp999pk9dDvnnHNk2LBhdlO/MYN3TBKvUmMRZd4HD0OVpHU5q3MGZgSD8av9DzzAHRDJYlgvMdMKFIhjjz3WOg1t27ZVDzPHbARZrEvNW6W8KIjBKDeaUd7G4TeA8Z4dd9xRLrroIvtK73//+1+7Ls/qkhbY1QAPQsMacrA1GWJeiykr3Jd90rkc6z1zzy8KuDA352v5M2fOlBnaqHv33ffkww8/si/JlpYusQ9Q0JPgN6He5pf8qZK2SsJPJk+WwsJ2Nl0yulpmUwE24tXcQw89VObNW2Aexv5pLtBttjUF8bKqe5cuXbQgDrXVKAi9e/e2QEMYkkAi92CgroQBTgxAnkA88/SxOK7JPnJzv3ohDeBCBBjKTe3C3EzP0b2k7i1bWSZffvmVfPD++/LBhx/YM5eZM2fI9BkzZUlpqaU9YP/95X833KBkCcI2RdJgm3nz5tmbFSxAqYpKYfv2tqQKX3UZuOEg2XKLYbLFFlvIBhtsoBkYvAtwUniBw95OGFBX0iALA4f8jmsB9pleyz3YxwlwD89Xy9v6IE1dQa1UURnqYIRjAOvpp5+Wfv36yZgxYywegYMnalrEwehk0B//+EdbuJoJ83gP7EBJZguiZGgoIAv3c4JwfzyKywK8WvI0VgU2BmmAC+z1pwtl69bp1lntRgaci4JzmUYqb2xSBSB7tIS7PqksLG5jZAJsnSTEQxKX1+VrFNK4kHEhYobyc9F4jyO9sz5et0bSZBpcfgf6RY9TpZff1wsvJGGfOI6dwOZhYjKlnDQYi8xn66UtCuJrg/+W30SZn8W6Aft5YUysGp04TpaonVNOGtwzAkaFQEAaZDTAoqRBCQLxznhXlG2U/VnUHW5fbOtenOCF0W2baOOUDoAgIHAhEM7reMYevPHlAkMKPAqk8jEEgGJOHEIWdYfbjuCeBvvSBXd4PiQipaRxNjsgDHDX6OcTheW8K+XE8+Ms1g1e6Nhia2yJ7b0jsjqkjDQuHN4jeoygkAcFIALHHkhLcOWIQzmOgZPGj7NYezgxsB02xrbEeeC4NqSMNC6c70MUBGPfPQlAYAgCIaIKeDzpnHDubbKkqTvcnlT/7uHJH+LXhJSQhkwluEC+j6DuQTiGAN7GYZ/6lbZM9Leci/6efbZZrBnY1p8zYUcKHfvYMjGsDimtnhIBMaLVDwHmE+gxUb9GPQtpKRXs89ss1h5uNwKFzAsotgbkwdoiZaRZE3shhhMIBVGK4N4EuEdykmWxZmArvAvAfhDFvYvb1psNa4tG9etRQkRBHOcABALEeUnx4yzWDLebexbvHbn3jtp0bdFopHFlokCRRDL4cWLauiranIENCdjXvbfbzwtnXZDS6qk2AhDvLXc8C8fs11YF+XmwLko3dWAf9yxuQ+xL+xB7Edh3m3tYW6TE4giEgCjixwhNXYsCKEZgn3Se1n/nCjnpnGT8pi7KNhdQ8KIFDnu57RzYbV1tl7Ji6oI7cZzx7i4BJYNjb8c4eTiPguxzDY4xCsdZ0tQEdsFGThpsSk8UuM3d3olEWlukjDQI6gNJCEtmQwrinSTsoyABQuCJ3NO4gqTBSxHH9bKkqQY2itoW4rDlBQDikoV1QcqfcruHIOMTme7Hroxv3Ri+TzxbCERo7sAW0W60exmOCW7v+rJVo0zCQgm8i3sN4ASJwslCeicIx8ANkkWwp5ODLd7F7QY8rr7s1SikcVD91KYQJQfFIZUbgTRR0jR3uE3cszAnyT048RQytm6r+rJZo5IGoKAHhytXX+60KcHthI0gi1f3tO8ohBwzgBcljqN+SCPy/5wwSPDhhEvUAAAAAElFTkSuQmCC;" parent="1" vertex="1">
          <mxGeometry x="100" y="230" width="31.94" height="70" as="geometry" />
        </mxCell>
        <mxCell id="2kZgn2yWBnld6z_HZbz6-2" value="неавторизованный&amp;nbsp;&lt;br&gt;пользователь" style="text;html=1;align=center;verticalAlign=middle;resizable=0;points=[];autosize=1;strokeColor=none;fillColor=none;" parent="1" vertex="1">
          <mxGeometry x="45" y="300" width="130" height="40" as="geometry" />
        </mxCell>
        <mxCell id="2kZgn2yWBnld6z_HZbz6-3" value="" style="shape=image;verticalLabelPosition=bottom;labelBackgroundColor=default;verticalAlign=top;aspect=fixed;imageAspect=0;image=data:image/png,iVBORw0KGgoAAAANSUhEUgAAAI0AAAE1CAYAAADasGMJAAAAAXNSR0IArs4c6QAAAARnQU1BAACxjwv8YQUAAAAJcEhZcwAADsMAAA7DAcdvqGQAAFQ9SURBVHhe7Z0HgBXV1cfPNvpSd+lFQFQQRY2CXUQsWFCxG7sxtk+JMYlJTNEYjYlGxVhTrNh7771gryh2RZogdVnqtu/8zn3n7ezjLbCw+/a93feHuzNz576Zc87933PL3LmTs2zZsirJIos6IDe2zSKLtUaWNFnUGVnSZFFnZEmTRZ2RJU0WdUaWNFnUGVnSZFFnZDxpqqqqh5nYW9tBp3X9XRYiGT24R8YTKjXk5uZoxufoP1VH/+fk5Fga3yaioqJCf5OrSS2xxVVVVFp6D8ng94yC6zQnZPyIcHl5uWX60uXLpKSkRNoXFkqbVq0tI1eXmZAGss2eM0cWLy6RTp06SZdOnY0seXl5tZJm5cqVsmjRIttv1aqVhYKCAjtuLmgS1dM777wjW265pYwYMUIOPeQQWbJkiVRWVsZSrAp+Ayluv/122WGHHWSHHXeUkSNHyowZM+x8bYQBN998s2y33XYyfPhwOf/881fxOs0BGe1pKqhclBzbbrutfPb555bZuVpB7bP33nLTTTdJixYtYilrAjqVla2UDQcNkhL1GmYAzfydd9xJHnzwQcnPzyemBvBMH374oeyzzz7mafAwEJP7HHDAAbFUzQMZ7WnwBxWacXO0irGmSaX+0cx/7bXXZP78+SFRbVCCde7c2aqoHAsib7/9tlV3id7DPdPVV18ty5cvNzISB2m+/fbbWKrmg4wmDV4lV/P3ZyecKHmaqV4l4Qlefvlly9hk1QckKcjNk00GbSTtWreRPN13YuBRkgEyvfnmm/Frci9Id8YZZ8RSNB9kfJuGjD788MNtv2XLltbe2HfffeXuu++utV3jbRbaPvymXbt2FkeDtrYqbd68eTJz5sw4uXJycuW4Y4/X41iCZoSMJg0ZSA9pkLZNdtllF+sBkfELFy6USZMmibbXLE0iiMNzzJo1SxaVLJJlK1ZIlfJo4403tp5TIiDJE088YV4oEC6EsfvvL/l5q7Z/mjoyu02jGQhp2J588sm2JWO/+uorbeiWybRp05J6G9KtUKJ88803Uq7nl2l3HWrtsPNOoQufBI888oj9LpAwR3r26CmDNxkcPE0z8zYZRZpEr8ExAQIMHjxYFi9ebOMom266qey2227mcRJ/45g6dar1viACAYzZa0zSsZ2lS5fKu+++GzsK991pp52koEWB/lYjws+bDTKCNHgNqhrv2XjAi+BZyOiioiIZOHCg9YA++OADef/99+X++++33ycSB9/z5ddfxfYDcQq0mz14k01qkIbfcU8I5mM/wXNVyvY7bB9P09yQ1qQhgyAM3oOM9UxzwrAlHuLQFtl5552lb9++lsGzZ8+Wu+66R/eXxj1JFJxnPIZrkO00gNu0bWtpE4lA1eT3A/xu2LDNlGBKGqNg80LaexoykUyixEMOMg9wDKEInMdDENq0aSOlpUs0bZWULCqRS/5xqaWPAqWXLC61a9BtB1WVVXqtlXEiAq5Nr+nSSy+Nx3sPq1evXnacrDpr6khrjckUAkTxfT92kuBhnEgnnniiVSXebYZk33z7je0nwrrZOA68h4bl2i5aom2XRC9DYxryAO4H0XbffXerDl2eTAG6RfVj3z1oot6rQ0aQBk8CEcg0lPTgDwqJJ12fPn3koIMOinmfPOnUubMcc/Qxah1LVgPDhg2LX1MtJp07d5KOHTrUIALnaFTzmAIQX1xcHPc86Q4nA4EC5N6a6p7OA1v33h7WRq+0f/bkSrjiKMpzHwzgYypkpmW+AmPccMMN8tlnn8lpp/2fDBwwUHs5q4698DiAsRdGdPv07SPXX3e9bKINYa7pJOSeNMDZ5xkT1yR9z549jXCkdYKlI5wIFCJs5rZEZtfPgW05dp1Wp1dakwaFXRnAFu8CYVxpV869DnFuLD/26ioKyOdE4x7sE0jvhvNqifNRY3LttTFuYwKZgevocqIfiMpNnNvNdfKQDGlNGlcmShyAITwjCcAV9HRRhf06BOIxjhsTRH/jaZxAfp3ob6Lx6Qa3FVU6YJ8AnEjROO9EREGBwq5+jUSkLWlQCo/CFgVQ2DOSDIy2Z1YH8zeant9R1eA9qJrcW/mWgAvnevTAeCZFnF/fO9arv1vjAztF7eP2Qk+PA+jl8X4ctSXXgTTJCkfakobMjWaqE4dtooJRYAiQo+fLKyvkxzk/yqMPP2ztl++//95m9y1V0nD98nIteWivdsnNybUR3tatW2uDuKMUaSN69O6jZdy4A6X/wAE2BcMMXabddN0iRzKDNjbQy+XDFhyz78cEiATYogPkcHLxW9eL31K1J+qZ1qQBKONKEbwEYIQoiHfFP/roI3nksUflueefl88//1xWLF1m6cM19Jpqgyr+JEV4CEp3PC8vjMv07ddPdth5R9l/v/1l+DbbSMtYIzjd4AWMgA5OII6xD0iscpxEBHQiHb8huBeKeiiQtqRxgVECoZ3tvnVFUY4tVc57770nl2h3+Pnnn5NcNc5KiFepxogZEZdSpR7Ff8+V4spDJLYWHwxfVUEmaFSuejz1Wi0LWsimQ4bIub/7vT17KiwstOs4XLbGAm2RaLXktouSx+1l+uuxy0xa9zScC/YKhZeqOoq0IY0ribAuMMcEECVO1MVCLrrCxx57rHzPU22Nr6wK50ldGSNNIEwIOVUYpsLOc5VEp2O/tcurEfmtvenAIVVfjpInVGP//ve/ZdSoUXEvVlsbIFXwTAfYDVmIi5KDY2xmOmoc6V3uqF39N6SN2h6EO6QBXGACgkaZ7wJHFeIcT58ZN2He7tSp07TdEX5PDjOjTxPWUJBTToYoiIsGvWO4J/818IgBCWgn5SiBKH3cG6IeffTR8t1331n6qGEbG04aL3TsYxvsBglo9ONBsC9xwPc9Hb+J2t/R6J7GBcS1wnhntguPwATOYQCUIC3TOU899VSbH5yToyXdMlgpor8x7xAhht8jNzdPOnTqLN2Li6Vtu3ZavbS165ZpNbRMq7fSxYvtlZaFCxbYO1DAjS552rg06gSCu1zsMwnsrLPOkoMPPti8DgE5Uwl0JPh9GeTEjlFP4fOb2QduF7bYAbi+/A5S+e+jaFTSIDABOMsRkn1Xnq0bg3OU8iuuuEL+/ve/W5wpCWnUP5iHwM2ou8ililKvgJHoQkOwQw45xEZz/doAA3J9B8fMw2G6KCPL9Li4B/flnKf3hnSPHj2UuD9Y3FFHHWVyUYpT3VAOMiUnjQ9uQhpkc7sTSI9O6Mc5dCWerR8n6tKopEFJhGKLoAAl2Pd61onBvspqmf/UU0+ZUZQW9ltVQ7faLTdPgyFypJdm5i9//SubLtG/f/94hidDuEYgjIN97jt9+nSbUM7zJmYEmszl6mny86S4a1dZpARbplVVnt4TWbfR3tWNN95oz6jc6zQ0kMkD9zMZVXa3HeQhDg8NgbCvp4Ms5m116+cIkM0J5sRyNAppENbhQrrCrixCsgXE8YbB7373O7nvvvv0GLrodWJ/AyBNjmw0aCM54fjj5fDDDpM2he3sGolKg6gM0XPER4+jRnzsscfkmmuukfff/1A6FRXJvPnzZMXyFZKvVZf6Qy5kaXfWnhWN5O7du6eENCBqQ7Yce3y06uEcW6+m0Av7OLlIT+CY6okt14zaJOWkcaGAZ5ALRny0/uQ8Aa9yzjnnyK233mqN0UraG951poej21ZaBf3shBPkN7/+tbRqGUpIi1ahq8g9okrXBVwHGQBbSuRdd94tF1x0kcycNcvGbCromquHQzZ1eFZNbrXllnL//Q9Ihw7t1/nedQGyQQD30MjtdkVmtyvxbmfXzfUjjmsQzzX4rZMpipSSxgV0YXGXuECUgu0ISQCuHIFGJm2MNu3aqsdZHJTU/2QFv+vVq4fccsstMmTIEDOaX6O+EZXph9lz5Kijj5GPPvpQKsvLYKZ19a2HpczB94zYdoTcc/c92uhmRmB1e6Oh4OM0TlIyHFm5L2SI2hYbRj2Qk428APyGY9LxO78maFgtaoErAWG8dCQK5njooYfk3vvutfbLokUl0lXbEaFhp2k1c3Yduas8+vAjNrG8tmvUFzzTuUe3rsVy7913yk+PODyWGbBYtxAm5gWZp3zZ5ZdpGyjWA1MY4RsAnrnY04G8BCcIcnPMvh87YYhn3+Hn2BKiSImnQWgCDAfOdBcUZT3DXUDO8wbArruNsu4uYyUaae9u9+zZSxYsWCgjd9pZ/v2f66VjYXvJLUj+RLa+gVwO9laql/nV2WfLbbfdGUqpkoZGMVp42okTb5W9xuy5io71Dbcxwe8FOMYLYW+/v8sWJYznD8fR84lICWlokyAIAjibEQrhXUHOA1cUJXlT8o2339LMCee0Cae+lPkxBTJmzBi59uprrDvNO9yQxn+bKmA4pbGSpVzbXL+V//73v6KaaKwTQ88qgejmf/DeO/GM9MxrCDhpAPdxuwInQuK9SY+HomojTXQ/+nvHqjH1CG6KQAjp+2w59uBM92MEJt1VV18tb779tpo/xnp+p6U4X8mxxRZbWBeYoXwzTKRUpRLcUaXW3lOeXPjXC7Sq+qlHGplUXPOMM2ZMl9NPP72G+28oYA9sij2wI94P+5kNY/BjztvQhW79N4QouZOhwTyNCwXY+j7xCOWCEaKANAxCbTNiuEyfMVPtr70l/Q3tBHQo1G70E088LptsvInlD9fR/AmZ1UjwDJk5Y5bsvsfuMn36DNOL51xGIPWE7dq2luefe0422mijeCFpSLhMUdsD7u3HLoPZUOHH/HZ18tWbp+FGHkCisDCZc+YZNHi6ZLjwwgvtPWvIwDXU/BobSMg4CYTRC9h1GpswAAMTirsWaTf7Pq0yWwe5FCaeyserv7/+za9DpGJ1+tcHXCYIge0JXlD9mH2zYQKIXx3qlTROFNojAIHwHE4YtsS5sMmEY9ie1aaMLNZNDUanPTNCvc9uo0ZVexhg5xofXiBYRIBVLHK18V5Z6dUR3fEqmfT6JGvcu61SBezsNne7E7Bh9HhtUW+k8ZuGzK5umyAYW4Rj39meCC95PIhkFQdsas93dMt6Mh3aFcpVV15pr8+GB5LVSAfSoBM60G455zfnSPdu3bWQ1BwUW1m2Uu69915LU5dMSjfUG2mAlyC27gmicQBjeXB4Gl5Yu+qaq0ODN4d+iP6zMY8c2X///a0UF2hG2ABa5Br1qsR6gB5Hbn6edC7uLKf83ylaUNT7KOtzmLtDD091YZCSaRVuj0xEvZMGjwLIUPcwxEdJkgg3IA8Gv/zqK/NS+gv1MoQg5HHHHKsJLZmB3fQ0O24/X8but1+wQUR3towvPfTgw+ZJMxX1Rhr3JmQ4xok+7/A+f63Q9BVVlfKs9i7oolo7RUunFk/tgVTJNsO3kc2HDdOEeo3auZcWQDxC7169ZNxBB9kBugVQhYk8+NBDgUjpyfo1ot5Ig0fxdot7GAjkcA+UCLOb2o/z773/nh1QI+Uw9U5Jw/aEE0+08ZmojT1z0g3IRJuLqmj8+PHSokVLk5vmmUv9zTffKmlQkrjMQ72RBpDxEMbdMccEjj0kB+dybclV7bRrG0CjYgzhOdPmm2++mt+mJ9CbZU86deoYuBGRf+rU77WHGR4MZiLqjTRkKobiISQZTZXkYwGrA2cRYtrUqVK6qCQs6xoB1/JlPTKFOC5ra7UFr7+EZ2fWPLMHr+WVZfL8i8+HxBmIevU0UdQ1g1966aV4u4e/eCzAqg1t27a1/UwDDeJtR4wwvdwegVC58vTTT9lxJqLBSFNXsOSZNgSsw2T1f6y0svy8d98zEdttzzJrppAdG3T3zbfeqvFkOZOQFqShJH755ZcxT0MXXa2qVR1HW221Vax0RoyeQejXpy9u0wiCfqajhm++/jojCQPSxtPYSpxqQ6VHqJ80YNTevXuHBBkIaA5p8qxDAPE1DvWUNDxdJoBQWDIHaeNpwvOqmFVjxKHuZyn5TAWa0DEIHQJMTQz6MsWyepQ805A2ngYDhiqIrUXYWAftmUw1LmCuDa/WuA6JVW0mVruNThpMaU0Y7ZbaAI3VUUocPWRUeMGCBSFhBgKiLFu2zKqhanKEagrNOZ+JBSItPA0G7dCpkxmQd6Vz2Wo8x6zWmalAL9Yrpm0WJQe7rVq1tqorS5p1AOTAwfAZHYSxF/djwOjM6M9kfPHFF6ZHtacJGDigvw2A1jZVJJ2RNp6GRwWUOu+GuqFfffVVi0ssrZkC1sxJfGDL/hZbhqGETERakAZsvfXWoX2jgaF2gHFZ1Yp2QSaCl+def2NS5Cl30AuusK5NpiItSIMXGTp0qHTo2EElCjOCMTNbCPPjjz/qXmaVSh68MgNx6vRpShqfiKbxum3ZoqXsOnJkLGXmIW08DSOmzMzzagmOsGX85qOPJpvBM8WdG+n1z49z58rMGTMkL796FiMPdVmCrUP79haXiUgL0mBIDLrt8BHB2jHwCgiv9197/fVhNl/1qbQFHrKsvMzmA1922WW27h+v5TIirO5GirsUSfdu3aQgg79IlxakgTBMgeDDXsYMJ0ds+8Ybb8qUT6dkBGkAL+8tXLRQbrvtNuWJVk0qOCPCfLuhdHGJjNx5l6BbhuiTiLQgjVdJfIeSuTOUyCpemq+ssEnZWnfJbbffpt4mfAACkqUrzKBKlMcffUwqVH7WzMlTcXt26y7z584znhxy2GFSVlmeac20ONKmTQNpGLPg9VUbu9AqyxrFZtgqueeeu5MOlKUjWBlrwhUTpKIsLDhZXFxk3wlfsXy5jDtwnLRtX2hL1mYq0oY0jr333lsbjvk2MqxM0hht7+h2wfyFcvbZv7JMSNcGsRN6woQJNpLN976ZYM5Hy5avWG76HHHkkdp7KtDykKFuRpFWpMHgTIXYZ9999QijhoBf4dnUp9qu4RuV6eppkItl3q697jobo2G1iLnz5snSZeGTiJsMHiw77LiDGZ0ykalI+fJpawJd7JLSxTJ8+LYyd+58zYhQent176Fd2B+lXbu28vrrr6XdPBtkXKCNX9Y0/uzzz208Bm7zWUTQWhv6zz3/rAwdyrcvM5gxirSrnph70q5NoS3sTFumIL+FNiK7yfwF8zQDymThwgVy5pln2ocx0sHjIAPDAWUa/vLXC+STz6ZYA7i8gtl61e+j7zpqpAwY2J9fhB9mMNLO04Q2S54sX7Zc9tprjPzwwyz5Ye4PtjhjWK4+vHy311572dfeIFljgnYMLwZefsUVctE/LrY4IzP/tePHGFRxUbG8/trL0rlLR8nPY028tCurdULatWkwMiWzZauWcumll8iceT/auAfvSDNwxsTzFZpJfGXlyKN+anNVqNJS7XUgCx6mvKJcLv7HP+Sfl/1TKm2YoMpew4He2g42fc47/8+2ViBeM9MJA9JKAx+vCaiULbYcJhdddKF6kzB7z87FyMHk8yeffNq+kMuX/1Pdo4I0vMj/l7/8RSZcOcFGfuNTOmOy8PekE0+QA/Y/ICZfamVsKKQ17WkwHnvMMbLP3vsE4tg/XsoLz3LIiMcefcyWr+dLLN7l9W19gWv59bg2gU8v07a69trrtPopsnM2qKQhV6tXZNtMG72//9250kobwU0JademSQSZtaJspRx22OHy4osvaIYRGzwS50I7p9K+s33xxRdrusNiVVwoD/XhgZwoDDpSHdLtP/LII2XJkiXSpUsXma29uoryULVyP8JGgzaUF55/Ttq1bRcu0jScjCEjKlgmZv/n+utlt9GjzcsEHnh1ZUmktLRUzhg/XkaN3k0ef/zxGosPRLE6D+Tn2EbTcR8a6G+88YYcevhhMvbAA2TpsmX2/YPw6k2QxX+zycYbyx133FGzkV77bTMOae9pomCS+UknnSTPPfe8zT8PpVerIv4SoRnH1NG83HzZbtvt5Bit2vigRtduofpwL+AhiihR8Cq+xZswe/DOO++UJ595WlYsZz3ePCNMyaJFsnz5snjRy8stkCFDBstdd94hfTL4fa01IaNI40uw//rXv7YnyH4cSBOIwPA8L6dxjldgWKJk9OhRNu7DV//5hCDpeD8ckjiB2PcX2NQm9uEv7nHPPfdYHDyCnhCmX79+MnPmDFm5YqXxtjKn0pZ1Gz5ihNyr6Vu3am0yNFVkFGncG7Bk7DPPPiOnnHqq9mCWaYYST8PZJzvhKTRC/wd/EtbLYfZ/hw4dbP1hyEM3mC+NQIp58+ZZL4weEY8CSpcuMU+jNNSL0FbRTVWudO/Z3WYSVmp1xU2ptiDNBdqLOvW002yKh6aO3bdpIqNI44A4ZNZX33xtXd7HHnsyZDBdXuonSxT+hMNQ3STCqygIF7xNSGfkjOc6HoNlVAuka5dimbdgrpTFxoV4ILnt9tvKuX88V7bZemsbdCQtP82SJs1gmar/mNwEeZ588ik577y/WJXCZ3Q8jVU9RohVVeS3TizLaNLGctpOea7rfm5evvTo3lPm/TjHZuRB0A20ijr55JPlZ9rGyitQD6c/4qEqlGnKhAEZSZpkKCkplddfe11+efYvZfq0aZKXH9oURrAYgRy2nIkxI6ThjIVImkAojcvNUcL0kJmzZmqXO0fatGknf/rTH+TQQw+V9u3bW1VJddec0GRIQ7uETCcTedeIr8Ddf//91lZJRDLS+DZKHAYXi7p00Ybxctlv7FjZZ58xsu2221q7yNPhdUK11HzQZEjj3sTIEDuGQK+99po888wztv7NjBkzrBELkSwt6Szv9Y8eMNmbXlXnTp2lV+8eMnz4cA3baLd9Fxs8dETvFSVZc0GTIU0iyFC8AG0eek6M5nKMRxo9erR88sknyhPN+Fh7h5YIva+PP/hIuvformn5tmO4Dg9MeTqdRUDwz00QeADI4u9Lx+N0f2V5hZJFVacrrSaw5quSI5/JUUoinnPxO3pMLOnKYGEW1WiypAGQJBrM42hgXCeWokYIJGMBItozjM1gnvDbLKrRpEmTFEoAqil1LHFACbwRc3p9lDmL2tH8SANyKkOI9avxKN26dbPpDlmsGc2TNMBcTZjO0Fm71T/Mmq37YbFsGr9Z1I5mRxqqIhZOyq3Sxq6SpG+v3rJwwQIlClVWeKcq24ZZPZqtp2ElB16Dmfr91NCOiXmYLGHWjGZHGohBo5f5MN9P+z60arSKql54KIs1oVmRxtsqNHrnzJ5jA3/2znjMuVQ/2c5idWh2pCHwJV5m+tEIhjhZ1A3NijTWXsGb5PIluyqrkmwQj4Yx57OdprVCsyMN/4q0PcMMuyhiNVcWa4FmRRoAceb/OFe6dukiLfjyLlNFGSHWkMXaodmRBtCOmfXDD9KtazerrpjFl20Erz2aHWm8B8X8Xmbj9ejZ04hjvags1gh7yyO23+zAQ0ueds/UnpTxKEYmJ1UWq6K8PHw+u1mRJkoI26dqoi0T8TSrpMliFTQ70jAFNCcvL8wTjsXzgh1NGrrfjOEwu685TZFYU+HAw4SPuIW0za56evnll2XmzJmh++1B/9F7gii8ljJlyhQjUHMAJCCgOyFxsJM4zmMnJ1eTnSMcBW9OMi7z3HPP2fvdVEllsbXwqsExhqmUAQMGyCOPPCq9e/aQPL6pHTNaUwRehBAmpoVFwH16LN6FfYjk59hvFsWJ+b5PP/20LR5QVlYhlasQBjgpcuS776bKmDFjrKrCWF7CmiLckwC2Th62rHqBx01coi7tSIOwHtYns1xxQJV0xhlnSunSZVKlRqiMvfOdDFZd5ebItGnfywEH7B//9HP0ek0F6IQnIbAfrYJ8C6nwRBQ8vIzZJx2qp6ignjFeHXjboq7VA9cqVyVfeeUVOezQQ6WivFIq9BrlLJ1vZaWy1mdNbrwcrao23XSI3HXXXbZYACWusReGrE+gY6LNvbCiJ1uI4lUUeUFodNJ4fepCen0aLdWuHOei5CFudWR6+dVXZNy4g6RKFWZ51nI0tTcMAiBFMvg1+S4DRuKTQs8++6ytMIGcq7tnpsFtSwBRkrjNPX9c75RXTwiCEAiF60MQF8gJA+KsjsWzD8G8Do6GKPzaL73yshx3/PGyvGylrNB2DE+1g8p4mBDWBN6Novnz6Wefyx577S3fT59h148SOtPh9vMtdsZ+2N31pGryvCCknDQuDEJClqgwwDPFAyAt5yEP+ygF/DdRcO6dd96Ro446WubM/VHTewaHtKub/uCGqwa/oaoS+yziySefYm8scN9V02Ye0IFAYUQnbBclTG1eNaXVEwLiKXxaAscIhdAMqOH+o0ABzrEYEeRyuKKUAAdxeJO33n5L9h87VlaUlxGpVRP3qH7DMhgE0q1qDNCiRYHKyCu5gSxcF7AlbvOhm9q74dzb5Y96yEwBsnvBRH7sCUlcXy/MnHe7OVLqaYLhI20KFYQRWuJ58R7hIYorw3kyh31IFVWA4AqyzzLzn33xuZx40s+MMJoiLKBoKaqhSZUYNckJiOf62223nb2eSzvIVruKIdwveBzeBWchATd8JgLZPUAYbI+NCW5X4OSJImWkQRAI4VUMAQEhBcG7drCdNAQEdqFJ454HEO8EgzBffvWljDtoXBjtNZ1jhInpS3qufc45v7UvvCUCO3H+8ssut49iMKhntooYELDA0ceTP5Fjjz1OZs+Zo9cPba2ooTMF2NULIvKjf+LktGRIKWkgggNhERIw8uiZGiWLH7ty7HMd9jnv+wz777nnnqH0ay/JMpA8JNdDzts1fvnLX8ppp56q101WnQT52rVpLddcc7Vsv/32apwY4+xiARXqvXgV/PU33pRTTzvdVv9ElkwkDjYBUXsTx/7qkFLSIJALag8OdZ94J4YDrwMZgCvBlji2eBj/3ffTp8nhRxwui0oXWzxpOWcZWKXX1MBrt3/605/kjNNPl9atWibtOZHc5NF9FgGYOHGirdYZDBjkdPIEmXLktddel0MOPdTWMCYOhHTpD+SF6HgWZDbdY1vXpTakhDQI4yQA7LuXYZ/MB179kFHEU335xzKcOK4cH7KYM2+uHH3ssTJj1ky9kGaWBh48mtJKFiNAfkv5zW9+Iyed+DNtN2mDOo/2kt6jxuKNmtLe7dbuuhKqZavWUtihvdxx152yx5576PViZDBjBlJwiKxvvfWWfZ+Bzw1y7FVmOgJbUiC9UJIH7JtuirUhDEiZpwGJAiG4E4SA8F4lsaUUsPVMIK0pqftz5s6Vv150kX04jCrD8p0TQX/L1Fb5LeTnJ50ov/nVr6R161Y2W89GGZLYhSiMQeASeKfCwvZy9dXXyA7b7yAt+CSyVX1cO3YToLusZH7eeefZg1GXNd2A3dzW5IMXUGyNPk6YaKgNKSVNMriAKINSwEurK+P7Hj9/wQL53bm/l5KSRaENo/GArFQHY2vQtCzIk/G/GC9/+fN5tjB0Hj0iPc/veWCpd7PfAMwTHb9xc+Xn50qXzh3ljtsnSv8B/UJvDIIqzKYaWrdpI+UaN/H2O+V49WYsmGSjz5oheMrGBnajKYBtCdjQ7epwr7+2aFTSoAQKEIDvk7GALcaPgsWhDz7kYPnhhx/sfL56gEA8qi81DDmpl/v5z38uZ40/08iCfZycai69R+xiCYA4UfJgHCZotS8slBeef1621+54MHiQrbBdobRs2cIaw9z0pZdfluOOO1ZlXGKZU9fMaAggL94ET4MtfXoDcJsQ6oKUkSYqWHTfCZNIoGgaKx26Xbyk1FYF5xuRZBjLyVOaqXKCm6UN00KOOvKn8odzz5U2bdtIDvNh7NdrNhJeigCiKUjftl1bufW2W2S7Hba3444dOxkp5s5l9dCQGk/04osvyx/+8Me4lzHPFisEjQW3qXsZ5Gbr3qeuSClpooRg34/ZkukEGmtRI1ta3S4qKZGLL7lEPvvqC/Uu2jVu186qJdoRZBoZxtdaDjn4ELniignhnSZNxxfp+EQz+Wr30/9cMwquz/RP7soW1EyhR3k50qVrsdx48w2y4YaD7Brz58dWCY3pQaZQFdxyyy0yfvz4eCPeS3aqgP3wKngX7o2MkCPafmHca10IA1JCGhfaqxoXmmP2URIFgTd+Uc4zo6y8TCZcdaVM1+71nB9mS6/evaSlkuLbr7/RjGH9YK2X1SAnaE/q4r/9zdo5XNczPlFJrssaNbXBfhc9rxFcjWZ0t65d5amnnpKuSiBWA3UZLQX3RBgNDz30kJxyyilWnaJ7VJ+GRpSk3NuP2ffgssZlrgNS5mkciQpAGIRmn3ME4jzMX7hALp8wQaZ9P83ejOSDqP369JUl2m74aPJky6ACrYL4sv55fzlfezztpKBVgeRrW8M8h90tIGog9yiJiJMp4TytpbDNkc4d28sD990rW20xTO/NcEFNQtCbK1PiPvjwI/KXCy6UJcvCIxBCQxPH78EWXSmMFET28TROmPVBykjjQkMKlOIYj0LwOOBkwgvRwPzXVVfZk+UlWmLfeuttKWxfKB06dJRvvpmqXqbMSv/Y/faTa9QTtdFutdljDfmyRqPx+2TX0DiXj0Udb7zxRunfv7/KHjsfQ7g+3dpKuebaa+XCC/9q+qCj69kQcMJwf4J78mXLlsVSBPnXFyn1NAgMSajrgRuQksA5FLR6WOOZYXfDTTfZiO/ixSXyyksvmRF69ewtUz79TD6bMsV6OvvuM1auvupq9S4tJa9AeyvaW0r0EnWBeSAPiBfLY9tErou8/fr1kccee1R69eplesEVzzACaRg5vu666+Xss882+UF9k4dr0fB20hC4vxdKZglQYImrD6S8ekJwFEhUEgMTn09bp6Jc/v3f/8rkKZ9oO2a6vPzSy7JsyVJbU+aLL7+0ebs8gR41cleZcMUVNqWCa8QzfB3gP4WI8Sotcj2yOFlV16NHd3n88Ue1cTwgdqYmGAZgKgZTRvnMkBOnPoHu/kAXJDZyXdb6QqORBu8CII63Y/hy/lztkfz1ogvloYcfkueefU7efONNWaqEMWLpb/1bS7uP3l0m3nqrdn07xg0S/VsX2C+UFWw9JII+3KrxoefUv/8GcvNNN0tfnp7bc61EL5Jjn2C+6uqr5ZJLLrV9G8VeT3BvD8Crebw19gyebv3bMIlIOWmAM9/dJySi3mWKw1lnnaXu/Dp57913bdVN1FWzaCnnr/aS1N1vO2K43HrrLWFyVr5WA96tTpKta4vEX0a9CkhOmlBN4Z0Gb7KxPKJEb6UN8LBsSTUpEI3PJRL+fsklcsmll+n+upEmShK2eC73XtgRwjQ5TxMFSqMMCua3KLD3kh565BErMWGENyhLZ5dvXRdoF3eXHXfSUn2jGkbraLo6q7E9ytVFQZNnHfLS5ezbt699JLWPbgP8YiHDSEN+T5hwhZx33vnx6mRtgXzumQFkcY/C1qp3LYTEO7G4Z32jUUmDorxmsli7z3yP8kEtqfkYoFyNQmlF79g3mZRCsvXWw+WWiROlqKhYSaaNZzVQ0uJfR9htuI6Gcq1ePKtrYs2mIoMGDRokt95yi2ywQX89rv6NE4uwfPkKufLKK+Vqra6iPZu1QbQKYgth2EIYAl4G4vi9GgKNShqUWrFiuZxxxhly3wMP2MoNVdqazauiI11T4Z/85Cfy2COPSoe27ex3ocpaA4wNYXf10Gup4du0a2c9ML7Isi6GsapKZeOrvLfecnONb0RF4Rn6xz/+Uf79739bnHuGNYGCRiA95IBE3NerKL+2h4ZAo5DGSwtKnf3Ls+XhBx+yRwJ8jZa4Kus2q2imdKUMHbqp3HjDjdqzymPoV+O5Sk2DoAihRiwHNZOtAgxO4GtxtEXig3vxPFxr5sWB+EM3HaIN+aelqHNHVSF5NcQrMn+96G9y1VXXaHsuTFtdHXkgBkQBEAc74l3Y9zhHQxEGpJw0GAXleEZz5pln2nevOeYb2iFvPKc16PHgwYPlzttvl569esQNYSU6lmp9wb35FiX3ZwYeGbG+13UibrzRRnLTTTdJ9+7dYmeqEXTB066UP/zpTzLxtol2vDp4QSNAHu4BvGry44ZGykiDwh6ox5l+ycw4xla8PQFLwntKYQicV2IffPBB6dOHr+mvWgJXb+LVI8Y/8zAczJs31455j7tufiU5nOAjRoyQ66+/3oYGgNugJqq01/hLG8vhdxA3GTjnv/U0xFkhit0vFUgpaXCvKHvRRRfJf/7zH1lZXiYrK7QHAFnQWbsuTHzC6fTr11vu5h3qoiIzCCXJWBKzzfqaCEPzQXcG3piqmRebl6N/LJg86wmux8DjrrvuKnfffbe0adPGCkUicXjcgMfD895xxx01zkVhNlC4PRKrI5M/BWhw0kQNgFKMiv7nhv9ZI7bK2jBqiFgPibR8V5uu6z133yM9u3cPv2cgLJkdk9t2rQBhMHxJyWLbajbGzqicsVBfQIfNN9/cpkzQ88MONe4Xy3AK1TnnnCP33XefxSeSx9N5QG7IT7rEtA2JlHgauodUSf/85z/l6uuulRXa5fQBURqejI3kVAYXu/HGm8gzTz4lgzbcUPK03mZmnrUsk+XiOuQsxoUw3AsPA2q8FOe2r8c84F5tWrWQ0aNGymWX/kM6FLaV/CSyc8v5C0vkxJNOtifkvEee6E0gCWRxwhDnIVVocNJAGAJjEhMmTLB9SBAWRlRFzduoIXS/X+8+8vDDD0mXLl2CYPWYcYAMgDSU6AULFkaMrtsoAxuAOIB7jR07Vm677TbL9EREM/+YY46VJ554Mn7siKbx/cQ0DY0GIQ0ZQwaROWwvv/xy+cell8rC0sWhraDnc7SCqtSqKFeLdkXZSm2QFsodt98hXYu72mMBzVHjVDQv1xduXORjN2wxOufsVHWj3EM9gntBVF79vfPOO+0dLL1jOGkIBHBvcv7559mSb7QDnfDpgAYhDYo7aa78178sMPuOVagsV2I5VKCNXnpKfXr3lMcff1w22XhjJZEajZZwAyAQJMcG3QhkjmVETB7nSOi/NQycFLvttptcfsUV2jhum0CGMMqLt/36629sjUDWxsGe6YJ6zx0MQIAwd2mP4W9/v1iWrViu1RIjlmRLII0/se7etas8qvX3kMGDw+/tb8OBTFuwYIG0atVaQ1gIgPnFEFUpZdWkk6ehACmopg8++GC54orLhTc63W5MIe3Tt4/MmTPH0ixbvtyqqkmTJtn5dCBPvZIGhZhghTtlVts5v/utkYdMEV5Uo1BryM/Jl/KVZdKhfQd103fJBv376/kce2gJoSBOQ5OH975btmwlbVq3ljy9J41h5CRjGhLuaWzimWp50IEHyB23TZS2rVtqoz9XevToYVNbkYO0jBQvV5sefezx8sFHk22BpsZGvZDGSwnggRlTG/6s9XHpklKrjZi2EK12eGRQrO73/nvvk02HDGmU0kOboaSkRNq0bWsvvJFB5mFMjYambDV5kIOq6uKLL7YppLNmzbRC5yAdpsU7jhs3Tt57770a9m4M1JunwaPgZR544AG54soJYVEhzQacPj1mSpWyRbvYVdKtW7H2kh6RbUYMl4KWLSykGhCVgMfh/SjIA8G1yZkCygQ4cQBtFwb38EAsc7IqqmyIYNyBB8qbb74Zl78xUC+ksRfW1ADMtmNRoaVLl0nHjp1V+YIaWZCvadq0aSW33HSzDN10UyvZnG+sMhNKcZW1H1q1biWtlDwVmhFUofVWmlYD7g/wNhDg6KOPliuv/JcRiXMeAKPGgDYObaEvvvjCjhsD62Ub3CgBpe/QLuQvzjrLphiULl1qA3hFnbtIgRInz0Z9w/Okm7StM1w9DM941Dp6lWCU1AOqhnkoYN68eTYTsGWLlvGMShW4H0ShQTx2333kwgsu0O64tnniI42Yyl/34U3TpXLguIPkS+1d8apMGfOPUoh1Jo3Xq1RJjzzyiPzhD3/QNswSJQ3jCSKlpUuszdC+XXubclBcVCz333efjNp1lLaJwzhMsswhxkNDAhlDIGP0biqLLRfC4GMjAFuwcAHE+dnPTpRfnX22vQAYHuAiY2gYu9wzZs6SUaNGyccfT7bfpxJ1Jo2TJShQJa+//rqcctppsqi0xLwMClEimCLFBKvly5ZKj+7dbUR4hx13tEcDq0MqCJMUKjgNdW9jpBpuT+7Pltd6WVcHa2BT4hy+v2hRiRxxxBEyY8YMO04V1ok0kIL5MLx6esyxx8rS5UtlpTaEHepItV1QaVM3GWu49JJLZI/Ru0sBbyAkbeQ1PkI2KOm12vSynWpQVRJoDBNOPfVU+etfL7AeaSBPdYENqLLVM/bdbz/b2vBGhFwNhbXOQRfGBX7xxRflN789RxaX8gI+Q2Ia6FKbp8+1RYBaqFe58X//kzF77RVKED+MK1wLSNQYOWYI3W6MsgYpGxwUTKZSnHba6XL66afH215uHPKhoEALoQr6/dSpNv3iq6++snMNjToVe3pJsNmWDNNe0hztrvJaBjBD635ulZYWVYiSwgPKsQfsL7n+5uPagGSNkWOaF9Z+8MfvjUbcAAqZVZWV5fLnP54rp558khbCXBaviAMvXoGH10I6Z85cOfSQw+Xrr7/VfAqTzhsKdSINbpI2zEEHHWSNXuOLeQ4NPK1mSwtf//3zkkvlEO0aRjoAq4BfpkOpXgUucyMTB5D5eB1mOrJQk7d9APv+xkPZyjL5ftr3tlRteO254ay61qRBQLrXDMRVKd1Z0JD1YKznbPLx/g1zV/NsSdUjf3qkjQTHHFHGwLIDmT00IrA51RKFlXD++efLcccdZ3ZmxmE1ecTGmViV6+STf26zBRuS8XX2NNsMH24vtHXv1t0Gwky4qgpt31bZ2AKN3oMOHGfzZXKYuolGGQRIjrkbzuR1A1WUk4fJ5DxuOOGEE/SYXmiQ1B/PXHft9XLE4UfEf9NQqBNpAMIM23xzee6ZZ6WoSxeTGyF5in3u738vR//0p3YcSx3b1gLPnXTJoRiQOl2oHs189iHOhRdeJEceeWQsViyOCfj77LuPVWWka8AmTd1JQyM3PyfPlopnsnS34mKpUML889JLbT28Fiy9ytNqReLFOa4R57mTLjmkWPW9p/QARKAwEli59O9/u1COOOxQaav2vunG/8mWWw7TcyItWxWoF6KtE/thA2C9vsJC650l5pkkRCOtNdMM4l3D9ES59jaYOffZF9HuKeMfldrjK5DJH31sT5vjpIm35NOD2bRj/Ck4208//VSGDh1qZOKYXmtDo14+3YMiBEpD1J2mI9ZEmo8+/lh691DSxJFepAFeBTnc9myrmwYNh3q5g7vOdCdMU4Hb2oMfp4IwIDV3ySCsblwpi4AsaRIQ95VZ8tSKLGmyqDOypEmALUig20wbyU4lsqRJAviS5UztyJImAek6uJdOyJImGbLEWS2ypEmA8cTrp2wdlRRZ0iQg3Z5ypyOypEmCrJNZPbKkSUC2IbxmZEmTDFnirBZZ0iSgxqd7snVUUmRJkwQ4mKyTqR1Z0sTArI58PpbKfixkkRxZ0hiq7ONk3Xt0r54akXU1tSJLGgUTs7sWF8uM6dNjMVmsDs2eNLyn1alTJ5k9e45Nl/T1crJPuWtHsyQN5ABMj+zRo6ctMcKkbI/PtmlWj2ZLGt6a4DUclulgojaNGNumybvc6YxmSRraMF26dJbp06fFXwfxSfGBQDFkiZMUzYo0eBhCsTZ6bdWrcr6V6ecCcRaVlIQIkK2jkqLZkQbPwgJAvEYcvEtgBruQ6L3337NFjWxkOIukaHbV09KlSy143VPd+M2xlbtu/N8NdpxF7Wh2pGEpVdotrDKFd2HZjhw1A9/P5KOrH7z/oXwy+VNbcDKL5Gh2pLnmmmtk9uzZ0rZtW/s2QiW9pZi3sVXVlUJPPP64rTAVRmyySESTIo23WViYgHe2HXgWAo3fJ5980tLNnTvXvoDCC/M5eblSXllhCzVVKFFefPkl+x0+KItV0aRIEyUKxPD2CoA0b7/9tqwoWxlfunbevPnSsWMHI09YxFbT6fbdd96NtXuySIYmQxonCJ7GX4Z34hCIe/qZZ4w8rJZOewZAnDIlUl5u9RIpS5YukYm3TsxWTrWgXpYaSQdADAgBaSAMK5EyiMfIL4Eqa5NNh9gHNAIbai8vrBq+Qf9+8ubrk2zJuCxqIuM8jXsUwD4kgSCQAtJAGLYsVoh3IVBtvfTSS/bhDKqmNTVV+HjFHG0s0wbKYlVkBGkgBV/b9Q+QQQoPAE/i1ZHHOblo5LJK+l333GMLGtJDWhP4bcnixfLqa6/Z9aJEzSLNSUOG4UEIUVJEA3Gch0yQx9szVE1hKbHwPc33GenV3hHp428crAHXXXuteSl+kyVONdLe00AC2hVODMt0JQX7BDLV2x2Qw4lDukCqSvn2229l6tSp9lUT70bn6HkWnexaVCxdOnXCvVh8gO7r8bvvvivff/99vJrLIiCtSeOZ5V7EARkgDiCeY4jj+/67QBqxlUeddHieEAJOPfUUGT58mxrVFr+BQqyTTFuoqSDRY1YXrOq4tUFGkAZCECAKxHDlfSVLJxZb9zQezzen7r3vvrBQtrZp8DRmIw1c7+ijjpY99tjT0ieCUWFWLvUqKtPgdiJADvTATrQR+YoOWydNNKwJGVE9ORHYevsGYAQnEm2YKNwAU6Z8GtLlUDXFFjTM0bTKq/4b9JcOHTrIvvvuG79mFKR94YUXYt8ayDygv5MEoCOBwmZf0dMepuuNXb1wrIk4aU0ahKckoDiBfTwOygEy1dOwnyw888yzljYAD8QnhFgaPl923mVnyS/IlaKizjJ69G56rqaxICOEueOOO2LGjJ3IAGATgA5ODi98wIkRJRLn3J5+PhnS3tM4QqYFhVCeLcriYRK9jIPSc/edd+qPURNjQRc1SE6V1lRV9o0BroEdDxx3oJ6PrM/LU++qHL1GhTz44MNSXqY9uZXVjynSEdiHwuUemODx2It4P49tvJ3nBMGO6E9a4mtD2pIGRVxJV54thAGUDI9PBpR/4403bMIV1wqGqS49mw3dTAZtuKF2w4NL3nrrn9i3NeFMCIE8GHLKp1O0TaSN8fzQnkpXRD1FIvCYnCdgQ+yHbk4g7MzvOE88+7XpmrakQRkUcNajaNQgboBEeBpVWR5+9FGp0OOQlrNqVP3HR0tG7rqzkkDjJQwM9u/fXwb038CeS1WTKzSw5y+Yb9/Ctpgk90wnoL8XLIAdsYePkHOeOEjEFt0hCfHoypZ0TiiOE5G2pAFuABQAXgICCZJnHr8JxMqRSW9OsprJ0ts/S6BVzcpAmrzgwnNzwz1+//vf25d9wxdq+R1XCcT9+8V/j103fUGmo6t7YDyIH0MAAvb03iiB81GysO82Bsl0TtsHliiMsmzJUPZRxJWpDSiJcWb+MEuGbbmFHjMCTFc7EKpMq5mOHQrli8+m2ESsHL4ZHsPylStk0KBBsnDRIi1N9LbCbzzw8ZDevaPfTUgv0EvyYQjgtouSiYAuDrcnnid6DnJxjmtErwnSxtMgLJntzHavgiK+XRNhUJev2a2sKJerrrlavUZ4ZBD9FVMgTjrpFGnXrn0NwgCotdGGg4wu6l8szoyt9RnyMM8mavB0g3sOAFG8SjcdYvbDxhCEACHc5k4uwG88cA3PE0fakAbBEJItyrigayJKImiz8P2pBx96yK7njOHFfkjRMr9Axh2wf4hMAOn33nvv8LsQYRueWVWUV8hTTz9lx/HzaQzsRoAIEIJ9bEqAXHgPCMF59OE88Zx3m/tv/NjR6KRBYATHtSIcJcCVcYHd26wJqIaXmPrdd7Jw3ny0tldR+GVVTO/27QttUC8RXJ/7HnbYYdZoZOqn/1YFkPKqCnn88celtLTUSmc6EQdZXCYnAMd+DhAXreo9DqJEiYMNPK2nSUSjk8YF5gNjLjQKo5grsDZVk4Nr8bwI8kEENxpgf+TOu0hh23Z6EIuMgPNdu3aVnXfeWXtRDAJWg7VrFi5YKI888kjc6OmGZDaKxrFPwC7Y3YnmNvc0UZslQ6Nqj3AEBMXToAgKeByBDKoLabjGf/7zn/g11AzhhAIijP/FL2IfbK0J0lIKuf/IkSPD7zWe6o6/XIr9R7UbvzZeL9WI2gfZV0dszqOne5nE30aRzO6NXmQQHsGB16leB3MumdC1AYU/+OADmc46M0l+t+HAgTJk8GDJL6jZAAbcx++Jp2Fr5IgZkQ3nP/roIzuui1wNDZc9CkjjBMC+TiT2qXr8HL+LFgK/TiJ5okg5aRAQV4jg3uB1onh7xr1LXYCSXIen0uyjvA23VMWMqTbYZpttJFfvY1hNng9WYjHYFz6UXu2u6Y0xvwZirs6ojQHTNyYT+04GCiJ2BeyTBtt6ek8bDfyOhjLnvUBHkVLSRA2NcJDHBeWce5h1AYrSeH3hpRe10cp4cKxawzDaiFVTyL777i05+XqvtbjFL8aP17/VmeDo1q2bTJgwwe4X1aexgYzIBJDLCx025ok2BdSrIoIXWPZJg+2dJK6XXyeqP0gpafzmCIKg9FLYejXkYV2AAWZMn2Gz7Rx4ijAlIk+6dOli1Q5YU1Yjz6hRu8Vf3cWGGLBLURfrPT333HNpOenc7YqsBPQAEAFSALexe3Q/R1xiQeDYyRdFSkiDIAjgCuEuXUgXNBmj6wJ+e9ONN0p5mbpTnh1oVcIjgUr1MmDcwYdI28J2pvCalEamos6dpXfPHnpQIQV5OdKrRzdZurRUlixZYpPcv/rqq7js6QJsSHCZsAmEII6OBvaHJJ4XBKosCEScw6um2pAS0rhrdIWcIFGl/NhDXYFRGEdZVdkce0K91157xY7XnMlcA8MdcMABJltRUZG9/w1hkI3z9957rxnd2wvpALcd8jmhOUYHhjQgCPZmi34EzpM3BMD56D7nE9GgpEHwKINRguBu0/edNOuDRYtL7HnTqg1cCFAgG2+8Uex4zUAeFUiOOvYY6dmnt5QsKVWPVd1OQKf77rvPSEQGpBOwIzZ14rh3J3DOA4iej+YDW9/3tFE0GGlcUAJAQHeNBISMepn1AXd44sknZfHSJfbsqQZyqmT77bfTBmxXu28SVq0CI0dujvTp21f6btBPli1frveo1gV5Fy5cJJMmTYqXynSBZ3SUBF4Vuf2958qxEySaD35cG+qNNFGCsEUgtgiCACgRMi0I5WnrC5dddpnk54UeQCIuvPBC267OEFGY4fUfz5xGjNhWdSknMm5UO6+N7GefeV71Ss/XdqN2p3CydfnZ9xB0qS5IicfJUK+kgRSQxV0eN4fRLogLD1BoTcKtDbjX5Mkfh3tr4FUUvx+hV88+svnmm0fq5+rqcnXAMPS79tpjj/jiAFXqfSxoj6xKL/XCKy9ZtZXuQG8nEMH3PQ+CXdYe9Uaa6I2dQAQEY8t5BK2vKglwH7Js0qQ3ZObMmdK9ezfJ0+s7uBeEWVcg41Zbbil9eveJxVSDgcPvvp0qkz/5ROWIRTYT1BtpHHgWQIZZpsZCFGRGfZCGp9C8q33/ww+p/6iSadOm2eAbS6LRM8ALHXjg2Fhqx9qrrFJaQ/f444+ztzPxYqZLDnejUJTLP/95qVVf7l2bA+q9esKbOFEITpCGMCiZOn3mDHnjzTdsiJ+Y2T/8oB6nh5G3Q2Gh7Lfvfut8b/wYK0jsOmqUTTqnKjKqa90EYZgWOmnS69ooXlhv3jMTUK/VE5kDcfAyjF94VcS2IQzKFR+4/wEpV4JUaluKY0r8nDmzpbt6nP32209at2xpadcF5WVM0ciRgQMG6HVaaUdMdQy00XgakSIlJYtsKTb0boiCkY6o1+oJYkASCINbp1FMnMfXN3G4GosqUnVATF7o5x6sBzxrxkwZw4Ce5uO63rfArpkr7dsVymGHHhq8Gf8tQCCRZcuWy2233RZ+0ExQrxPLKWkQBoJAGKqqhhj88hINGTZQLzBv3lw9oK+DtwuN7qrySvn444+ld6/ukq/tm/XFrFmzZNMhm9nE9FDW6IXhd3KkfWFbe6zAg8HmgHr3NDRAKfUYkG1DANJQDT3wwANaNfyoMYEwDqqUHXbZQfr06y259UTazp07y6CNBqqSkMW77XibKnuI+dZbb8Ximj7qlTQA4nh14Nv6Bu0HcMEFF+hfvweqUAVqF1+9zVm/OMvaIPUhASSlAIwYMSIWUw2cHu+Fv/rqq3EP2NRR76RJBaj2WKTo66+/VpL4c6wKLfPMSCuXos5dZMTw4fYmZfzzgtYCWTdAfjzbuHHjrP2kfSqNVeKq18nNVa9XsVIee+wxS9McGsQZSRoyxqddJoIM7j+gvxS2a1dNmPXMQ/c022+/vfToGV6Wo1rSE7bPucmTJ8snn3wS94JNGRlJGsZM7r73nqQz8MjHww47HPbYgJ9hPesoiOhDB3ibPN2PnTBCMSbE9tZbbw3xTRwZSZo5P/4oTz37zKpPtJUj7QrbyeFHHC5l5ZqR2iCuqCcNIQ5hjz324Cj8i8URAIsEZD1NmoHSTHj8icfDg1ENUXBupx12kLatWktBXv333CDH0E03DVVTnK/VxPn8889l8eLFJkdTRkaRhlJMY/OJx5+IDxwGhMcVKLP76N2tKrEQ8wj1CQb6jtTqz94R511xjXM5kK05VFEZtcw9JZgFBjffcguZ9cMPgQ6sCKE7FO6C/Fx5W6uIgf0HkJNhGoMmCSWDvfUjEPeHrHwzaqeddrJ9h3kXlaWwsFB7dV9Ky1br/vgi3ZExnoYsL6sol6eeedqWoI/Om4EMjAT/ZOutZQPtOUEWZt7xm/oGHmzAgAHSo0cPm79DY9sa5Nr1r9TuGqT+ePInSqim27bJKNJQmidceWX8aXP1GAyOJUdOOukkW/mKBnJDZJlXQxCHeTosigRMNtvLlZXlFbHR4dCzaorIGNIAFhv68ssvw4HmR/Ax4aBtm7ay1ZZbqYOhJVN9rr79DcSh63388cdrGyu0pYy8EFn3aSTffc896mnSe1HH9UFGkYaHgotLFtu+9WAUEAOabL7ZZtK7V2/dj5IGj+SkIWb9YSTRMHr0aOnTu7fkMxU09mndsOxalXz44Qfy6afM6KtfwqYLMoI0GJ9/YTUI5gHzgJLJXiGziouKZezY/a3aCJOxoqh/FSENPTnGbKKNYQcfHWNJEpO7CRInI0hDBjHR6TFW69Q8olqgXcPXbSEML8MdecQR1saIzQGPoX68SzJAnJ132SW0n/Q2UWrwVsQrr7zSJAkD0p40GJ4MeuXll+NzdfAmjMr00uph0aISGTp0qHTs2FHTxX6UAiALT70LWqw69QJCM5eHtz6bItKeNBCGKuCF556XnFxGeavUm+RIt+5dZc7c2fa4gJfh8DCQJlXEYb5Q167Fss+YvaWyXBu9eD73N7rP+9633HJLOG5iyJjqiQ9bkBlUOV26FMmCBQvsQSHjNQfsf4Clg2CcTwWQidHmk3/+8/jSb2HsSCXIDY3lq666yrwNaZsS0r960vD8iy/IjB9mGWe6d+8uS5aUyvLlyzQzKmSzzYfKoI0GWTWWKsI4IMZGG20k7dq18xgL9oF4BYsG+DL7TQlpTxpGXG+ZeCs5ZNUBbxosXbrMMoxJVkcccbhmSpgXnErY/TV06tTJFqzm7ngaB96FKaIffvhhljSpxorly23CVVFxUXyMJoptt93WtlYFpDBvnDS8ynLGGf8XSKvkwKA8xQB8nfdf//pXtnpKFWj8Er766mutilbIksWl9pF1nulYBil4ODhw4MB4BjYG8HJ77rmHFBd30f0K7X6rb1TW8DiDNxfeef89W6evKSFtSQMJcOt33HmHfQVlifZGaC8EcoT1VM4++2xrhDYmkIfXdFgEMgqGBlg4gEnnzz2rjfgmhLQkDbUMbZl5ixbIDTfcYG86EusehQyhy3vUUUfFjxuz3cC9d99993DAGJIem99TkcpXlsnzLzwv5eWqUSPKWJ9IW9Iw0vreBx/I8rKVqxib44EDBkqHwvZGGGAeqHFqKLs3y7PZN5U49n9VgeSvvzbJVs2ibdMUiJOWpMHw+do1euWll2VlbFQVYxMsU9Tuu+y0kwofWELGGGkaAdwX4hYXFwdvExGDczzDLFXC3HXXXU2mQZy2pGHq5FtvvikF+QVGjqry8GCQcxj/8MMP0/j0EZ821uGHHy55Km+FktqC+syqXBZFYBrozVlP09B4/fXX5f333pPevXppSWbVCW1Uqr3xMpsNHSpDBm8ar5rSAXiVzTbbzB6aJno9aMLaOaw9nOypeKYh7UhDScTL3HX3XbJixUqZPm2GLVTUIq8l5dYyhG8y5eSp98lLr1Lbs2dP2aBvP2sIQ3DA7A3khjCffvqpeaRMR9qRBsLwsO+dt99RA/OAMkdmzZot3Xp0l7yqPHvCvdtuu2lm8DpsepVaHwZI9DSA3uCEKyckPZdpSLu3ESANz2uGDdtC97VVgJE18A511y5FUqbe54OPP5A2bXlIqKyPvcudDsBLQvghQ4baA1WGhm0hRyycU2lrWzC63adPWMMvUwmUdp6GxuIll1xin//D2GQEq0DwRHvOj3PkjPFnSuvWrew5D//SCcjO/OFNNx1iXof2i/FFxfRXeflWuMVDpgxF2pGmpKREJk6cGDuqCQw/duzYWAm17LD4dICTgO3o3UYbgVj2hIY7pxjko+H+5JNPZqyHcaQdafjAV/z7kTHb2mx/de/FXYuka7eiWK8pvUSHCMjFI4UjjzzSpnzm6zEqwBHO4WGeeOIJe3U3k5E2lqeEEvjIF1ZOdN/0Rljqo8azJromaQQnDrMKdxm5S+he81ihMpwDS5cuTdtPGq4t0oI0EAQjLl+xQm69/TbzNFY8Y7DzWmZPOeW00PC1fmx6EcYBFaD7fgfsFwb2lDGVudWek3Dv/fetUigyCWlDGvDue+/KN998I1VMf9BjSmcovTmy8cYb2wRyJsWRGk5FeJVWKNMe4E+2+knyFpcK/+UXX+tOelWvdUF6kEaty2soNBJ5Q9LaLBGLQxy+Ckd7IZxSy3M+DUmDSPl5uTJoww1lwMCBkptPuyb8s8ceKvr0adNi38FUz5OB1VSjkwavgcvg88e+2KE9HY5XP1RdYUAvLzYljonb1RVBegHJIAg9vfFnjjcJGRHmhBFHCwWDln+76G/2FTwKRKZVVY0+uBeMKrJg4QIZ0H+AGpASWR1PFcQysyzKWNimrcZonFHdzrKTdsB7QIT5ixbKsC22kKWlpbbCRB7De9YmC2mmfPaJ9OjRzX7jDeVMQKN7GkyFEJddcqn2MvAwkAHolm6HepSjjv6ptGrd0sgSCAPS18hUrwzudWjfXvr27RMWrK7SLrfqVl5ZLuVV5dZAnjz5ozjBMgmNThrAmi7eDcV+zJpxM5IBhx50iPInswwLmNbB+97+vahE+Dc3M8nLgEYlDSTh8cCPP/5o7whV4VlUIh5GmiHV87QsaCUDBgy05zaxX0VCegOJjz/hhKSv7oI777wzI1/dbXTSUNIee/wxG6Oha0T1A3nsQZ9ip512lKLOnTSeE4neJr2Jg3Q9u/eQrbbYMkREgN5MAX3qqaeynqYuCD0Hkeuu+7c2FEMvia1FKqFoF/z2t7+1r8WFtgzGTQzpCxNZdRmtPb+AatLDE96ZeuqpZ4TXclA5U9o2jUoaMOWzz+Sbb7/TvdDtNqjt6J7269tXtthiWDU/jCPRA4tIa/DUe9ddd7W2GfI6MdjwQJOl1igsgTR2Ku3R6KR56ZWXtUfBvBmOYiTQngb2G7b5sJiRcfSNLuo6gYetwzbb3ObQUB1HayJ0Yyhh8seT7VzEEaU1GjUnyqsq5elnntbSyKipGlSNaIN62qbhQxV7jdkjRprMJIyDV1tOOflkrW55PyuQxdsxeNR/XPKPQJoIodIZ650b7m7xBdGCwj5xtYHfMbsN91yeuKihEqd1qzY2Fzi49cyFy7/HnnvEPiKmlqGXSIgZ7JWXX5GSJO+ppyvWK0d49L+4dLGcedYvtEH3pM2sowvJAzueJUXJ4D0l4DPXbrn5FlmxcoUNrbMUGiCeRYsOOvig+LovTQFMju/QoYPqs+q4zNJlS2X69Gm273YisF+utsSm2MwDU0r5dNHtt99ua+CYl0oh1vkxAoISpqmy222/vRGlW9euUlFWLl2Ki6RLUZGttUt3c9sRI6SrngNuMIyx595j5P0PP7Df8M4z4DSF87aJE2WvPfeKl9RMJ0+5NnbPPfcPcu11VyshyOQcya0MuvFsavz48fLnP//JjtDViQM5+FAHgQlqjGnNmDHDZjjS6xq04SCZ9MYkq/pShXUmDT9irdyPPvpYRo0OXUp6CsVKllmzfjBPo1pbQ5CMZzGiIUOGyCaDB8smm2wsXbXk/eykk2TRokV2Mf/YVzCayKefTJYe3XtYDEbMfNJUaKbPkC233MJsU2mrX+TF7dO5U2e54cb/yXfffWvr9U2ZMsUCn2/Gu6A/hbRI7ct6f1ad6e8KWrSQr778Ujp1VC8Wu1dDgsK+7p5GM5eScO+991rmQxDKD4p1LS4Os/E1Lkx4rAa1EFMhKV2MBnM2ECKQBgOOGLG1PPnEE3quuoua6aTRylqJIjbF41MlAxPnmTXE13jRsZVmfufOnbTAzTQbEBfVmX23BQspUSPNL1mkBKyUJx57XHbeaYcG7y5AGLAe9wkKTZr0hilE4BPHBXl5Mm/uvFoJA1hcEaNhHIhBaXNUKJHO//N59n4T8GtnMshsX8Z25MiRmEbhy2TTu4IwXazqAaQ328T0jm4JeB8KJx+rb6HendeXAXFOrIbEOpOG7jEz7F5/9VV7mEjGe+CiUSIAJwweysZhtIfElg9RVMWqJn7XvVt3GTZ0mJozKlpqG3r1DTI6X9tsBbl5svdeY3QLYRhWyJW22tjvWNhBZs+Zbe9/CyuYatCzHMQJk4jS0hKbl9OhfQetzj7SvFDPhftZB6yJaFSP7mWM0La3DkAZnp34Kk9eCjysAriit8utgiCh3ZIMQ7TNwww9/3B6UwE2CVVv6BRw3Ea74CzyOG/+PPNC2ISprWuLhfPnqndXD6aem6p+XQAJCPyekEg84iCNpwPrTBqAwp999pk9dDvnnHNk2LBhdlO/MYN3TBKvUmMRZd4HD0OVpHU5q3MGZgSD8av9DzzAHRDJYlgvMdMKFIhjjz3WOg1t27ZVDzPHbARZrEvNW6W8KIjBKDeaUd7G4TeA8Z4dd9xRLrroIvtK73//+1+7Ls/qkhbY1QAPQsMacrA1GWJeiykr3Jd90rkc6z1zzy8KuDA352v5M2fOlBnaqHv33ffkww8/si/JlpYusQ9Q0JPgN6He5pf8qZK2SsJPJk+WwsJ2Nl0yulpmUwE24tXcQw89VObNW2Aexv5pLtBttjUF8bKqe5cuXbQgDrXVKAi9e/e2QEMYkkAi92CgroQBTgxAnkA88/SxOK7JPnJzv3ohDeBCBBjKTe3C3EzP0b2k7i1bWSZffvmVfPD++/LBhx/YM5eZM2fI9BkzZUlpqaU9YP/95X833KBkCcI2RdJgm3nz5tmbFSxAqYpKYfv2tqQKX3UZuOEg2XKLYbLFFlvIBhtsoBkYvAtwUniBw95OGFBX0iALA4f8jmsB9pleyz3YxwlwD89Xy9v6IE1dQa1UURnqYIRjAOvpp5+Wfv36yZgxYywegYMnalrEwehk0B//+EdbuJoJ83gP7EBJZguiZGgoIAv3c4JwfzyKywK8WvI0VgU2BmmAC+z1pwtl69bp1lntRgaci4JzmUYqb2xSBSB7tIS7PqksLG5jZAJsnSTEQxKX1+VrFNK4kHEhYobyc9F4jyO9sz5et0bSZBpcfgf6RY9TpZff1wsvJGGfOI6dwOZhYjKlnDQYi8xn66UtCuJrg/+W30SZn8W6Aft5YUysGp04TpaonVNOGtwzAkaFQEAaZDTAoqRBCQLxznhXlG2U/VnUHW5fbOtenOCF0W2baOOUDoAgIHAhEM7reMYevPHlAkMKPAqk8jEEgGJOHEIWdYfbjuCeBvvSBXd4PiQipaRxNjsgDHDX6OcTheW8K+XE8+Ms1g1e6Nhia2yJ7b0jsjqkjDQuHN4jeoygkAcFIALHHkhLcOWIQzmOgZPGj7NYezgxsB02xrbEeeC4NqSMNC6c70MUBGPfPQlAYAgCIaIKeDzpnHDubbKkqTvcnlT/7uHJH+LXhJSQhkwluEC+j6DuQTiGAN7GYZ/6lbZM9Leci/6efbZZrBnY1p8zYUcKHfvYMjGsDimtnhIBMaLVDwHmE+gxUb9GPQtpKRXs89ss1h5uNwKFzAsotgbkwdoiZaRZE3shhhMIBVGK4N4EuEdykmWxZmArvAvAfhDFvYvb1psNa4tG9etRQkRBHOcABALEeUnx4yzWDLebexbvHbn3jtp0bdFopHFlokCRRDL4cWLauiranIENCdjXvbfbzwtnXZDS6qk2AhDvLXc8C8fs11YF+XmwLko3dWAf9yxuQ+xL+xB7Edh3m3tYW6TE4giEgCjixwhNXYsCKEZgn3Se1n/nCjnpnGT8pi7KNhdQ8KIFDnu57RzYbV1tl7Ji6oI7cZzx7i4BJYNjb8c4eTiPguxzDY4xCsdZ0tQEdsFGThpsSk8UuM3d3olEWlukjDQI6gNJCEtmQwrinSTsoyABQuCJ3NO4gqTBSxHH9bKkqQY2itoW4rDlBQDikoV1QcqfcruHIOMTme7Hroxv3Ri+TzxbCERo7sAW0W60exmOCW7v+rJVo0zCQgm8i3sN4ASJwslCeicIx8ANkkWwp5ODLd7F7QY8rr7s1SikcVD91KYQJQfFIZUbgTRR0jR3uE3cszAnyT048RQytm6r+rJZo5IGoKAHhytXX+60KcHthI0gi1f3tO8ohBwzgBcljqN+SCPy/5wwSPDhhEvUAAAAAElFTkSuQmCC;" parent="1" vertex="1">
          <mxGeometry x="100" y="614" width="31.94" height="70" as="geometry" />
        </mxCell>
        <mxCell id="2kZgn2yWBnld6z_HZbz6-4" value="&amp;nbsp;участник" style="text;html=1;align=center;verticalAlign=middle;resizable=0;points=[];autosize=1;strokeColor=none;fillColor=none;" parent="1" vertex="1">
          <mxGeometry x="70" y="682" width="80" height="30" as="geometry" />
        </mxCell>
        <mxCell id="2kZgn2yWBnld6z_HZbz6-5" value="" style="shape=image;verticalLabelPosition=bottom;labelBackgroundColor=default;verticalAlign=top;aspect=fixed;imageAspect=0;image=data:image/png,iVBORw0KGgoAAAANSUhEUgAAAI0AAAE1CAYAAADasGMJAAAAAXNSR0IArs4c6QAAAARnQU1BAACxjwv8YQUAAAAJcEhZcwAADsMAAA7DAcdvqGQAAFQ9SURBVHhe7Z0HgBXV1cfPNvpSd+lFQFQQRY2CXUQsWFCxG7sxtk+JMYlJTNEYjYlGxVhTrNh7771gryh2RZogdVnqtu/8zn3n7ezjLbCw+/a93feHuzNz576Zc87933PL3LmTs2zZsirJIos6IDe2zSKLtUaWNFnUGVnSZFFnZEmTRZ2RJU0WdUaWNFnUGVnSZFFnZDxpqqqqh5nYW9tBp3X9XRYiGT24R8YTKjXk5uZoxufoP1VH/+fk5Fga3yaioqJCf5OrSS2xxVVVVFp6D8ng94yC6zQnZPyIcHl5uWX60uXLpKSkRNoXFkqbVq0tI1eXmZAGss2eM0cWLy6RTp06SZdOnY0seXl5tZJm5cqVsmjRIttv1aqVhYKCAjtuLmgS1dM777wjW265pYwYMUIOPeQQWbJkiVRWVsZSrAp+Ayluv/122WGHHWSHHXeUkSNHyowZM+x8bYQBN998s2y33XYyfPhwOf/881fxOs0BGe1pKqhclBzbbrutfPb555bZuVpB7bP33nLTTTdJixYtYilrAjqVla2UDQcNkhL1GmYAzfydd9xJHnzwQcnPzyemBvBMH374oeyzzz7mafAwEJP7HHDAAbFUzQMZ7WnwBxWacXO0irGmSaX+0cx/7bXXZP78+SFRbVCCde7c2aqoHAsib7/9tlV3id7DPdPVV18ty5cvNzISB2m+/fbbWKrmg4wmDV4lV/P3ZyecKHmaqV4l4Qlefvlly9hk1QckKcjNk00GbSTtWreRPN13YuBRkgEyvfnmm/Frci9Id8YZZ8RSNB9kfJuGjD788MNtv2XLltbe2HfffeXuu++utV3jbRbaPvymXbt2FkeDtrYqbd68eTJz5sw4uXJycuW4Y4/X41iCZoSMJg0ZSA9pkLZNdtllF+sBkfELFy6USZMmibbXLE0iiMNzzJo1SxaVLJJlK1ZIlfJo4403tp5TIiDJE088YV4oEC6EsfvvL/l5q7Z/mjoyu02jGQhp2J588sm2JWO/+uorbeiWybRp05J6G9KtUKJ88803Uq7nl2l3HWrtsPNOoQufBI888oj9LpAwR3r26CmDNxkcPE0z8zYZRZpEr8ExAQIMHjxYFi9ebOMom266qey2227mcRJ/45g6dar1viACAYzZa0zSsZ2lS5fKu+++GzsK991pp52koEWB/lYjws+bDTKCNHgNqhrv2XjAi+BZyOiioiIZOHCg9YA++OADef/99+X++++33ycSB9/z5ddfxfYDcQq0mz14k01qkIbfcU8I5mM/wXNVyvY7bB9P09yQ1qQhgyAM3oOM9UxzwrAlHuLQFtl5552lb9++lsGzZ8+Wu+66R/eXxj1JFJxnPIZrkO00gNu0bWtpE4lA1eT3A/xu2LDNlGBKGqNg80LaexoykUyixEMOMg9wDKEInMdDENq0aSOlpUs0bZWULCqRS/5xqaWPAqWXLC61a9BtB1WVVXqtlXEiAq5Nr+nSSy+Nx3sPq1evXnacrDpr6khrjckUAkTxfT92kuBhnEgnnniiVSXebYZk33z7je0nwrrZOA68h4bl2i5aom2XRC9DYxryAO4H0XbffXerDl2eTAG6RfVj3z1oot6rQ0aQBk8CEcg0lPTgDwqJJ12fPn3koIMOinmfPOnUubMcc/Qxah1LVgPDhg2LX1MtJp07d5KOHTrUIALnaFTzmAIQX1xcHPc86Q4nA4EC5N6a6p7OA1v33h7WRq+0f/bkSrjiKMpzHwzgYypkpmW+AmPccMMN8tlnn8lpp/2fDBwwUHs5q4698DiAsRdGdPv07SPXX3e9bKINYa7pJOSeNMDZ5xkT1yR9z549jXCkdYKlI5wIFCJs5rZEZtfPgW05dp1Wp1dakwaFXRnAFu8CYVxpV869DnFuLD/26ioKyOdE4x7sE0jvhvNqifNRY3LttTFuYwKZgevocqIfiMpNnNvNdfKQDGlNGlcmShyAITwjCcAV9HRRhf06BOIxjhsTRH/jaZxAfp3ob6Lx6Qa3FVU6YJ8AnEjROO9EREGBwq5+jUSkLWlQCo/CFgVQ2DOSDIy2Z1YH8zeant9R1eA9qJrcW/mWgAvnevTAeCZFnF/fO9arv1vjAztF7eP2Qk+PA+jl8X4ctSXXgTTJCkfakobMjWaqE4dtooJRYAiQo+fLKyvkxzk/yqMPP2ztl++//95m9y1V0nD98nIteWivdsnNybUR3tatW2uDuKMUaSN69O6jZdy4A6X/wAE2BcMMXabddN0iRzKDNjbQy+XDFhyz78cEiATYogPkcHLxW9eL31K1J+qZ1qQBKONKEbwEYIQoiHfFP/roI3nksUflueefl88//1xWLF1m6cM19Jpqgyr+JEV4CEp3PC8vjMv07ddPdth5R9l/v/1l+DbbSMtYIzjd4AWMgA5OII6xD0iscpxEBHQiHb8huBeKeiiQtqRxgVECoZ3tvnVFUY4tVc57770nl2h3+Pnnn5NcNc5KiFepxogZEZdSpR7Ff8+V4spDJLYWHwxfVUEmaFSuejz1Wi0LWsimQ4bIub/7vT17KiwstOs4XLbGAm2RaLXktouSx+1l+uuxy0xa9zScC/YKhZeqOoq0IY0ribAuMMcEECVO1MVCLrrCxx57rHzPU22Nr6wK50ldGSNNIEwIOVUYpsLOc5VEp2O/tcurEfmtvenAIVVfjpInVGP//ve/ZdSoUXEvVlsbIFXwTAfYDVmIi5KDY2xmOmoc6V3uqF39N6SN2h6EO6QBXGACgkaZ7wJHFeIcT58ZN2He7tSp07TdEX5PDjOjTxPWUJBTToYoiIsGvWO4J/818IgBCWgn5SiBKH3cG6IeffTR8t1331n6qGEbG04aL3TsYxvsBglo9ONBsC9xwPc9Hb+J2t/R6J7GBcS1wnhntguPwATOYQCUIC3TOU899VSbH5yToyXdMlgpor8x7xAhht8jNzdPOnTqLN2Li6Vtu3ZavbS165ZpNbRMq7fSxYvtlZaFCxbYO1DAjS552rg06gSCu1zsMwnsrLPOkoMPPti8DgE5Uwl0JPh9GeTEjlFP4fOb2QduF7bYAbi+/A5S+e+jaFTSIDABOMsRkn1Xnq0bg3OU8iuuuEL+/ve/W5wpCWnUP5iHwM2ou8ililKvgJHoQkOwQw45xEZz/doAA3J9B8fMw2G6KCPL9Li4B/flnKf3hnSPHj2UuD9Y3FFHHWVyUYpT3VAOMiUnjQ9uQhpkc7sTSI9O6Mc5dCWerR8n6tKopEFJhGKLoAAl2Pd61onBvspqmf/UU0+ZUZQW9ltVQ7faLTdPgyFypJdm5i9//SubLtG/f/94hidDuEYgjIN97jt9+nSbUM7zJmYEmszl6mny86S4a1dZpARbplVVnt4TWbfR3tWNN95oz6jc6zQ0kMkD9zMZVXa3HeQhDg8NgbCvp4Ms5m116+cIkM0J5sRyNAppENbhQrrCrixCsgXE8YbB7373O7nvvvv0GLrodWJ/AyBNjmw0aCM54fjj5fDDDpM2he3sGolKg6gM0XPER4+jRnzsscfkmmuukfff/1A6FRXJvPnzZMXyFZKvVZf6Qy5kaXfWnhWN5O7du6eENCBqQ7Yce3y06uEcW6+m0Av7OLlIT+CY6okt14zaJOWkcaGAZ5ALRny0/uQ8Aa9yzjnnyK233mqN0UraG951poej21ZaBf3shBPkN7/+tbRqGUpIi1ahq8g9okrXBVwHGQBbSuRdd94tF1x0kcycNcvGbCromquHQzZ1eFZNbrXllnL//Q9Ihw7t1/nedQGyQQD30MjtdkVmtyvxbmfXzfUjjmsQzzX4rZMpipSSxgV0YXGXuECUgu0ISQCuHIFGJm2MNu3aqsdZHJTU/2QFv+vVq4fccsstMmTIEDOaX6O+EZXph9lz5Kijj5GPPvpQKsvLYKZ19a2HpczB94zYdoTcc/c92uhmRmB1e6Oh4OM0TlIyHFm5L2SI2hYbRj2Qk428APyGY9LxO78maFgtaoErAWG8dCQK5njooYfk3vvutfbLokUl0lXbEaFhp2k1c3Yduas8+vAjNrG8tmvUFzzTuUe3rsVy7913yk+PODyWGbBYtxAm5gWZp3zZ5ZdpGyjWA1MY4RsAnrnY04G8BCcIcnPMvh87YYhn3+Hn2BKiSImnQWgCDAfOdBcUZT3DXUDO8wbArruNsu4uYyUaae9u9+zZSxYsWCgjd9pZ/v2f66VjYXvJLUj+RLa+gVwO9laql/nV2WfLbbfdGUqpkoZGMVp42okTb5W9xuy5io71Dbcxwe8FOMYLYW+/v8sWJYznD8fR84lICWlokyAIAjibEQrhXUHOA1cUJXlT8o2339LMCee0Cae+lPkxBTJmzBi59uprrDvNO9yQxn+bKmA4pbGSpVzbXL+V//73v6KaaKwTQ88qgejmf/DeO/GM9MxrCDhpAPdxuwInQuK9SY+HomojTXQ/+nvHqjH1CG6KQAjp+2w59uBM92MEJt1VV18tb779tpo/xnp+p6U4X8mxxRZbWBeYoXwzTKRUpRLcUaXW3lOeXPjXC7Sq+qlHGplUXPOMM2ZMl9NPP72G+28oYA9sij2wI94P+5kNY/BjztvQhW79N4QouZOhwTyNCwXY+j7xCOWCEaKANAxCbTNiuEyfMVPtr70l/Q3tBHQo1G70E088LptsvInlD9fR/AmZ1UjwDJk5Y5bsvsfuMn36DNOL51xGIPWE7dq2luefe0422mijeCFpSLhMUdsD7u3HLoPZUOHH/HZ18tWbp+FGHkCisDCZc+YZNHi6ZLjwwgvtPWvIwDXU/BobSMg4CYTRC9h1GpswAAMTirsWaTf7Pq0yWwe5FCaeyserv7/+za9DpGJ1+tcHXCYIge0JXlD9mH2zYQKIXx3qlTROFNojAIHwHE4YtsS5sMmEY9ie1aaMLNZNDUanPTNCvc9uo0ZVexhg5xofXiBYRIBVLHK18V5Z6dUR3fEqmfT6JGvcu61SBezsNne7E7Bh9HhtUW+k8ZuGzK5umyAYW4Rj39meCC95PIhkFQdsas93dMt6Mh3aFcpVV15pr8+GB5LVSAfSoBM60G455zfnSPdu3bWQ1BwUW1m2Uu69915LU5dMSjfUG2mAlyC27gmicQBjeXB4Gl5Yu+qaq0ODN4d+iP6zMY8c2X///a0UF2hG2ABa5Br1qsR6gB5Hbn6edC7uLKf83ylaUNT7KOtzmLtDD091YZCSaRVuj0xEvZMGjwLIUPcwxEdJkgg3IA8Gv/zqK/NS+gv1MoQg5HHHHKsJLZmB3fQ0O24/X8but1+wQUR3towvPfTgw+ZJMxX1Rhr3JmQ4xok+7/A+f63Q9BVVlfKs9i7oolo7RUunFk/tgVTJNsO3kc2HDdOEeo3auZcWQDxC7169ZNxBB9kBugVQhYk8+NBDgUjpyfo1ot5Ig0fxdot7GAjkcA+UCLOb2o/z773/nh1QI+Uw9U5Jw/aEE0+08ZmojT1z0g3IRJuLqmj8+PHSokVLk5vmmUv9zTffKmlQkrjMQ72RBpDxEMbdMccEjj0kB+dybclV7bRrG0CjYgzhOdPmm2++mt+mJ9CbZU86deoYuBGRf+rU77WHGR4MZiLqjTRkKobiISQZTZXkYwGrA2cRYtrUqVK6qCQs6xoB1/JlPTKFOC5ra7UFr7+EZ2fWPLMHr+WVZfL8i8+HxBmIevU0UdQ1g1966aV4u4e/eCzAqg1t27a1/UwDDeJtR4wwvdwegVC58vTTT9lxJqLBSFNXsOSZNgSsw2T1f6y0svy8d98zEdttzzJrppAdG3T3zbfeqvFkOZOQFqShJH755ZcxT0MXXa2qVR1HW221Vax0RoyeQejXpy9u0wiCfqajhm++/jojCQPSxtPYSpxqQ6VHqJ80YNTevXuHBBkIaA5p8qxDAPE1DvWUNDxdJoBQWDIHaeNpwvOqmFVjxKHuZyn5TAWa0DEIHQJMTQz6MsWyepQ805A2ngYDhiqIrUXYWAftmUw1LmCuDa/WuA6JVW0mVruNThpMaU0Y7ZbaAI3VUUocPWRUeMGCBSFhBgKiLFu2zKqhanKEagrNOZ+JBSItPA0G7dCpkxmQd6Vz2Wo8x6zWmalAL9Yrpm0WJQe7rVq1tqorS5p1AOTAwfAZHYSxF/djwOjM6M9kfPHFF6ZHtacJGDigvw2A1jZVJJ2RNp6GRwWUOu+GuqFfffVVi0ssrZkC1sxJfGDL/hZbhqGETERakAZsvfXWoX2jgaF2gHFZ1Yp2QSaCl+def2NS5Cl30AuusK5NpiItSIMXGTp0qHTo2EElCjOCMTNbCPPjjz/qXmaVSh68MgNx6vRpShqfiKbxum3ZoqXsOnJkLGXmIW08DSOmzMzzagmOsGX85qOPJpvBM8WdG+n1z49z58rMGTMkL796FiMPdVmCrUP79haXiUgL0mBIDLrt8BHB2jHwCgiv9197/fVhNl/1qbQFHrKsvMzmA1922WW27h+v5TIirO5GirsUSfdu3aQgg79IlxakgTBMgeDDXsYMJ0ds+8Ybb8qUT6dkBGkAL+8tXLRQbrvtNuWJVk0qOCPCfLuhdHGJjNx5l6BbhuiTiLQgjVdJfIeSuTOUyCpemq+ssEnZWnfJbbffpt4mfAACkqUrzKBKlMcffUwqVH7WzMlTcXt26y7z584znhxy2GFSVlmeac20ONKmTQNpGLPg9VUbu9AqyxrFZtgqueeeu5MOlKUjWBlrwhUTpKIsLDhZXFxk3wlfsXy5jDtwnLRtX2hL1mYq0oY0jr333lsbjvk2MqxM0hht7+h2wfyFcvbZv7JMSNcGsRN6woQJNpLN976ZYM5Hy5avWG76HHHkkdp7KtDykKFuRpFWpMHgTIXYZ9999QijhoBf4dnUp9qu4RuV6eppkItl3q697jobo2G1iLnz5snSZeGTiJsMHiw77LiDGZ0ykalI+fJpawJd7JLSxTJ8+LYyd+58zYhQent176Fd2B+lXbu28vrrr6XdPBtkXKCNX9Y0/uzzz208Bm7zWUTQWhv6zz3/rAwdyrcvM5gxirSrnph70q5NoS3sTFumIL+FNiK7yfwF8zQDymThwgVy5pln2ocx0sHjIAPDAWUa/vLXC+STz6ZYA7i8gtl61e+j7zpqpAwY2J9fhB9mMNLO04Q2S54sX7Zc9tprjPzwwyz5Ye4PtjhjWK4+vHy311572dfeIFljgnYMLwZefsUVctE/LrY4IzP/tePHGFRxUbG8/trL0rlLR8nPY028tCurdULatWkwMiWzZauWcumll8iceT/auAfvSDNwxsTzFZpJfGXlyKN+anNVqNJS7XUgCx6mvKJcLv7HP+Sfl/1TKm2YoMpew4He2g42fc47/8+2ViBeM9MJA9JKAx+vCaiULbYcJhdddKF6kzB7z87FyMHk8yeffNq+kMuX/1Pdo4I0vMj/l7/8RSZcOcFGfuNTOmOy8PekE0+QA/Y/ICZfamVsKKQ17WkwHnvMMbLP3vsE4tg/XsoLz3LIiMcefcyWr+dLLN7l9W19gWv59bg2gU8v07a69trrtPopsnM2qKQhV6tXZNtMG72//9250kobwU0JademSQSZtaJspRx22OHy4osvaIYRGzwS50I7p9K+s33xxRdrusNiVVwoD/XhgZwoDDpSHdLtP/LII2XJkiXSpUsXma29uoryULVyP8JGgzaUF55/Ttq1bRcu0jScjCEjKlgmZv/n+utlt9GjzcsEHnh1ZUmktLRUzhg/XkaN3k0ef/zxGosPRLE6D+Tn2EbTcR8a6G+88YYcevhhMvbAA2TpsmX2/YPw6k2QxX+zycYbyx133FGzkV77bTMOae9pomCS+UknnSTPPfe8zT8PpVerIv4SoRnH1NG83HzZbtvt5Bit2vigRtduofpwL+AhiihR8Cq+xZswe/DOO++UJ595WlYsZz3ePCNMyaJFsnz5snjRy8stkCFDBstdd94hfTL4fa01IaNI40uw//rXv7YnyH4cSBOIwPA8L6dxjldgWKJk9OhRNu7DV//5hCDpeD8ckjiB2PcX2NQm9uEv7nHPPfdYHDyCnhCmX79+MnPmDFm5YqXxtjKn0pZ1Gz5ihNyr6Vu3am0yNFVkFGncG7Bk7DPPPiOnnHqq9mCWaYYST8PZJzvhKTRC/wd/EtbLYfZ/hw4dbP1hyEM3mC+NQIp58+ZZL4weEY8CSpcuMU+jNNSL0FbRTVWudO/Z3WYSVmp1xU2ptiDNBdqLOvW002yKh6aO3bdpIqNI44A4ZNZX33xtXd7HHnsyZDBdXuonSxT+hMNQ3STCqygIF7xNSGfkjOc6HoNlVAuka5dimbdgrpTFxoV4ILnt9tvKuX88V7bZemsbdCQtP82SJs1gmar/mNwEeZ588ik577y/WJXCZ3Q8jVU9RohVVeS3TizLaNLGctpOea7rfm5evvTo3lPm/TjHZuRB0A20ijr55JPlZ9rGyitQD6c/4qEqlGnKhAEZSZpkKCkplddfe11+efYvZfq0aZKXH9oURrAYgRy2nIkxI6ThjIVImkAojcvNUcL0kJmzZmqXO0fatGknf/rTH+TQQw+V9u3bW1VJddec0GRIQ7uETCcTedeIr8Ddf//91lZJRDLS+DZKHAYXi7p00Ybxctlv7FjZZ58xsu2221q7yNPhdUK11HzQZEjj3sTIEDuGQK+99po888wztv7NjBkzrBELkSwt6Szv9Y8eMNmbXlXnTp2lV+8eMnz4cA3baLd9Fxs8dETvFSVZc0GTIU0iyFC8AG0eek6M5nKMRxo9erR88sknyhPN+Fh7h5YIva+PP/hIuvformn5tmO4Dg9MeTqdRUDwz00QeADI4u9Lx+N0f2V5hZJFVacrrSaw5quSI5/JUUoinnPxO3pMLOnKYGEW1WiypAGQJBrM42hgXCeWokYIJGMBItozjM1gnvDbLKrRpEmTFEoAqil1LHFACbwRc3p9lDmL2tH8SANyKkOI9avxKN26dbPpDlmsGc2TNMBcTZjO0Fm71T/Mmq37YbFsGr9Z1I5mRxqqIhZOyq3Sxq6SpG+v3rJwwQIlClVWeKcq24ZZPZqtp2ElB16Dmfr91NCOiXmYLGHWjGZHGohBo5f5MN9P+z60arSKql54KIs1oVmRxtsqNHrnzJ5jA3/2znjMuVQ/2c5idWh2pCHwJV5m+tEIhjhZ1A3NijTWXsGb5PIluyqrkmwQj4Yx57OdprVCsyMN/4q0PcMMuyhiNVcWa4FmRRoAceb/OFe6dukiLfjyLlNFGSHWkMXaodmRBtCOmfXDD9KtazerrpjFl20Erz2aHWm8B8X8Xmbj9ejZ04hjvags1gh7yyO23+zAQ0ueds/UnpTxKEYmJ1UWq6K8PHw+u1mRJkoI26dqoi0T8TSrpMliFTQ70jAFNCcvL8wTjsXzgh1NGrrfjOEwu685TZFYU+HAw4SPuIW0za56evnll2XmzJmh++1B/9F7gii8ljJlyhQjUHMAJCCgOyFxsJM4zmMnJ1eTnSMcBW9OMi7z3HPP2fvdVEllsbXwqsExhqmUAQMGyCOPPCq9e/aQPL6pHTNaUwRehBAmpoVFwH16LN6FfYjk59hvFsWJ+b5PP/20LR5QVlYhlasQBjgpcuS776bKmDFjrKrCWF7CmiLckwC2Th62rHqBx01coi7tSIOwHtYns1xxQJV0xhlnSunSZVKlRqiMvfOdDFZd5ebItGnfywEH7B//9HP0ek0F6IQnIbAfrYJ8C6nwRBQ8vIzZJx2qp6ignjFeHXjboq7VA9cqVyVfeeUVOezQQ6WivFIq9BrlLJ1vZaWy1mdNbrwcrao23XSI3HXXXbZYACWusReGrE+gY6LNvbCiJ1uI4lUUeUFodNJ4fepCen0aLdWuHOei5CFudWR6+dVXZNy4g6RKFWZ51nI0tTcMAiBFMvg1+S4DRuKTQs8++6ytMIGcq7tnpsFtSwBRkrjNPX9c75RXTwiCEAiF60MQF8gJA+KsjsWzD8G8Do6GKPzaL73yshx3/PGyvGylrNB2DE+1g8p4mBDWBN6Novnz6Wefyx577S3fT59h148SOtPh9vMtdsZ+2N31pGryvCCknDQuDEJClqgwwDPFAyAt5yEP+ygF/DdRcO6dd96Ro446WubM/VHTewaHtKub/uCGqwa/oaoS+yziySefYm8scN9V02Ye0IFAYUQnbBclTG1eNaXVEwLiKXxaAscIhdAMqOH+o0ABzrEYEeRyuKKUAAdxeJO33n5L9h87VlaUlxGpVRP3qH7DMhgE0q1qDNCiRYHKyCu5gSxcF7AlbvOhm9q74dzb5Y96yEwBsnvBRH7sCUlcXy/MnHe7OVLqaYLhI20KFYQRWuJ58R7hIYorw3kyh31IFVWA4AqyzzLzn33xuZx40s+MMJoiLKBoKaqhSZUYNckJiOf62223nb2eSzvIVruKIdwveBzeBWchATd8JgLZPUAYbI+NCW5X4OSJImWkQRAI4VUMAQEhBcG7drCdNAQEdqFJ454HEO8EgzBffvWljDtoXBjtNZ1jhInpS3qufc45v7UvvCUCO3H+8ssut49iMKhntooYELDA0ceTP5Fjjz1OZs+Zo9cPba2ooTMF2NULIvKjf+LktGRIKWkgggNhERIw8uiZGiWLH7ty7HMd9jnv+wz777nnnqH0ay/JMpA8JNdDzts1fvnLX8ppp56q101WnQT52rVpLddcc7Vsv/32apwY4+xiARXqvXgV/PU33pRTTzvdVv9ElkwkDjYBUXsTx/7qkFLSIJALag8OdZ94J4YDrwMZgCvBlji2eBj/3ffTp8nhRxwui0oXWzxpOWcZWKXX1MBrt3/605/kjNNPl9atWibtOZHc5NF9FgGYOHGirdYZDBjkdPIEmXLktddel0MOPdTWMCYOhHTpD+SF6HgWZDbdY1vXpTakhDQI4yQA7LuXYZ/MB179kFHEU335xzKcOK4cH7KYM2+uHH3ssTJj1ky9kGaWBh48mtJKFiNAfkv5zW9+Iyed+DNtN2mDOo/2kt6jxuKNmtLe7dbuuhKqZavWUtihvdxx152yx5576PViZDBjBlJwiKxvvfWWfZ+Bzw1y7FVmOgJbUiC9UJIH7JtuirUhDEiZpwGJAiG4E4SA8F4lsaUUsPVMIK0pqftz5s6Vv150kX04jCrD8p0TQX/L1Fb5LeTnJ50ov/nVr6R161Y2W89GGZLYhSiMQeASeKfCwvZy9dXXyA7b7yAt+CSyVX1cO3YToLusZH7eeefZg1GXNd2A3dzW5IMXUGyNPk6YaKgNKSVNMriAKINSwEurK+P7Hj9/wQL53bm/l5KSRaENo/GArFQHY2vQtCzIk/G/GC9/+fN5tjB0Hj0iPc/veWCpd7PfAMwTHb9xc+Xn50qXzh3ljtsnSv8B/UJvDIIqzKYaWrdpI+UaN/H2O+V49WYsmGSjz5oheMrGBnajKYBtCdjQ7epwr7+2aFTSoAQKEIDvk7GALcaPgsWhDz7kYPnhhx/sfL56gEA8qi81DDmpl/v5z38uZ40/08iCfZycai69R+xiCYA4UfJgHCZotS8slBeef1621+54MHiQrbBdobRs2cIaw9z0pZdfluOOO1ZlXGKZU9fMaAggL94ET4MtfXoDcJsQ6oKUkSYqWHTfCZNIoGgaKx26Xbyk1FYF5xuRZBjLyVOaqXKCm6UN00KOOvKn8odzz5U2bdtIDvNh7NdrNhJeigCiKUjftl1bufW2W2S7Hba3444dOxkp5s5l9dCQGk/04osvyx/+8Me4lzHPFisEjQW3qXsZ5Gbr3qeuSClpooRg34/ZkukEGmtRI1ta3S4qKZGLL7lEPvvqC/Uu2jVu186qJdoRZBoZxtdaDjn4ELniignhnSZNxxfp+EQz+Wr30/9cMwquz/RP7soW1EyhR3k50qVrsdx48w2y4YaD7Brz58dWCY3pQaZQFdxyyy0yfvz4eCPeS3aqgP3wKngX7o2MkCPafmHca10IA1JCGhfaqxoXmmP2URIFgTd+Uc4zo6y8TCZcdaVM1+71nB9mS6/evaSlkuLbr7/RjGH9YK2X1SAnaE/q4r/9zdo5XNczPlFJrssaNbXBfhc9rxFcjWZ0t65d5amnnpKuSiBWA3UZLQX3RBgNDz30kJxyyilWnaJ7VJ+GRpSk3NuP2ffgssZlrgNS5mkciQpAGIRmn3ME4jzMX7hALp8wQaZ9P83ejOSDqP369JUl2m74aPJky6ACrYL4sv55fzlfezztpKBVgeRrW8M8h90tIGog9yiJiJMp4TytpbDNkc4d28sD990rW20xTO/NcEFNQtCbK1PiPvjwI/KXCy6UJcvCIxBCQxPH78EWXSmMFET28TROmPVBykjjQkMKlOIYj0LwOOBkwgvRwPzXVVfZk+UlWmLfeuttKWxfKB06dJRvvpmqXqbMSv/Y/faTa9QTtdFutdljDfmyRqPx+2TX0DiXj0Udb7zxRunfv7/KHjsfQ7g+3dpKuebaa+XCC/9q+qCj69kQcMJwf4J78mXLlsVSBPnXFyn1NAgMSajrgRuQksA5FLR6WOOZYXfDTTfZiO/ixSXyyksvmRF69ewtUz79TD6bMsV6OvvuM1auvupq9S4tJa9AeyvaW0r0EnWBeSAPiBfLY9tErou8/fr1kccee1R69eplesEVzzACaRg5vu666+Xss882+UF9k4dr0fB20hC4vxdKZglQYImrD6S8ekJwFEhUEgMTn09bp6Jc/v3f/8rkKZ9oO2a6vPzSy7JsyVJbU+aLL7+0ebs8gR41cleZcMUVNqWCa8QzfB3gP4WI8Sotcj2yOFlV16NHd3n88Ue1cTwgdqYmGAZgKgZTRvnMkBOnPoHu/kAXJDZyXdb6QqORBu8CII63Y/hy/lztkfz1ogvloYcfkueefU7efONNWaqEMWLpb/1bS7uP3l0m3nqrdn07xg0S/VsX2C+UFWw9JII+3KrxoefUv/8GcvNNN0tfnp7bc61EL5Jjn2C+6uqr5ZJLLrV9G8VeT3BvD8Crebw19gyebv3bMIlIOWmAM9/dJySi3mWKw1lnnaXu/Dp57913bdVN1FWzaCnnr/aS1N1vO2K43HrrLWFyVr5WA96tTpKta4vEX0a9CkhOmlBN4Z0Gb7KxPKJEb6UN8LBsSTUpEI3PJRL+fsklcsmll+n+upEmShK2eC73XtgRwjQ5TxMFSqMMCua3KLD3kh565BErMWGENyhLZ5dvXRdoF3eXHXfSUn2jGkbraLo6q7E9ytVFQZNnHfLS5ezbt699JLWPbgP8YiHDSEN+T5hwhZx33vnx6mRtgXzumQFkcY/C1qp3LYTEO7G4Z32jUUmDorxmsli7z3yP8kEtqfkYoFyNQmlF79g3mZRCsvXWw+WWiROlqKhYSaaNZzVQ0uJfR9htuI6Gcq1ePKtrYs2mIoMGDRokt95yi2ywQX89rv6NE4uwfPkKufLKK+Vqra6iPZu1QbQKYgth2EIYAl4G4vi9GgKNShqUWrFiuZxxxhly3wMP2MoNVdqazauiI11T4Z/85Cfy2COPSoe27ex3ocpaA4wNYXf10Gup4du0a2c9ML7Isi6GsapKZeOrvLfecnONb0RF4Rn6xz/+Uf79739bnHuGNYGCRiA95IBE3NerKL+2h4ZAo5DGSwtKnf3Ls+XhBx+yRwJ8jZa4Kus2q2imdKUMHbqp3HjDjdqzymPoV+O5Sk2DoAihRiwHNZOtAgxO4GtxtEXig3vxPFxr5sWB+EM3HaIN+aelqHNHVSF5NcQrMn+96G9y1VXXaHsuTFtdHXkgBkQBEAc74l3Y9zhHQxEGpJw0GAXleEZz5pln2nevOeYb2iFvPKc16PHgwYPlzttvl569esQNYSU6lmp9wb35FiX3ZwYeGbG+13UibrzRRnLTTTdJ9+7dYmeqEXTB066UP/zpTzLxtol2vDp4QSNAHu4BvGry44ZGykiDwh6ox5l+ycw4xla8PQFLwntKYQicV2IffPBB6dOHr+mvWgJXb+LVI8Y/8zAczJs31455j7tufiU5nOAjRoyQ66+/3oYGgNugJqq01/hLG8vhdxA3GTjnv/U0xFkhit0vFUgpaXCvKHvRRRfJf/7zH1lZXiYrK7QHAFnQWbsuTHzC6fTr11vu5h3qoiIzCCXJWBKzzfqaCEPzQXcG3piqmRebl6N/LJg86wmux8DjrrvuKnfffbe0adPGCkUicXjcgMfD895xxx01zkVhNlC4PRKrI5M/BWhw0kQNgFKMiv7nhv9ZI7bK2jBqiFgPibR8V5uu6z133yM9u3cPv2cgLJkdk9t2rQBhMHxJyWLbajbGzqicsVBfQIfNN9/cpkzQ88MONe4Xy3AK1TnnnCP33XefxSeSx9N5QG7IT7rEtA2JlHgauodUSf/85z/l6uuulRXa5fQBURqejI3kVAYXu/HGm8gzTz4lgzbcUPK03mZmnrUsk+XiOuQsxoUw3AsPA2q8FOe2r8c84F5tWrWQ0aNGymWX/kM6FLaV/CSyc8v5C0vkxJNOtifkvEee6E0gCWRxwhDnIVVocNJAGAJjEhMmTLB9SBAWRlRFzduoIXS/X+8+8vDDD0mXLl2CYPWYcYAMgDSU6AULFkaMrtsoAxuAOIB7jR07Vm677TbL9EREM/+YY46VJ554Mn7siKbx/cQ0DY0GIQ0ZQwaROWwvv/xy+cell8rC0sWhraDnc7SCqtSqKFeLdkXZSm2QFsodt98hXYu72mMBzVHjVDQv1xduXORjN2wxOufsVHWj3EM9gntBVF79vfPOO+0dLL1jOGkIBHBvcv7559mSb7QDnfDpgAYhDYo7aa78178sMPuOVagsV2I5VKCNXnpKfXr3lMcff1w22XhjJZEajZZwAyAQJMcG3QhkjmVETB7nSOi/NQycFLvttptcfsUV2jhum0CGMMqLt/36629sjUDWxsGe6YJ6zx0MQIAwd2mP4W9/v1iWrViu1RIjlmRLII0/se7etas8qvX3kMGDw+/tb8OBTFuwYIG0atVaQ1gIgPnFEFUpZdWkk6ehACmopg8++GC54orLhTc63W5MIe3Tt4/MmTPH0ixbvtyqqkmTJtn5dCBPvZIGhZhghTtlVts5v/utkYdMEV5Uo1BryM/Jl/KVZdKhfQd103fJBv376/kce2gJoSBOQ5OH975btmwlbVq3ljy9J41h5CRjGhLuaWzimWp50IEHyB23TZS2rVtqoz9XevToYVNbkYO0jBQvV5sefezx8sFHk22BpsZGvZDGSwnggRlTG/6s9XHpklKrjZi2EK12eGRQrO73/nvvk02HDGmU0kOboaSkRNq0bWsvvJFB5mFMjYambDV5kIOq6uKLL7YppLNmzbRC5yAdpsU7jhs3Tt57770a9m4M1JunwaPgZR544AG54soJYVEhzQacPj1mSpWyRbvYVdKtW7H2kh6RbUYMl4KWLSykGhCVgMfh/SjIA8G1yZkCygQ4cQBtFwb38EAsc7IqqmyIYNyBB8qbb74Zl78xUC+ksRfW1ADMtmNRoaVLl0nHjp1V+YIaWZCvadq0aSW33HSzDN10UyvZnG+sMhNKcZW1H1q1biWtlDwVmhFUofVWmlYD7g/wNhDg6KOPliuv/JcRiXMeAKPGgDYObaEvvvjCjhsD62Ub3CgBpe/QLuQvzjrLphiULl1qA3hFnbtIgRInz0Z9w/Okm7StM1w9DM941Dp6lWCU1AOqhnkoYN68eTYTsGWLlvGMShW4H0ShQTx2333kwgsu0O64tnniI42Yyl/34U3TpXLguIPkS+1d8apMGfOPUoh1Jo3Xq1RJjzzyiPzhD3/QNswSJQ3jCSKlpUuszdC+XXubclBcVCz333efjNp1lLaJwzhMsswhxkNDAhlDIGP0biqLLRfC4GMjAFuwcAHE+dnPTpRfnX22vQAYHuAiY2gYu9wzZs6SUaNGyccfT7bfpxJ1Jo2TJShQJa+//rqcctppsqi0xLwMClEimCLFBKvly5ZKj+7dbUR4hx13tEcDq0MqCJMUKjgNdW9jpBpuT+7Pltd6WVcHa2BT4hy+v2hRiRxxxBEyY8YMO04V1ok0kIL5MLx6esyxx8rS5UtlpTaEHepItV1QaVM3GWu49JJLZI/Ru0sBbyAkbeQ1PkI2KOm12vSynWpQVRJoDBNOPfVU+etfL7AeaSBPdYENqLLVM/bdbz/b2vBGhFwNhbXOQRfGBX7xxRflN789RxaX8gI+Q2Ia6FKbp8+1RYBaqFe58X//kzF77RVKED+MK1wLSNQYOWYI3W6MsgYpGxwUTKZSnHba6XL66afH215uHPKhoEALoQr6/dSpNv3iq6++snMNjToVe3pJsNmWDNNe0hztrvJaBjBD635ulZYWVYiSwgPKsQfsL7n+5uPagGSNkWOaF9Z+8MfvjUbcAAqZVZWV5fLnP54rp558khbCXBaviAMvXoGH10I6Z85cOfSQw+Xrr7/VfAqTzhsKdSINbpI2zEEHHWSNXuOLeQ4NPK1mSwtf//3zkkvlEO0aRjoAq4BfpkOpXgUucyMTB5D5eB1mOrJQk7d9APv+xkPZyjL5ftr3tlRteO254ay61qRBQLrXDMRVKd1Z0JD1YKznbPLx/g1zV/NsSdUjf3qkjQTHHFHGwLIDmT00IrA51RKFlXD++efLcccdZ3ZmxmE1ecTGmViV6+STf26zBRuS8XX2NNsMH24vtHXv1t0Gwky4qgpt31bZ2AKN3oMOHGfzZXKYuolGGQRIjrkbzuR1A1WUk4fJ5DxuOOGEE/SYXmiQ1B/PXHft9XLE4UfEf9NQqBNpAMIM23xzee6ZZ6WoSxeTGyF5in3u738vR//0p3YcSx3b1gLPnXTJoRiQOl2oHs189iHOhRdeJEceeWQsViyOCfj77LuPVWWka8AmTd1JQyM3PyfPlopnsnS34mKpUML889JLbT28Fiy9ytNqReLFOa4R57mTLjmkWPW9p/QARKAwEli59O9/u1COOOxQaav2vunG/8mWWw7TcyItWxWoF6KtE/thA2C9vsJC650l5pkkRCOtNdMM4l3D9ES59jaYOffZF9HuKeMfldrjK5DJH31sT5vjpIm35NOD2bRj/Ck4208//VSGDh1qZOKYXmtDo14+3YMiBEpD1J2mI9ZEmo8+/lh691DSxJFepAFeBTnc9myrmwYNh3q5g7vOdCdMU4Hb2oMfp4IwIDV3ySCsblwpi4AsaRIQ95VZ8tSKLGmyqDOypEmALUig20wbyU4lsqRJAviS5UztyJImAek6uJdOyJImGbLEWS2ypEmA8cTrp2wdlRRZ0iQg3Z5ypyOypEmCrJNZPbKkSUC2IbxmZEmTDFnirBZZ0iSgxqd7snVUUmRJkwQ4mKyTqR1Z0sTArI58PpbKfixkkRxZ0hiq7ONk3Xt0r54akXU1tSJLGgUTs7sWF8uM6dNjMVmsDs2eNLyn1alTJ5k9e45Nl/T1crJPuWtHsyQN5ABMj+zRo6ctMcKkbI/PtmlWj2ZLGt6a4DUclulgojaNGNumybvc6YxmSRraMF26dJbp06fFXwfxSfGBQDFkiZMUzYo0eBhCsTZ6bdWrcr6V6ecCcRaVlIQIkK2jkqLZkQbPwgJAvEYcvEtgBruQ6L3337NFjWxkOIukaHbV09KlSy143VPd+M2xlbtu/N8NdpxF7Wh2pGEpVdotrDKFd2HZjhw1A9/P5KOrH7z/oXwy+VNbcDKL5Gh2pLnmmmtk9uzZ0rZtW/s2QiW9pZi3sVXVlUJPPP64rTAVRmyySESTIo23WViYgHe2HXgWAo3fJ5980tLNnTvXvoDCC/M5eblSXllhCzVVKFFefPkl+x0+KItV0aRIEyUKxPD2CoA0b7/9tqwoWxlfunbevPnSsWMHI09YxFbT6fbdd96NtXuySIYmQxonCJ7GX4Z34hCIe/qZZ4w8rJZOewZAnDIlUl5u9RIpS5YukYm3TsxWTrWgXpYaSQdADAgBaSAMK5EyiMfIL4Eqa5NNh9gHNAIbai8vrBq+Qf9+8ubrk2zJuCxqIuM8jXsUwD4kgSCQAtJAGLYsVoh3IVBtvfTSS/bhDKqmNTVV+HjFHG0s0wbKYlVkBGkgBV/b9Q+QQQoPAE/i1ZHHOblo5LJK+l333GMLGtJDWhP4bcnixfLqa6/Z9aJEzSLNSUOG4UEIUVJEA3Gch0yQx9szVE1hKbHwPc33GenV3hHp428crAHXXXuteSl+kyVONdLe00AC2hVODMt0JQX7BDLV2x2Qw4lDukCqSvn2229l6tSp9lUT70bn6HkWnexaVCxdOnXCvVh8gO7r8bvvvivff/99vJrLIiCtSeOZ5V7EARkgDiCeY4jj+/67QBqxlUeddHieEAJOPfUUGT58mxrVFr+BQqyTTFuoqSDRY1YXrOq4tUFGkAZCECAKxHDlfSVLJxZb9zQezzen7r3vvrBQtrZp8DRmIw1c7+ijjpY99tjT0ieCUWFWLvUqKtPgdiJADvTATrQR+YoOWydNNKwJGVE9ORHYevsGYAQnEm2YKNwAU6Z8GtLlUDXFFjTM0bTKq/4b9JcOHTrIvvvuG79mFKR94YUXYt8ayDygv5MEoCOBwmZf0dMepuuNXb1wrIk4aU0ahKckoDiBfTwOygEy1dOwnyw888yzljYAD8QnhFgaPl923mVnyS/IlaKizjJ69G56rqaxICOEueOOO2LGjJ3IAGATgA5ODi98wIkRJRLn3J5+PhnS3tM4QqYFhVCeLcriYRK9jIPSc/edd+qPURNjQRc1SE6V1lRV9o0BroEdDxx3oJ6PrM/LU++qHL1GhTz44MNSXqY9uZXVjynSEdiHwuUemODx2It4P49tvJ3nBMGO6E9a4mtD2pIGRVxJV54thAGUDI9PBpR/4403bMIV1wqGqS49mw3dTAZtuKF2w4NL3nrrn9i3NeFMCIE8GHLKp1O0TaSN8fzQnkpXRD1FIvCYnCdgQ+yHbk4g7MzvOE88+7XpmrakQRkUcNajaNQgboBEeBpVWR5+9FGp0OOQlrNqVP3HR0tG7rqzkkDjJQwM9u/fXwb038CeS1WTKzSw5y+Yb9/Ctpgk90wnoL8XLIAdsYePkHOeOEjEFt0hCfHoypZ0TiiOE5G2pAFuABQAXgICCZJnHr8JxMqRSW9OsprJ0ts/S6BVzcpAmrzgwnNzwz1+//vf25d9wxdq+R1XCcT9+8V/j103fUGmo6t7YDyIH0MAAvb03iiB81GysO82Bsl0TtsHliiMsmzJUPZRxJWpDSiJcWb+MEuGbbmFHjMCTFc7EKpMq5mOHQrli8+m2ESsHL4ZHsPylStk0KBBsnDRIi1N9LbCbzzw8ZDevaPfTUgv0EvyYQjgtouSiYAuDrcnnid6DnJxjmtErwnSxtMgLJntzHavgiK+XRNhUJev2a2sKJerrrlavUZ4ZBD9FVMgTjrpFGnXrn0NwgCotdGGg4wu6l8szoyt9RnyMM8mavB0g3sOAFG8SjcdYvbDxhCEACHc5k4uwG88cA3PE0fakAbBEJItyrigayJKImiz8P2pBx96yK7njOHFfkjRMr9Axh2wf4hMAOn33nvv8LsQYRueWVWUV8hTTz9lx/HzaQzsRoAIEIJ9bEqAXHgPCMF59OE88Zx3m/tv/NjR6KRBYATHtSIcJcCVcYHd26wJqIaXmPrdd7Jw3ny0tldR+GVVTO/27QttUC8RXJ/7HnbYYdZoZOqn/1YFkPKqCnn88celtLTUSmc6EQdZXCYnAMd+DhAXreo9DqJEiYMNPK2nSUSjk8YF5gNjLjQKo5grsDZVk4Nr8bwI8kEENxpgf+TOu0hh23Z6EIuMgPNdu3aVnXfeWXtRDAJWg7VrFi5YKI888kjc6OmGZDaKxrFPwC7Y3YnmNvc0UZslQ6Nqj3AEBMXToAgKeByBDKoLabjGf/7zn/g11AzhhAIijP/FL2IfbK0J0lIKuf/IkSPD7zWe6o6/XIr9R7UbvzZeL9WI2gfZV0dszqOne5nE30aRzO6NXmQQHsGB16leB3MumdC1AYU/+OADmc46M0l+t+HAgTJk8GDJL6jZAAbcx++Jp2Fr5IgZkQ3nP/roIzuui1wNDZc9CkjjBMC+TiT2qXr8HL+LFgK/TiJ5okg5aRAQV4jg3uB1onh7xr1LXYCSXIen0uyjvA23VMWMqTbYZpttJFfvY1hNng9WYjHYFz6UXu2u6Y0xvwZirs6ojQHTNyYT+04GCiJ2BeyTBtt6ek8bDfyOhjLnvUBHkVLSRA2NcJDHBeWce5h1AYrSeH3hpRe10cp4cKxawzDaiFVTyL777i05+XqvtbjFL8aP17/VmeDo1q2bTJgwwe4X1aexgYzIBJDLCx025ok2BdSrIoIXWPZJg+2dJK6XXyeqP0gpafzmCIKg9FLYejXkYV2AAWZMn2Gz7Rx4ijAlIk+6dOli1Q5YU1Yjz6hRu8Vf3cWGGLBLURfrPT333HNpOenc7YqsBPQAEAFSALexe3Q/R1xiQeDYyRdFSkiDIAjgCuEuXUgXNBmj6wJ+e9ONN0p5mbpTnh1oVcIjgUr1MmDcwYdI28J2pvCalEamos6dpXfPHnpQIQV5OdKrRzdZurRUlixZYpPcv/rqq7js6QJsSHCZsAmEII6OBvaHJJ4XBKosCEScw6um2pAS0rhrdIWcIFGl/NhDXYFRGEdZVdkce0K91157xY7XnMlcA8MdcMABJltRUZG9/w1hkI3z9957rxnd2wvpALcd8jmhOUYHhjQgCPZmi34EzpM3BMD56D7nE9GgpEHwKINRguBu0/edNOuDRYtL7HnTqg1cCFAgG2+8Uex4zUAeFUiOOvYY6dmnt5QsKVWPVd1OQKf77rvPSEQGpBOwIzZ14rh3J3DOA4iej+YDW9/3tFE0GGlcUAJAQHeNBISMepn1AXd44sknZfHSJfbsqQZyqmT77bfTBmxXu28SVq0CI0dujvTp21f6btBPli1frveo1gV5Fy5cJJMmTYqXynSBZ3SUBF4Vuf2958qxEySaD35cG+qNNFGCsEUgtgiCACgRMi0I5WnrC5dddpnk54UeQCIuvPBC267OEFGY4fUfz5xGjNhWdSknMm5UO6+N7GefeV71Ss/XdqN2p3CydfnZ9xB0qS5IicfJUK+kgRSQxV0eN4fRLogLD1BoTcKtDbjX5Mkfh3tr4FUUvx+hV88+svnmm0fq5+rqcnXAMPS79tpjj/jiAFXqfSxoj6xKL/XCKy9ZtZXuQG8nEMH3PQ+CXdYe9Uaa6I2dQAQEY8t5BK2vKglwH7Js0qQ3ZObMmdK9ezfJ0+s7uBeEWVcg41Zbbil9eveJxVSDgcPvvp0qkz/5ROWIRTYT1BtpHHgWQIZZpsZCFGRGfZCGp9C8q33/ww+p/6iSadOm2eAbS6LRM8ALHXjg2Fhqx9qrrFJaQ/f444+ztzPxYqZLDnejUJTLP/95qVVf7l2bA+q9esKbOFEITpCGMCiZOn3mDHnjzTdsiJ+Y2T/8oB6nh5G3Q2Gh7Lfvfut8b/wYK0jsOmqUTTqnKjKqa90EYZgWOmnS69ooXlhv3jMTUK/VE5kDcfAyjF94VcS2IQzKFR+4/wEpV4JUaluKY0r8nDmzpbt6nP32209at2xpadcF5WVM0ciRgQMG6HVaaUdMdQy00XgakSIlJYtsKTb0boiCkY6o1+oJYkASCINbp1FMnMfXN3G4GosqUnVATF7o5x6sBzxrxkwZw4Ce5uO63rfArpkr7dsVymGHHhq8Gf8tQCCRZcuWy2233RZ+0ExQrxPLKWkQBoJAGKqqhhj88hINGTZQLzBv3lw9oK+DtwuN7qrySvn444+ld6/ukq/tm/XFrFmzZNMhm9nE9FDW6IXhd3KkfWFbe6zAg8HmgHr3NDRAKfUYkG1DANJQDT3wwANaNfyoMYEwDqqUHXbZQfr06y259UTazp07y6CNBqqSkMW77XibKnuI+dZbb8Ximj7qlTQA4nh14Nv6Bu0HcMEFF+hfvweqUAVqF1+9zVm/OMvaIPUhASSlAIwYMSIWUw2cHu+Fv/rqq3EP2NRR76RJBaj2WKTo66+/VpL4c6wKLfPMSCuXos5dZMTw4fYmZfzzgtYCWTdAfjzbuHHjrP2kfSqNVeKq18nNVa9XsVIee+wxS9McGsQZSRoyxqddJoIM7j+gvxS2a1dNmPXMQ/c022+/vfToGV6Wo1rSE7bPucmTJ8snn3wS94JNGRlJGsZM7r73nqQz8MjHww47HPbYgJ9hPesoiOhDB3ibPN2PnTBCMSbE9tZbbw3xTRwZSZo5P/4oTz37zKpPtJUj7QrbyeFHHC5l5ZqR2iCuqCcNIQ5hjz324Cj8i8URAIsEZD1NmoHSTHj8icfDg1ENUXBupx12kLatWktBXv333CDH0E03DVVTnK/VxPn8889l8eLFJkdTRkaRhlJMY/OJx5+IDxwGhMcVKLP76N2tKrEQ8wj1CQb6jtTqz94R511xjXM5kK05VFEZtcw9JZgFBjffcguZ9cMPgQ6sCKE7FO6C/Fx5W6uIgf0HkJNhGoMmCSWDvfUjEPeHrHwzaqeddrJ9h3kXlaWwsFB7dV9Ky1br/vgi3ZExnoYsL6sol6eeedqWoI/Om4EMjAT/ZOutZQPtOUEWZt7xm/oGHmzAgAHSo0cPm79DY9sa5Nr1r9TuGqT+ePInSqim27bJKNJQmidceWX8aXP1GAyOJUdOOukkW/mKBnJDZJlXQxCHeTosigRMNtvLlZXlFbHR4dCzaorIGNIAFhv68ssvw4HmR/Ax4aBtm7ay1ZZbqYOhJVN9rr79DcSh63388cdrGyu0pYy8EFn3aSTffc896mnSe1HH9UFGkYaHgotLFtu+9WAUEAOabL7ZZtK7V2/dj5IGj+SkIWb9YSTRMHr0aOnTu7fkMxU09mndsOxalXz44Qfy6afM6KtfwqYLMoI0GJ9/YTUI5gHzgJLJXiGziouKZezY/a3aCJOxoqh/FSENPTnGbKKNYQcfHWNJEpO7CRInI0hDBjHR6TFW69Q8olqgXcPXbSEML8MdecQR1saIzQGPoX68SzJAnJ132SW0n/Q2UWrwVsQrr7zSJAkD0p40GJ4MeuXll+NzdfAmjMr00uph0aISGTp0qHTs2FHTxX6UAiALT70LWqw69QJCM5eHtz6bItKeNBCGKuCF556XnFxGeavUm+RIt+5dZc7c2fa4gJfh8DCQJlXEYb5Q167Fss+YvaWyXBu9eD73N7rP+9633HJLOG5iyJjqiQ9bkBlUOV26FMmCBQvsQSHjNQfsf4Clg2CcTwWQidHmk3/+8/jSb2HsSCXIDY3lq666yrwNaZsS0r960vD8iy/IjB9mGWe6d+8uS5aUyvLlyzQzKmSzzYfKoI0GWTWWKsI4IMZGG20k7dq18xgL9oF4BYsG+DL7TQlpTxpGXG+ZeCs5ZNUBbxosXbrMMoxJVkcccbhmSpgXnErY/TV06tTJFqzm7ngaB96FKaIffvhhljSpxorly23CVVFxUXyMJoptt93WtlYFpDBvnDS8ynLGGf8XSKvkwKA8xQB8nfdf//pXtnpKFWj8Er766mutilbIksWl9pF1nulYBil4ODhw4MB4BjYG8HJ77rmHFBd30f0K7X6rb1TW8DiDNxfeef89W6evKSFtSQMJcOt33HmHfQVlifZGaC8EcoT1VM4++2xrhDYmkIfXdFgEMgqGBlg4gEnnzz2rjfgmhLQkDbUMbZl5ixbIDTfcYG86EusehQyhy3vUUUfFjxuz3cC9d99993DAGJIem99TkcpXlsnzLzwv5eWqUSPKWJ9IW9Iw0vreBx/I8rKVqxib44EDBkqHwvZGGGAeqHFqKLs3y7PZN5U49n9VgeSvvzbJVs2ibdMUiJOWpMHw+do1euWll2VlbFQVYxMsU9Tuu+y0kwofWELGGGkaAdwX4hYXFwdvExGDczzDLFXC3HXXXU2mQZy2pGHq5FtvvikF+QVGjqry8GCQcxj/8MMP0/j0EZ821uGHHy55Km+FktqC+syqXBZFYBrozVlP09B4/fXX5f333pPevXppSWbVCW1Uqr3xMpsNHSpDBm8ar5rSAXiVzTbbzB6aJno9aMLaOaw9nOypeKYh7UhDScTL3HX3XbJixUqZPm2GLVTUIq8l5dYyhG8y5eSp98lLr1Lbs2dP2aBvP2sIQ3DA7A3khjCffvqpeaRMR9qRBsLwsO+dt99RA/OAMkdmzZot3Xp0l7yqPHvCvdtuu2lm8DpsepVaHwZI9DSA3uCEKyckPZdpSLu3ESANz2uGDdtC97VVgJE18A511y5FUqbe54OPP5A2bXlIqKyPvcudDsBLQvghQ4baA1WGhm0hRyycU2lrWzC63adPWMMvUwmUdp6GxuIll1xin//D2GQEq0DwRHvOj3PkjPFnSuvWrew5D//SCcjO/OFNNx1iXof2i/FFxfRXeflWuMVDpgxF2pGmpKREJk6cGDuqCQw/duzYWAm17LD4dICTgO3o3UYbgVj2hIY7pxjko+H+5JNPZqyHcaQdafjAV/z7kTHb2mx/de/FXYuka7eiWK8pvUSHCMjFI4UjjzzSpnzm6zEqwBHO4WGeeOIJe3U3k5E2lqeEEvjIF1ZOdN/0Rljqo8azJromaQQnDrMKdxm5S+he81ihMpwDS5cuTdtPGq4t0oI0EAQjLl+xQm69/TbzNFY8Y7DzWmZPOeW00PC1fmx6EcYBFaD7fgfsFwb2lDGVudWek3Dv/fetUigyCWlDGvDue+/KN998I1VMf9BjSmcovTmy8cYb2wRyJsWRGk5FeJVWKNMe4E+2+knyFpcK/+UXX+tOelWvdUF6kEaty2soNBJ5Q9LaLBGLQxy+Ckd7IZxSy3M+DUmDSPl5uTJoww1lwMCBkptPuyb8s8ceKvr0adNi38FUz5OB1VSjkwavgcvg88e+2KE9HY5XP1RdYUAvLzYljonb1RVBegHJIAg9vfFnjjcJGRHmhBFHCwWDln+76G/2FTwKRKZVVY0+uBeMKrJg4QIZ0H+AGpASWR1PFcQysyzKWNimrcZonFHdzrKTdsB7QIT5ixbKsC22kKWlpbbCRB7De9YmC2mmfPaJ9OjRzX7jDeVMQKN7GkyFEJddcqn2MvAwkAHolm6HepSjjv6ptGrd0sgSCAPS18hUrwzudWjfXvr27RMWrK7SLrfqVl5ZLuVV5dZAnjz5ozjBMgmNThrAmi7eDcV+zJpxM5IBhx50iPInswwLmNbB+97+vahE+Dc3M8nLgEYlDSTh8cCPP/5o7whV4VlUIh5GmiHV87QsaCUDBgy05zaxX0VCegOJjz/hhKSv7oI777wzI1/dbXTSUNIee/wxG6Oha0T1A3nsQZ9ip512lKLOnTSeE4neJr2Jg3Q9u/eQrbbYMkREgN5MAX3qqaeynqYuCD0Hkeuu+7c2FEMvia1FKqFoF/z2t7+1r8WFtgzGTQzpCxNZdRmtPb+AatLDE96ZeuqpZ4TXclA5U9o2jUoaMOWzz+Sbb7/TvdDtNqjt6J7269tXtthiWDU/jCPRA4tIa/DUe9ddd7W2GfI6MdjwQJOl1igsgTR2Ku3R6KR56ZWXtUfBvBmOYiTQngb2G7b5sJiRcfSNLuo6gYetwzbb3ObQUB1HayJ0Yyhh8seT7VzEEaU1GjUnyqsq5elnntbSyKipGlSNaIN62qbhQxV7jdkjRprMJIyDV1tOOflkrW55PyuQxdsxeNR/XPKPQJoIodIZ650b7m7xBdGCwj5xtYHfMbsN91yeuKihEqd1qzY2Fzi49cyFy7/HnnvEPiKmlqGXSIgZ7JWXX5GSJO+ppyvWK0d49L+4dLGcedYvtEH3pM2sowvJAzueJUXJ4D0l4DPXbrn5FlmxcoUNrbMUGiCeRYsOOvig+LovTQFMju/QoYPqs+q4zNJlS2X69Gm273YisF+utsSm2MwDU0r5dNHtt99ua+CYl0oh1vkxAoISpqmy222/vRGlW9euUlFWLl2Ki6RLUZGttUt3c9sRI6SrngNuMIyx595j5P0PP7Df8M4z4DSF87aJE2WvPfeKl9RMJ0+5NnbPPfcPcu11VyshyOQcya0MuvFsavz48fLnP//JjtDViQM5+FAHgQlqjGnNmDHDZjjS6xq04SCZ9MYkq/pShXUmDT9irdyPPvpYRo0OXUp6CsVKllmzfjBPo1pbQ5CMZzGiIUOGyCaDB8smm2wsXbXk/eykk2TRokV2Mf/YVzCayKefTJYe3XtYDEbMfNJUaKbPkC233MJsU2mrX+TF7dO5U2e54cb/yXfffWvr9U2ZMsUCn2/Gu6A/hbRI7ct6f1ad6e8KWrSQr778Ujp1VC8Wu1dDgsK+7p5GM5eScO+991rmQxDKD4p1LS4Os/E1Lkx4rAa1EFMhKV2MBnM2ECKQBgOOGLG1PPnEE3quuoua6aTRylqJIjbF41MlAxPnmTXE13jRsZVmfufOnbTAzTQbEBfVmX23BQspUSPNL1mkBKyUJx57XHbeaYcG7y5AGLAe9wkKTZr0hilE4BPHBXl5Mm/uvFoJA1hcEaNhHIhBaXNUKJHO//N59n4T8GtnMshsX8Z25MiRmEbhy2TTu4IwXazqAaQ328T0jm4JeB8KJx+rb6HendeXAXFOrIbEOpOG7jEz7F5/9VV7mEjGe+CiUSIAJwweysZhtIfElg9RVMWqJn7XvVt3GTZ0mJozKlpqG3r1DTI6X9tsBbl5svdeY3QLYRhWyJW22tjvWNhBZs+Zbe9/CyuYatCzHMQJk4jS0hKbl9OhfQetzj7SvFDPhftZB6yJaFSP7mWM0La3DkAZnp34Kk9eCjysAriit8utgiCh3ZIMQ7TNwww9/3B6UwE2CVVv6BRw3Ea74CzyOG/+PPNC2ISprWuLhfPnqndXD6aem6p+XQAJCPyekEg84iCNpwPrTBqAwp999pk9dDvnnHNk2LBhdlO/MYN3TBKvUmMRZd4HD0OVpHU5q3MGZgSD8av9DzzAHRDJYlgvMdMKFIhjjz3WOg1t27ZVDzPHbARZrEvNW6W8KIjBKDeaUd7G4TeA8Z4dd9xRLrroIvtK73//+1+7Ls/qkhbY1QAPQsMacrA1GWJeiykr3Jd90rkc6z1zzy8KuDA352v5M2fOlBnaqHv33ffkww8/si/JlpYusQ9Q0JPgN6He5pf8qZK2SsJPJk+WwsJ2Nl0yulpmUwE24tXcQw89VObNW2Aexv5pLtBttjUF8bKqe5cuXbQgDrXVKAi9e/e2QEMYkkAi92CgroQBTgxAnkA88/SxOK7JPnJzv3ohDeBCBBjKTe3C3EzP0b2k7i1bWSZffvmVfPD++/LBhx/YM5eZM2fI9BkzZUlpqaU9YP/95X833KBkCcI2RdJgm3nz5tmbFSxAqYpKYfv2tqQKX3UZuOEg2XKLYbLFFlvIBhtsoBkYvAtwUniBw95OGFBX0iALA4f8jmsB9pleyz3YxwlwD89Xy9v6IE1dQa1UURnqYIRjAOvpp5+Wfv36yZgxYywegYMnalrEwehk0B//+EdbuJoJ83gP7EBJZguiZGgoIAv3c4JwfzyKywK8WvI0VgU2BmmAC+z1pwtl69bp1lntRgaci4JzmUYqb2xSBSB7tIS7PqksLG5jZAJsnSTEQxKX1+VrFNK4kHEhYobyc9F4jyO9sz5et0bSZBpcfgf6RY9TpZff1wsvJGGfOI6dwOZhYjKlnDQYi8xn66UtCuJrg/+W30SZn8W6Aft5YUysGp04TpaonVNOGtwzAkaFQEAaZDTAoqRBCQLxznhXlG2U/VnUHW5fbOtenOCF0W2baOOUDoAgIHAhEM7reMYevPHlAkMKPAqk8jEEgGJOHEIWdYfbjuCeBvvSBXd4PiQipaRxNjsgDHDX6OcTheW8K+XE8+Ms1g1e6Nhia2yJ7b0jsjqkjDQuHN4jeoygkAcFIALHHkhLcOWIQzmOgZPGj7NYezgxsB02xrbEeeC4NqSMNC6c70MUBGPfPQlAYAgCIaIKeDzpnHDubbKkqTvcnlT/7uHJH+LXhJSQhkwluEC+j6DuQTiGAN7GYZ/6lbZM9Leci/6efbZZrBnY1p8zYUcKHfvYMjGsDimtnhIBMaLVDwHmE+gxUb9GPQtpKRXs89ss1h5uNwKFzAsotgbkwdoiZaRZE3shhhMIBVGK4N4EuEdykmWxZmArvAvAfhDFvYvb1psNa4tG9etRQkRBHOcABALEeUnx4yzWDLebexbvHbn3jtp0bdFopHFlokCRRDL4cWLauiranIENCdjXvbfbzwtnXZDS6qk2AhDvLXc8C8fs11YF+XmwLko3dWAf9yxuQ+xL+xB7Edh3m3tYW6TE4giEgCjixwhNXYsCKEZgn3Se1n/nCjnpnGT8pi7KNhdQ8KIFDnu57RzYbV1tl7Ji6oI7cZzx7i4BJYNjb8c4eTiPguxzDY4xCsdZ0tQEdsFGThpsSk8UuM3d3olEWlukjDQI6gNJCEtmQwrinSTsoyABQuCJ3NO4gqTBSxHH9bKkqQY2itoW4rDlBQDikoV1QcqfcruHIOMTme7Hroxv3Ri+TzxbCERo7sAW0W60exmOCW7v+rJVo0zCQgm8i3sN4ASJwslCeicIx8ANkkWwp5ODLd7F7QY8rr7s1SikcVD91KYQJQfFIZUbgTRR0jR3uE3cszAnyT048RQytm6r+rJZo5IGoKAHhytXX+60KcHthI0gi1f3tO8ohBwzgBcljqN+SCPy/5wwSPDhhEvUAAAAAElFTkSuQmCC;" parent="1" vertex="1">
          <mxGeometry x="776.94" y="310" width="31.94" height="70" as="geometry" />
        </mxCell>
        <mxCell id="2kZgn2yWBnld6z_HZbz6-6" value="модератор" style="text;html=1;align=center;verticalAlign=middle;resizable=0;points=[];autosize=1;strokeColor=none;fillColor=none;" parent="1" vertex="1">
          <mxGeometry x="746.94" y="378" width="80" height="30" as="geometry" />
        </mxCell>
        <mxCell id="2kZgn2yWBnld6z_HZbz6-7" value="" style="shape=image;verticalLabelPosition=bottom;labelBackgroundColor=default;verticalAlign=top;aspect=fixed;imageAspect=0;image=data:image/png,iVBORw0KGgoAAAANSUhEUgAAAI0AAAE1CAYAAADasGMJAAAAAXNSR0IArs4c6QAAAARnQU1BAACxjwv8YQUAAAAJcEhZcwAADsMAAA7DAcdvqGQAAFQ9SURBVHhe7Z0HgBXV1cfPNvpSd+lFQFQQRY2CXUQsWFCxG7sxtk+JMYlJTNEYjYlGxVhTrNh7771gryh2RZogdVnqtu/8zn3n7ezjLbCw+/a93feHuzNz576Zc87933PL3LmTs2zZsirJIos6IDe2zSKLtUaWNFnUGVnSZFFnZEmTRZ2RJU0WdUaWNFnUGVnSZFFnZDxpqqqqh5nYW9tBp3X9XRYiGT24R8YTKjXk5uZoxufoP1VH/+fk5Fga3yaioqJCf5OrSS2xxVVVVFp6D8ng94yC6zQnZPyIcHl5uWX60uXLpKSkRNoXFkqbVq0tI1eXmZAGss2eM0cWLy6RTp06SZdOnY0seXl5tZJm5cqVsmjRIttv1aqVhYKCAjtuLmgS1dM777wjW265pYwYMUIOPeQQWbJkiVRWVsZSrAp+Ayluv/122WGHHWSHHXeUkSNHyowZM+x8bYQBN998s2y33XYyfPhwOf/881fxOs0BGe1pKqhclBzbbrutfPb555bZuVpB7bP33nLTTTdJixYtYilrAjqVla2UDQcNkhL1GmYAzfydd9xJHnzwQcnPzyemBvBMH374oeyzzz7mafAwEJP7HHDAAbFUzQMZ7WnwBxWacXO0irGmSaX+0cx/7bXXZP78+SFRbVCCde7c2aqoHAsib7/9tlV3id7DPdPVV18ty5cvNzISB2m+/fbbWKrmg4wmDV4lV/P3ZyecKHmaqV4l4Qlefvlly9hk1QckKcjNk00GbSTtWreRPN13YuBRkgEyvfnmm/Frci9Id8YZZ8RSNB9kfJuGjD788MNtv2XLltbe2HfffeXuu++utV3jbRbaPvymXbt2FkeDtrYqbd68eTJz5sw4uXJycuW4Y4/X41iCZoSMJg0ZSA9pkLZNdtllF+sBkfELFy6USZMmibbXLE0iiMNzzJo1SxaVLJJlK1ZIlfJo4403tp5TIiDJE088YV4oEC6EsfvvL/l5q7Z/mjoyu02jGQhp2J588sm2JWO/+uorbeiWybRp05J6G9KtUKJ88803Uq7nl2l3HWrtsPNOoQufBI888oj9LpAwR3r26CmDNxkcPE0z8zYZRZpEr8ExAQIMHjxYFi9ebOMom266qey2227mcRJ/45g6dar1viACAYzZa0zSsZ2lS5fKu+++GzsK991pp52koEWB/lYjws+bDTKCNHgNqhrv2XjAi+BZyOiioiIZOHCg9YA++OADef/99+X++++33ycSB9/z5ddfxfYDcQq0mz14k01qkIbfcU8I5mM/wXNVyvY7bB9P09yQ1qQhgyAM3oOM9UxzwrAlHuLQFtl5552lb9++lsGzZ8+Wu+66R/eXxj1JFJxnPIZrkO00gNu0bWtpE4lA1eT3A/xu2LDNlGBKGqNg80LaexoykUyixEMOMg9wDKEInMdDENq0aSOlpUs0bZWULCqRS/5xqaWPAqWXLC61a9BtB1WVVXqtlXEiAq5Nr+nSSy+Nx3sPq1evXnacrDpr6khrjckUAkTxfT92kuBhnEgnnniiVSXebYZk33z7je0nwrrZOA68h4bl2i5aom2XRC9DYxryAO4H0XbffXerDl2eTAG6RfVj3z1oot6rQ0aQBk8CEcg0lPTgDwqJJ12fPn3koIMOinmfPOnUubMcc/Qxah1LVgPDhg2LX1MtJp07d5KOHTrUIALnaFTzmAIQX1xcHPc86Q4nA4EC5N6a6p7OA1v33h7WRq+0f/bkSrjiKMpzHwzgYypkpmW+AmPccMMN8tlnn8lpp/2fDBwwUHs5q4698DiAsRdGdPv07SPXX3e9bKINYa7pJOSeNMDZ5xkT1yR9z549jXCkdYKlI5wIFCJs5rZEZtfPgW05dp1Wp1dakwaFXRnAFu8CYVxpV869DnFuLD/26ioKyOdE4x7sE0jvhvNqifNRY3LttTFuYwKZgevocqIfiMpNnNvNdfKQDGlNGlcmShyAITwjCcAV9HRRhf06BOIxjhsTRH/jaZxAfp3ob6Lx6Qa3FVU6YJ8AnEjROO9EREGBwq5+jUSkLWlQCo/CFgVQ2DOSDIy2Z1YH8zeant9R1eA9qJrcW/mWgAvnevTAeCZFnF/fO9arv1vjAztF7eP2Qk+PA+jl8X4ctSXXgTTJCkfakobMjWaqE4dtooJRYAiQo+fLKyvkxzk/yqMPP2ztl++//95m9y1V0nD98nIteWivdsnNybUR3tatW2uDuKMUaSN69O6jZdy4A6X/wAE2BcMMXabddN0iRzKDNjbQy+XDFhyz78cEiATYogPkcHLxW9eL31K1J+qZ1qQBKONKEbwEYIQoiHfFP/roI3nksUflueefl88//1xWLF1m6cM19Jpqgyr+JEV4CEp3PC8vjMv07ddPdth5R9l/v/1l+DbbSMtYIzjd4AWMgA5OII6xD0iscpxEBHQiHb8huBeKeiiQtqRxgVECoZ3tvnVFUY4tVc57770nl2h3+Pnnn5NcNc5KiFepxogZEZdSpR7Ff8+V4spDJLYWHwxfVUEmaFSuejz1Wi0LWsimQ4bIub/7vT17KiwstOs4XLbGAm2RaLXktouSx+1l+uuxy0xa9zScC/YKhZeqOoq0IY0ribAuMMcEECVO1MVCLrrCxx57rHzPU22Nr6wK50ldGSNNIEwIOVUYpsLOc5VEp2O/tcurEfmtvenAIVVfjpInVGP//ve/ZdSoUXEvVlsbIFXwTAfYDVmIi5KDY2xmOmoc6V3uqF39N6SN2h6EO6QBXGACgkaZ7wJHFeIcT58ZN2He7tSp07TdEX5PDjOjTxPWUJBTToYoiIsGvWO4J/818IgBCWgn5SiBKH3cG6IeffTR8t1331n6qGEbG04aL3TsYxvsBglo9ONBsC9xwPc9Hb+J2t/R6J7GBcS1wnhntguPwATOYQCUIC3TOU899VSbH5yToyXdMlgpor8x7xAhht8jNzdPOnTqLN2Li6Vtu3ZavbS165ZpNbRMq7fSxYvtlZaFCxbYO1DAjS552rg06gSCu1zsMwnsrLPOkoMPPti8DgE5Uwl0JPh9GeTEjlFP4fOb2QduF7bYAbi+/A5S+e+jaFTSIDABOMsRkn1Xnq0bg3OU8iuuuEL+/ve/W5wpCWnUP5iHwM2ou8ililKvgJHoQkOwQw45xEZz/doAA3J9B8fMw2G6KCPL9Li4B/flnKf3hnSPHj2UuD9Y3FFHHWVyUYpT3VAOMiUnjQ9uQhpkc7sTSI9O6Mc5dCWerR8n6tKopEFJhGKLoAAl2Pd61onBvspqmf/UU0+ZUZQW9ltVQ7faLTdPgyFypJdm5i9//SubLtG/f/94hidDuEYgjIN97jt9+nSbUM7zJmYEmszl6mny86S4a1dZpARbplVVnt4TWbfR3tWNN95oz6jc6zQ0kMkD9zMZVXa3HeQhDg8NgbCvp4Ms5m116+cIkM0J5sRyNAppENbhQrrCrixCsgXE8YbB7373O7nvvvv0GLrodWJ/AyBNjmw0aCM54fjj5fDDDpM2he3sGolKg6gM0XPER4+jRnzsscfkmmuukfff/1A6FRXJvPnzZMXyFZKvVZf6Qy5kaXfWnhWN5O7du6eENCBqQ7Yce3y06uEcW6+m0Av7OLlIT+CY6okt14zaJOWkcaGAZ5ALRny0/uQ8Aa9yzjnnyK233mqN0UraG951poej21ZaBf3shBPkN7/+tbRqGUpIi1ahq8g9okrXBVwHGQBbSuRdd94tF1x0kcycNcvGbCromquHQzZ1eFZNbrXllnL//Q9Ihw7t1/nedQGyQQD30MjtdkVmtyvxbmfXzfUjjmsQzzX4rZMpipSSxgV0YXGXuECUgu0ISQCuHIFGJm2MNu3aqsdZHJTU/2QFv+vVq4fccsstMmTIEDOaX6O+EZXph9lz5Kijj5GPPvpQKsvLYKZ19a2HpczB94zYdoTcc/c92uhmRmB1e6Oh4OM0TlIyHFm5L2SI2hYbRj2Qk428APyGY9LxO78maFgtaoErAWG8dCQK5njooYfk3vvutfbLokUl0lXbEaFhp2k1c3Yduas8+vAjNrG8tmvUFzzTuUe3rsVy7913yk+PODyWGbBYtxAm5gWZp3zZ5ZdpGyjWA1MY4RsAnrnY04G8BCcIcnPMvh87YYhn3+Hn2BKiSImnQWgCDAfOdBcUZT3DXUDO8wbArruNsu4uYyUaae9u9+zZSxYsWCgjd9pZ/v2f66VjYXvJLUj+RLa+gVwO9laql/nV2WfLbbfdGUqpkoZGMVp42okTb5W9xuy5io71Dbcxwe8FOMYLYW+/v8sWJYznD8fR84lICWlokyAIAjibEQrhXUHOA1cUJXlT8o2339LMCee0Cae+lPkxBTJmzBi59uprrDvNO9yQxn+bKmA4pbGSpVzbXL+V//73v6KaaKwTQ88qgejmf/DeO/GM9MxrCDhpAPdxuwInQuK9SY+HomojTXQ/+nvHqjH1CG6KQAjp+2w59uBM92MEJt1VV18tb779tpo/xnp+p6U4X8mxxRZbWBeYoXwzTKRUpRLcUaXW3lOeXPjXC7Sq+qlHGplUXPOMM2ZMl9NPP72G+28oYA9sij2wI94P+5kNY/BjztvQhW79N4QouZOhwTyNCwXY+j7xCOWCEaKANAxCbTNiuEyfMVPtr70l/Q3tBHQo1G70E088LptsvInlD9fR/AmZ1UjwDJk5Y5bsvsfuMn36DNOL51xGIPWE7dq2luefe0422mijeCFpSLhMUdsD7u3HLoPZUOHH/HZ18tWbp+FGHkCisDCZc+YZNHi6ZLjwwgvtPWvIwDXU/BobSMg4CYTRC9h1GpswAAMTirsWaTf7Pq0yWwe5FCaeyserv7/+za9DpGJ1+tcHXCYIge0JXlD9mH2zYQKIXx3qlTROFNojAIHwHE4YtsS5sMmEY9ie1aaMLNZNDUanPTNCvc9uo0ZVexhg5xofXiBYRIBVLHK18V5Z6dUR3fEqmfT6JGvcu61SBezsNne7E7Bh9HhtUW+k8ZuGzK5umyAYW4Rj39meCC95PIhkFQdsas93dMt6Mh3aFcpVV15pr8+GB5LVSAfSoBM60G455zfnSPdu3bWQ1BwUW1m2Uu69915LU5dMSjfUG2mAlyC27gmicQBjeXB4Gl5Yu+qaq0ODN4d+iP6zMY8c2X///a0UF2hG2ABa5Br1qsR6gB5Hbn6edC7uLKf83ylaUNT7KOtzmLtDD091YZCSaRVuj0xEvZMGjwLIUPcwxEdJkgg3IA8Gv/zqK/NS+gv1MoQg5HHHHKsJLZmB3fQ0O24/X8but1+wQUR3towvPfTgw+ZJMxX1Rhr3JmQ4xok+7/A+f63Q9BVVlfKs9i7oolo7RUunFk/tgVTJNsO3kc2HDdOEeo3auZcWQDxC7169ZNxBB9kBugVQhYk8+NBDgUjpyfo1ot5Ig0fxdot7GAjkcA+UCLOb2o/z773/nh1QI+Uw9U5Jw/aEE0+08ZmojT1z0g3IRJuLqmj8+PHSokVLk5vmmUv9zTffKmlQkrjMQ72RBpDxEMbdMccEjj0kB+dybclV7bRrG0CjYgzhOdPmm2++mt+mJ9CbZU86deoYuBGRf+rU77WHGR4MZiLqjTRkKobiISQZTZXkYwGrA2cRYtrUqVK6qCQs6xoB1/JlPTKFOC5ra7UFr7+EZ2fWPLMHr+WVZfL8i8+HxBmIevU0UdQ1g1966aV4u4e/eCzAqg1t27a1/UwDDeJtR4wwvdwegVC58vTTT9lxJqLBSFNXsOSZNgSsw2T1f6y0svy8d98zEdttzzJrppAdG3T3zbfeqvFkOZOQFqShJH755ZcxT0MXXa2qVR1HW221Vax0RoyeQejXpy9u0wiCfqajhm++/jojCQPSxtPYSpxqQ6VHqJ80YNTevXuHBBkIaA5p8qxDAPE1DvWUNDxdJoBQWDIHaeNpwvOqmFVjxKHuZyn5TAWa0DEIHQJMTQz6MsWyepQ805A2ngYDhiqIrUXYWAftmUw1LmCuDa/WuA6JVW0mVruNThpMaU0Y7ZbaAI3VUUocPWRUeMGCBSFhBgKiLFu2zKqhanKEagrNOZ+JBSItPA0G7dCpkxmQd6Vz2Wo8x6zWmalAL9Yrpm0WJQe7rVq1tqorS5p1AOTAwfAZHYSxF/djwOjM6M9kfPHFF6ZHtacJGDigvw2A1jZVJJ2RNp6GRwWUOu+GuqFfffVVi0ssrZkC1sxJfGDL/hZbhqGETERakAZsvfXWoX2jgaF2gHFZ1Yp2QSaCl+def2NS5Cl30AuusK5NpiItSIMXGTp0qHTo2EElCjOCMTNbCPPjjz/qXmaVSh68MgNx6vRpShqfiKbxum3ZoqXsOnJkLGXmIW08DSOmzMzzagmOsGX85qOPJpvBM8WdG+n1z49z58rMGTMkL796FiMPdVmCrUP79haXiUgL0mBIDLrt8BHB2jHwCgiv9197/fVhNl/1qbQFHrKsvMzmA1922WW27h+v5TIirO5GirsUSfdu3aQgg79IlxakgTBMgeDDXsYMJ0ds+8Ybb8qUT6dkBGkAL+8tXLRQbrvtNuWJVk0qOCPCfLuhdHGJjNx5l6BbhuiTiLQgjVdJfIeSuTOUyCpemq+ssEnZWnfJbbffpt4mfAACkqUrzKBKlMcffUwqVH7WzMlTcXt26y7z584znhxy2GFSVlmeac20ONKmTQNpGLPg9VUbu9AqyxrFZtgqueeeu5MOlKUjWBlrwhUTpKIsLDhZXFxk3wlfsXy5jDtwnLRtX2hL1mYq0oY0jr333lsbjvk2MqxM0hht7+h2wfyFcvbZv7JMSNcGsRN6woQJNpLN976ZYM5Hy5avWG76HHHkkdp7KtDykKFuRpFWpMHgTIXYZ9999QijhoBf4dnUp9qu4RuV6eppkItl3q697jobo2G1iLnz5snSZeGTiJsMHiw77LiDGZ0ykalI+fJpawJd7JLSxTJ8+LYyd+58zYhQent176Fd2B+lXbu28vrrr6XdPBtkXKCNX9Y0/uzzz208Bm7zWUTQWhv6zz3/rAwdyrcvM5gxirSrnph70q5NoS3sTFumIL+FNiK7yfwF8zQDymThwgVy5pln2ocx0sHjIAPDAWUa/vLXC+STz6ZYA7i8gtl61e+j7zpqpAwY2J9fhB9mMNLO04Q2S54sX7Zc9tprjPzwwyz5Ye4PtjhjWK4+vHy311572dfeIFljgnYMLwZefsUVctE/LrY4IzP/tePHGFRxUbG8/trL0rlLR8nPY028tCurdULatWkwMiWzZauWcumll8iceT/auAfvSDNwxsTzFZpJfGXlyKN+anNVqNJS7XUgCx6mvKJcLv7HP+Sfl/1TKm2YoMpew4He2g42fc47/8+2ViBeM9MJA9JKAx+vCaiULbYcJhdddKF6kzB7z87FyMHk8yeffNq+kMuX/1Pdo4I0vMj/l7/8RSZcOcFGfuNTOmOy8PekE0+QA/Y/ICZfamVsKKQ17WkwHnvMMbLP3vsE4tg/XsoLz3LIiMcefcyWr+dLLN7l9W19gWv59bg2gU8v07a69trrtPopsnM2qKQhV6tXZNtMG72//9250kobwU0JademSQSZtaJspRx22OHy4osvaIYRGzwS50I7p9K+s33xxRdrusNiVVwoD/XhgZwoDDpSHdLtP/LII2XJkiXSpUsXma29uoryULVyP8JGgzaUF55/Ttq1bRcu0jScjCEjKlgmZv/n+utlt9GjzcsEHnh1ZUmktLRUzhg/XkaN3k0ef/zxGosPRLE6D+Tn2EbTcR8a6G+88YYcevhhMvbAA2TpsmX2/YPw6k2QxX+zycYbyx133FGzkV77bTMOae9pomCS+UknnSTPPfe8zT8PpVerIv4SoRnH1NG83HzZbtvt5Bit2vigRtduofpwL+AhiihR8Cq+xZswe/DOO++UJ595WlYsZz3ePCNMyaJFsnz5snjRy8stkCFDBstdd94hfTL4fa01IaNI40uw//rXv7YnyH4cSBOIwPA8L6dxjldgWKJk9OhRNu7DV//5hCDpeD8ckjiB2PcX2NQm9uEv7nHPPfdYHDyCnhCmX79+MnPmDFm5YqXxtjKn0pZ1Gz5ihNyr6Vu3am0yNFVkFGncG7Bk7DPPPiOnnHqq9mCWaYYST8PZJzvhKTRC/wd/EtbLYfZ/hw4dbP1hyEM3mC+NQIp58+ZZL4weEY8CSpcuMU+jNNSL0FbRTVWudO/Z3WYSVmp1xU2ptiDNBdqLOvW002yKh6aO3bdpIqNI44A4ZNZX33xtXd7HHnsyZDBdXuonSxT+hMNQ3STCqygIF7xNSGfkjOc6HoNlVAuka5dimbdgrpTFxoV4ILnt9tvKuX88V7bZemsbdCQtP82SJs1gmar/mNwEeZ588ik577y/WJXCZ3Q8jVU9RohVVeS3TizLaNLGctpOea7rfm5evvTo3lPm/TjHZuRB0A20ijr55JPlZ9rGyitQD6c/4qEqlGnKhAEZSZpkKCkplddfe11+efYvZfq0aZKXH9oURrAYgRy2nIkxI6ThjIVImkAojcvNUcL0kJmzZmqXO0fatGknf/rTH+TQQw+V9u3bW1VJddec0GRIQ7uETCcTedeIr8Ddf//91lZJRDLS+DZKHAYXi7p00Ybxctlv7FjZZ58xsu2221q7yNPhdUK11HzQZEjj3sTIEDuGQK+99po888wztv7NjBkzrBELkSwt6Szv9Y8eMNmbXlXnTp2lV+8eMnz4cA3baLd9Fxs8dETvFSVZc0GTIU0iyFC8AG0eek6M5nKMRxo9erR88sknyhPN+Fh7h5YIva+PP/hIuvformn5tmO4Dg9MeTqdRUDwz00QeADI4u9Lx+N0f2V5hZJFVacrrSaw5quSI5/JUUoinnPxO3pMLOnKYGEW1WiypAGQJBrM42hgXCeWokYIJGMBItozjM1gnvDbLKrRpEmTFEoAqil1LHFACbwRc3p9lDmL2tH8SANyKkOI9avxKN26dbPpDlmsGc2TNMBcTZjO0Fm71T/Mmq37YbFsGr9Z1I5mRxqqIhZOyq3Sxq6SpG+v3rJwwQIlClVWeKcq24ZZPZqtp2ElB16Dmfr91NCOiXmYLGHWjGZHGohBo5f5MN9P+z60arSKql54KIs1oVmRxtsqNHrnzJ5jA3/2znjMuVQ/2c5idWh2pCHwJV5m+tEIhjhZ1A3NijTWXsGb5PIluyqrkmwQj4Yx57OdprVCsyMN/4q0PcMMuyhiNVcWa4FmRRoAceb/OFe6dukiLfjyLlNFGSHWkMXaodmRBtCOmfXDD9KtazerrpjFl20Erz2aHWm8B8X8Xmbj9ejZ04hjvags1gh7yyO23+zAQ0ueds/UnpTxKEYmJ1UWq6K8PHw+u1mRJkoI26dqoi0T8TSrpMliFTQ70jAFNCcvL8wTjsXzgh1NGrrfjOEwu685TZFYU+HAw4SPuIW0za56evnll2XmzJmh++1B/9F7gii8ljJlyhQjUHMAJCCgOyFxsJM4zmMnJ1eTnSMcBW9OMi7z3HPP2fvdVEllsbXwqsExhqmUAQMGyCOPPCq9e/aQPL6pHTNaUwRehBAmpoVFwH16LN6FfYjk59hvFsWJ+b5PP/20LR5QVlYhlasQBjgpcuS776bKmDFjrKrCWF7CmiLckwC2Th62rHqBx01coi7tSIOwHtYns1xxQJV0xhlnSunSZVKlRqiMvfOdDFZd5ebItGnfywEH7B//9HP0ek0F6IQnIbAfrYJ8C6nwRBQ8vIzZJx2qp6ignjFeHXjboq7VA9cqVyVfeeUVOezQQ6WivFIq9BrlLJ1vZaWy1mdNbrwcrao23XSI3HXXXbZYACWusReGrE+gY6LNvbCiJ1uI4lUUeUFodNJ4fepCen0aLdWuHOei5CFudWR6+dVXZNy4g6RKFWZ51nI0tTcMAiBFMvg1+S4DRuKTQs8++6ytMIGcq7tnpsFtSwBRkrjNPX9c75RXTwiCEAiF60MQF8gJA+KsjsWzD8G8Do6GKPzaL73yshx3/PGyvGylrNB2DE+1g8p4mBDWBN6Novnz6Wefyx577S3fT59h148SOtPh9vMtdsZ+2N31pGryvCCknDQuDEJClqgwwDPFAyAt5yEP+ygF/DdRcO6dd96Ro446WubM/VHTewaHtKub/uCGqwa/oaoS+yziySefYm8scN9V02Ye0IFAYUQnbBclTG1eNaXVEwLiKXxaAscIhdAMqOH+o0ABzrEYEeRyuKKUAAdxeJO33n5L9h87VlaUlxGpVRP3qH7DMhgE0q1qDNCiRYHKyCu5gSxcF7AlbvOhm9q74dzb5Y96yEwBsnvBRH7sCUlcXy/MnHe7OVLqaYLhI20KFYQRWuJ58R7hIYorw3kyh31IFVWA4AqyzzLzn33xuZx40s+MMJoiLKBoKaqhSZUYNckJiOf62223nb2eSzvIVruKIdwveBzeBWchATd8JgLZPUAYbI+NCW5X4OSJImWkQRAI4VUMAQEhBcG7drCdNAQEdqFJ454HEO8EgzBffvWljDtoXBjtNZ1jhInpS3qufc45v7UvvCUCO3H+8ssut49iMKhntooYELDA0ceTP5Fjjz1OZs+Zo9cPba2ooTMF2NULIvKjf+LktGRIKWkgggNhERIw8uiZGiWLH7ty7HMd9jnv+wz777nnnqH0ay/JMpA8JNdDzts1fvnLX8ppp56q101WnQT52rVpLddcc7Vsv/32apwY4+xiARXqvXgV/PU33pRTTzvdVv9ElkwkDjYBUXsTx/7qkFLSIJALag8OdZ94J4YDrwMZgCvBlji2eBj/3ffTp8nhRxwui0oXWzxpOWcZWKXX1MBrt3/605/kjNNPl9atWibtOZHc5NF9FgGYOHGirdYZDBjkdPIEmXLktddel0MOPdTWMCYOhHTpD+SF6HgWZDbdY1vXpTakhDQI4yQA7LuXYZ/MB179kFHEU335xzKcOK4cH7KYM2+uHH3ssTJj1ky9kGaWBh48mtJKFiNAfkv5zW9+Iyed+DNtN2mDOo/2kt6jxuKNmtLe7dbuuhKqZavWUtihvdxx152yx5576PViZDBjBlJwiKxvvfWWfZ+Bzw1y7FVmOgJbUiC9UJIH7JtuirUhDEiZpwGJAiG4E4SA8F4lsaUUsPVMIK0pqftz5s6Vv150kX04jCrD8p0TQX/L1Fb5LeTnJ50ov/nVr6R161Y2W89GGZLYhSiMQeASeKfCwvZy9dXXyA7b7yAt+CSyVX1cO3YToLusZH7eeefZg1GXNd2A3dzW5IMXUGyNPk6YaKgNKSVNMriAKINSwEurK+P7Hj9/wQL53bm/l5KSRaENo/GArFQHY2vQtCzIk/G/GC9/+fN5tjB0Hj0iPc/veWCpd7PfAMwTHb9xc+Xn50qXzh3ljtsnSv8B/UJvDIIqzKYaWrdpI+UaN/H2O+V49WYsmGSjz5oheMrGBnajKYBtCdjQ7epwr7+2aFTSoAQKEIDvk7GALcaPgsWhDz7kYPnhhx/sfL56gEA8qi81DDmpl/v5z38uZ40/08iCfZycai69R+xiCYA4UfJgHCZotS8slBeef1621+54MHiQrbBdobRs2cIaw9z0pZdfluOOO1ZlXGKZU9fMaAggL94ET4MtfXoDcJsQ6oKUkSYqWHTfCZNIoGgaKx26Xbyk1FYF5xuRZBjLyVOaqXKCm6UN00KOOvKn8odzz5U2bdtIDvNh7NdrNhJeigCiKUjftl1bufW2W2S7Hba3444dOxkp5s5l9dCQGk/04osvyx/+8Me4lzHPFisEjQW3qXsZ5Gbr3qeuSClpooRg34/ZkukEGmtRI1ta3S4qKZGLL7lEPvvqC/Uu2jVu186qJdoRZBoZxtdaDjn4ELniignhnSZNxxfp+EQz+Wr30/9cMwquz/RP7soW1EyhR3k50qVrsdx48w2y4YaD7Brz58dWCY3pQaZQFdxyyy0yfvz4eCPeS3aqgP3wKngX7o2MkCPafmHca10IA1JCGhfaqxoXmmP2URIFgTd+Uc4zo6y8TCZcdaVM1+71nB9mS6/evaSlkuLbr7/RjGH9YK2X1SAnaE/q4r/9zdo5XNczPlFJrssaNbXBfhc9rxFcjWZ0t65d5amnnpKuSiBWA3UZLQX3RBgNDz30kJxyyilWnaJ7VJ+GRpSk3NuP2ffgssZlrgNS5mkciQpAGIRmn3ME4jzMX7hALp8wQaZ9P83ejOSDqP369JUl2m74aPJky6ACrYL4sv55fzlfezztpKBVgeRrW8M8h90tIGog9yiJiJMp4TytpbDNkc4d28sD990rW20xTO/NcEFNQtCbK1PiPvjwI/KXCy6UJcvCIxBCQxPH78EWXSmMFET28TROmPVBykjjQkMKlOIYj0LwOOBkwgvRwPzXVVfZk+UlWmLfeuttKWxfKB06dJRvvpmqXqbMSv/Y/faTa9QTtdFutdljDfmyRqPx+2TX0DiXj0Udb7zxRunfv7/KHjsfQ7g+3dpKuebaa+XCC/9q+qCj69kQcMJwf4J78mXLlsVSBPnXFyn1NAgMSajrgRuQksA5FLR6WOOZYXfDTTfZiO/ixSXyyksvmRF69ewtUz79TD6bMsV6OvvuM1auvupq9S4tJa9AeyvaW0r0EnWBeSAPiBfLY9tErou8/fr1kccee1R69eplesEVzzACaRg5vu666+Xss882+UF9k4dr0fB20hC4vxdKZglQYImrD6S8ekJwFEhUEgMTn09bp6Jc/v3f/8rkKZ9oO2a6vPzSy7JsyVJbU+aLL7+0ebs8gR41cleZcMUVNqWCa8QzfB3gP4WI8Sotcj2yOFlV16NHd3n88Ue1cTwgdqYmGAZgKgZTRvnMkBOnPoHu/kAXJDZyXdb6QqORBu8CII63Y/hy/lztkfz1ogvloYcfkueefU7efONNWaqEMWLpb/1bS7uP3l0m3nqrdn07xg0S/VsX2C+UFWw9JII+3KrxoefUv/8GcvNNN0tfnp7bc61EL5Jjn2C+6uqr5ZJLLrV9G8VeT3BvD8Crebw19gyebv3bMIlIOWmAM9/dJySi3mWKw1lnnaXu/Dp57913bdVN1FWzaCnnr/aS1N1vO2K43HrrLWFyVr5WA96tTpKta4vEX0a9CkhOmlBN4Z0Gb7KxPKJEb6UN8LBsSTUpEI3PJRL+fsklcsmll+n+upEmShK2eC73XtgRwjQ5TxMFSqMMCua3KLD3kh565BErMWGENyhLZ5dvXRdoF3eXHXfSUn2jGkbraLo6q7E9ytVFQZNnHfLS5ezbt699JLWPbgP8YiHDSEN+T5hwhZx33vnx6mRtgXzumQFkcY/C1qp3LYTEO7G4Z32jUUmDorxmsli7z3yP8kEtqfkYoFyNQmlF79g3mZRCsvXWw+WWiROlqKhYSaaNZzVQ0uJfR9htuI6Gcq1ePKtrYs2mIoMGDRokt95yi2ywQX89rv6NE4uwfPkKufLKK+Vqra6iPZu1QbQKYgth2EIYAl4G4vi9GgKNShqUWrFiuZxxxhly3wMP2MoNVdqazauiI11T4Z/85Cfy2COPSoe27ex3ocpaA4wNYXf10Gup4du0a2c9ML7Isi6GsapKZeOrvLfecnONb0RF4Rn6xz/+Uf79739bnHuGNYGCRiA95IBE3NerKL+2h4ZAo5DGSwtKnf3Ls+XhBx+yRwJ8jZa4Kus2q2imdKUMHbqp3HjDjdqzymPoV+O5Sk2DoAihRiwHNZOtAgxO4GtxtEXig3vxPFxr5sWB+EM3HaIN+aelqHNHVSF5NcQrMn+96G9y1VXXaHsuTFtdHXkgBkQBEAc74l3Y9zhHQxEGpJw0GAXleEZz5pln2nevOeYb2iFvPKc16PHgwYPlzttvl569esQNYSU6lmp9wb35FiX3ZwYeGbG+13UibrzRRnLTTTdJ9+7dYmeqEXTB066UP/zpTzLxtol2vDp4QSNAHu4BvGry44ZGykiDwh6ox5l+ycw4xla8PQFLwntKYQicV2IffPBB6dOHr+mvWgJXb+LVI8Y/8zAczJs31455j7tufiU5nOAjRoyQ66+/3oYGgNugJqq01/hLG8vhdxA3GTjnv/U0xFkhit0vFUgpaXCvKHvRRRfJf/7zH1lZXiYrK7QHAFnQWbsuTHzC6fTr11vu5h3qoiIzCCXJWBKzzfqaCEPzQXcG3piqmRebl6N/LJg86wmux8DjrrvuKnfffbe0adPGCkUicXjcgMfD895xxx01zkVhNlC4PRKrI5M/BWhw0kQNgFKMiv7nhv9ZI7bK2jBqiFgPibR8V5uu6z133yM9u3cPv2cgLJkdk9t2rQBhMHxJyWLbajbGzqicsVBfQIfNN9/cpkzQ88MONe4Xy3AK1TnnnCP33XefxSeSx9N5QG7IT7rEtA2JlHgauodUSf/85z/l6uuulRXa5fQBURqejI3kVAYXu/HGm8gzTz4lgzbcUPK03mZmnrUsk+XiOuQsxoUw3AsPA2q8FOe2r8c84F5tWrWQ0aNGymWX/kM6FLaV/CSyc8v5C0vkxJNOtifkvEee6E0gCWRxwhDnIVVocNJAGAJjEhMmTLB9SBAWRlRFzduoIXS/X+8+8vDDD0mXLl2CYPWYcYAMgDSU6AULFkaMrtsoAxuAOIB7jR07Vm677TbL9EREM/+YY46VJ554Mn7siKbx/cQ0DY0GIQ0ZQwaROWwvv/xy+cell8rC0sWhraDnc7SCqtSqKFeLdkXZSm2QFsodt98hXYu72mMBzVHjVDQv1xduXORjN2wxOufsVHWj3EM9gntBVF79vfPOO+0dLL1jOGkIBHBvcv7559mSb7QDnfDpgAYhDYo7aa78178sMPuOVagsV2I5VKCNXnpKfXr3lMcff1w22XhjJZEajZZwAyAQJMcG3QhkjmVETB7nSOi/NQycFLvttptcfsUV2jhum0CGMMqLt/36629sjUDWxsGe6YJ6zx0MQIAwd2mP4W9/v1iWrViu1RIjlmRLII0/se7etas8qvX3kMGDw+/tb8OBTFuwYIG0atVaQ1gIgPnFEFUpZdWkk6ehACmopg8++GC54orLhTc63W5MIe3Tt4/MmTPH0ixbvtyqqkmTJtn5dCBPvZIGhZhghTtlVts5v/utkYdMEV5Uo1BryM/Jl/KVZdKhfQd103fJBv376/kce2gJoSBOQ5OH975btmwlbVq3ljy9J41h5CRjGhLuaWzimWp50IEHyB23TZS2rVtqoz9XevToYVNbkYO0jBQvV5sefezx8sFHk22BpsZGvZDGSwnggRlTG/6s9XHpklKrjZi2EK12eGRQrO73/nvvk02HDGmU0kOboaSkRNq0bWsvvJFB5mFMjYambDV5kIOq6uKLL7YppLNmzbRC5yAdpsU7jhs3Tt57770a9m4M1JunwaPgZR544AG54soJYVEhzQacPj1mSpWyRbvYVdKtW7H2kh6RbUYMl4KWLSykGhCVgMfh/SjIA8G1yZkCygQ4cQBtFwb38EAsc7IqqmyIYNyBB8qbb74Zl78xUC+ksRfW1ADMtmNRoaVLl0nHjp1V+YIaWZCvadq0aSW33HSzDN10UyvZnG+sMhNKcZW1H1q1biWtlDwVmhFUofVWmlYD7g/wNhDg6KOPliuv/JcRiXMeAKPGgDYObaEvvvjCjhsD62Ub3CgBpe/QLuQvzjrLphiULl1qA3hFnbtIgRInz0Z9w/Okm7StM1w9DM941Dp6lWCU1AOqhnkoYN68eTYTsGWLlvGMShW4H0ShQTx2333kwgsu0O64tnniI42Yyl/34U3TpXLguIPkS+1d8apMGfOPUoh1Jo3Xq1RJjzzyiPzhD3/QNswSJQ3jCSKlpUuszdC+XXubclBcVCz333efjNp1lLaJwzhMsswhxkNDAhlDIGP0biqLLRfC4GMjAFuwcAHE+dnPTpRfnX22vQAYHuAiY2gYu9wzZs6SUaNGyccfT7bfpxJ1Jo2TJShQJa+//rqcctppsqi0xLwMClEimCLFBKvly5ZKj+7dbUR4hx13tEcDq0MqCJMUKjgNdW9jpBpuT+7Pltd6WVcHa2BT4hy+v2hRiRxxxBEyY8YMO04V1ok0kIL5MLx6esyxx8rS5UtlpTaEHepItV1QaVM3GWu49JJLZI/Ru0sBbyAkbeQ1PkI2KOm12vSynWpQVRJoDBNOPfVU+etfL7AeaSBPdYENqLLVM/bdbz/b2vBGhFwNhbXOQRfGBX7xxRflN789RxaX8gI+Q2Ia6FKbp8+1RYBaqFe58X//kzF77RVKED+MK1wLSNQYOWYI3W6MsgYpGxwUTKZSnHba6XL66afH215uHPKhoEALoQr6/dSpNv3iq6++snMNjToVe3pJsNmWDNNe0hztrvJaBjBD635ulZYWVYiSwgPKsQfsL7n+5uPagGSNkWOaF9Z+8MfvjUbcAAqZVZWV5fLnP54rp558khbCXBaviAMvXoGH10I6Z85cOfSQw+Xrr7/VfAqTzhsKdSINbpI2zEEHHWSNXuOLeQ4NPK1mSwtf//3zkkvlEO0aRjoAq4BfpkOpXgUucyMTB5D5eB1mOrJQk7d9APv+xkPZyjL5ftr3tlRteO254ay61qRBQLrXDMRVKd1Z0JD1YKznbPLx/g1zV/NsSdUjf3qkjQTHHFHGwLIDmT00IrA51RKFlXD++efLcccdZ3ZmxmE1ecTGmViV6+STf26zBRuS8XX2NNsMH24vtHXv1t0Gwky4qgpt31bZ2AKN3oMOHGfzZXKYuolGGQRIjrkbzuR1A1WUk4fJ5DxuOOGEE/SYXmiQ1B/PXHft9XLE4UfEf9NQqBNpAMIM23xzee6ZZ6WoSxeTGyF5in3u738vR//0p3YcSx3b1gLPnXTJoRiQOl2oHs189iHOhRdeJEceeWQsViyOCfj77LuPVWWka8AmTd1JQyM3PyfPlopnsnS34mKpUML889JLbT28Fiy9ytNqReLFOa4R57mTLjmkWPW9p/QARKAwEli59O9/u1COOOxQaav2vunG/8mWWw7TcyItWxWoF6KtE/thA2C9vsJC650l5pkkRCOtNdMM4l3D9ES59jaYOffZF9HuKeMfldrjK5DJH31sT5vjpIm35NOD2bRj/Ck4208//VSGDh1qZOKYXmtDo14+3YMiBEpD1J2mI9ZEmo8+/lh691DSxJFepAFeBTnc9myrmwYNh3q5g7vOdCdMU4Hb2oMfp4IwIDV3ySCsblwpi4AsaRIQ95VZ8tSKLGmyqDOypEmALUig20wbyU4lsqRJAviS5UztyJImAek6uJdOyJImGbLEWS2ypEmA8cTrp2wdlRRZ0iQg3Z5ypyOypEmCrJNZPbKkSUC2IbxmZEmTDFnirBZZ0iSgxqd7snVUUmRJkwQ4mKyTqR1Z0sTArI58PpbKfixkkRxZ0hiq7ONk3Xt0r54akXU1tSJLGgUTs7sWF8uM6dNjMVmsDs2eNLyn1alTJ5k9e45Nl/T1crJPuWtHsyQN5ABMj+zRo6ctMcKkbI/PtmlWj2ZLGt6a4DUclulgojaNGNumybvc6YxmSRraMF26dJbp06fFXwfxSfGBQDFkiZMUzYo0eBhCsTZ6bdWrcr6V6ecCcRaVlIQIkK2jkqLZkQbPwgJAvEYcvEtgBruQ6L3337NFjWxkOIukaHbV09KlSy143VPd+M2xlbtu/N8NdpxF7Wh2pGEpVdotrDKFd2HZjhw1A9/P5KOrH7z/oXwy+VNbcDKL5Gh2pLnmmmtk9uzZ0rZtW/s2QiW9pZi3sVXVlUJPPP64rTAVRmyySESTIo23WViYgHe2HXgWAo3fJ5980tLNnTvXvoDCC/M5eblSXllhCzVVKFFefPkl+x0+KItV0aRIEyUKxPD2CoA0b7/9tqwoWxlfunbevPnSsWMHI09YxFbT6fbdd96NtXuySIYmQxonCJ7GX4Z34hCIe/qZZ4w8rJZOewZAnDIlUl5u9RIpS5YukYm3TsxWTrWgXpYaSQdADAgBaSAMK5EyiMfIL4Eqa5NNh9gHNAIbai8vrBq+Qf9+8ubrk2zJuCxqIuM8jXsUwD4kgSCQAtJAGLYsVoh3IVBtvfTSS/bhDKqmNTVV+HjFHG0s0wbKYlVkBGkgBV/b9Q+QQQoPAE/i1ZHHOblo5LJK+l333GMLGtJDWhP4bcnixfLqa6/Z9aJEzSLNSUOG4UEIUVJEA3Gch0yQx9szVE1hKbHwPc33GenV3hHp428crAHXXXuteSl+kyVONdLe00AC2hVODMt0JQX7BDLV2x2Qw4lDukCqSvn2229l6tSp9lUT70bn6HkWnexaVCxdOnXCvVh8gO7r8bvvvivff/99vJrLIiCtSeOZ5V7EARkgDiCeY4jj+/67QBqxlUeddHieEAJOPfUUGT58mxrVFr+BQqyTTFuoqSDRY1YXrOq4tUFGkAZCECAKxHDlfSVLJxZb9zQezzen7r3vvrBQtrZp8DRmIw1c7+ijjpY99tjT0ieCUWFWLvUqKtPgdiJADvTATrQR+YoOWydNNKwJGVE9ORHYevsGYAQnEm2YKNwAU6Z8GtLlUDXFFjTM0bTKq/4b9JcOHTrIvvvuG79mFKR94YUXYt8ayDygv5MEoCOBwmZf0dMepuuNXb1wrIk4aU0ahKckoDiBfTwOygEy1dOwnyw888yzljYAD8QnhFgaPl923mVnyS/IlaKizjJ69G56rqaxICOEueOOO2LGjJ3IAGATgA5ODi98wIkRJRLn3J5+PhnS3tM4QqYFhVCeLcriYRK9jIPSc/edd+qPURNjQRc1SE6V1lRV9o0BroEdDxx3oJ6PrM/LU++qHL1GhTz44MNSXqY9uZXVjynSEdiHwuUemODx2It4P49tvJ3nBMGO6E9a4mtD2pIGRVxJV54thAGUDI9PBpR/4403bMIV1wqGqS49mw3dTAZtuKF2w4NL3nrrn9i3NeFMCIE8GHLKp1O0TaSN8fzQnkpXRD1FIvCYnCdgQ+yHbk4g7MzvOE88+7XpmrakQRkUcNajaNQgboBEeBpVWR5+9FGp0OOQlrNqVP3HR0tG7rqzkkDjJQwM9u/fXwb038CeS1WTKzSw5y+Yb9/Ctpgk90wnoL8XLIAdsYePkHOeOEjEFt0hCfHoypZ0TiiOE5G2pAFuABQAXgICCZJnHr8JxMqRSW9OsprJ0ts/S6BVzcpAmrzgwnNzwz1+//vf25d9wxdq+R1XCcT9+8V/j103fUGmo6t7YDyIH0MAAvb03iiB81GysO82Bsl0TtsHliiMsmzJUPZRxJWpDSiJcWb+MEuGbbmFHjMCTFc7EKpMq5mOHQrli8+m2ESsHL4ZHsPylStk0KBBsnDRIi1N9LbCbzzw8ZDevaPfTUgv0EvyYQjgtouSiYAuDrcnnid6DnJxjmtErwnSxtMgLJntzHavgiK+XRNhUJev2a2sKJerrrlavUZ4ZBD9FVMgTjrpFGnXrn0NwgCotdGGg4wu6l8szoyt9RnyMM8mavB0g3sOAFG8SjcdYvbDxhCEACHc5k4uwG88cA3PE0fakAbBEJItyrigayJKImiz8P2pBx96yK7njOHFfkjRMr9Axh2wf4hMAOn33nvv8LsQYRueWVWUV8hTTz9lx/HzaQzsRoAIEIJ9bEqAXHgPCMF59OE88Zx3m/tv/NjR6KRBYATHtSIcJcCVcYHd26wJqIaXmPrdd7Jw3ny0tldR+GVVTO/27QttUC8RXJ/7HnbYYdZoZOqn/1YFkPKqCnn88celtLTUSmc6EQdZXCYnAMd+DhAXreo9DqJEiYMNPK2nSUSjk8YF5gNjLjQKo5grsDZVk4Nr8bwI8kEENxpgf+TOu0hh23Z6EIuMgPNdu3aVnXfeWXtRDAJWg7VrFi5YKI888kjc6OmGZDaKxrFPwC7Y3YnmNvc0UZslQ6Nqj3AEBMXToAgKeByBDKoLabjGf/7zn/g11AzhhAIijP/FL2IfbK0J0lIKuf/IkSPD7zWe6o6/XIr9R7UbvzZeL9WI2gfZV0dszqOne5nE30aRzO6NXmQQHsGB16leB3MumdC1AYU/+OADmc46M0l+t+HAgTJk8GDJL6jZAAbcx++Jp2Fr5IgZkQ3nP/roIzuui1wNDZc9CkjjBMC+TiT2qXr8HL+LFgK/TiJ5okg5aRAQV4jg3uB1onh7xr1LXYCSXIen0uyjvA23VMWMqTbYZpttJFfvY1hNng9WYjHYFz6UXu2u6Y0xvwZirs6ojQHTNyYT+04GCiJ2BeyTBtt6ek8bDfyOhjLnvUBHkVLSRA2NcJDHBeWce5h1AYrSeH3hpRe10cp4cKxawzDaiFVTyL777i05+XqvtbjFL8aP17/VmeDo1q2bTJgwwe4X1aexgYzIBJDLCx025ok2BdSrIoIXWPZJg+2dJK6XXyeqP0gpafzmCIKg9FLYejXkYV2AAWZMn2Gz7Rx4ijAlIk+6dOli1Q5YU1Yjz6hRu8Vf3cWGGLBLURfrPT333HNpOenc7YqsBPQAEAFSALexe3Q/R1xiQeDYyRdFSkiDIAjgCuEuXUgXNBmj6wJ+e9ONN0p5mbpTnh1oVcIjgUr1MmDcwYdI28J2pvCalEamos6dpXfPHnpQIQV5OdKrRzdZurRUlixZYpPcv/rqq7js6QJsSHCZsAmEII6OBvaHJJ4XBKosCEScw6um2pAS0rhrdIWcIFGl/NhDXYFRGEdZVdkce0K91157xY7XnMlcA8MdcMABJltRUZG9/w1hkI3z9957rxnd2wvpALcd8jmhOUYHhjQgCPZmi34EzpM3BMD56D7nE9GgpEHwKINRguBu0/edNOuDRYtL7HnTqg1cCFAgG2+8Uex4zUAeFUiOOvYY6dmnt5QsKVWPVd1OQKf77rvPSEQGpBOwIzZ14rh3J3DOA4iej+YDW9/3tFE0GGlcUAJAQHeNBISMepn1AXd44sknZfHSJfbsqQZyqmT77bfTBmxXu28SVq0CI0dujvTp21f6btBPli1frveo1gV5Fy5cJJMmTYqXynSBZ3SUBF4Vuf2958qxEySaD35cG+qNNFGCsEUgtgiCACgRMi0I5WnrC5dddpnk54UeQCIuvPBC267OEFGY4fUfz5xGjNhWdSknMm5UO6+N7GefeV71Ss/XdqN2p3CydfnZ9xB0qS5IicfJUK+kgRSQxV0eN4fRLogLD1BoTcKtDbjX5Mkfh3tr4FUUvx+hV88+svnmm0fq5+rqcnXAMPS79tpjj/jiAFXqfSxoj6xKL/XCKy9ZtZXuQG8nEMH3PQ+CXdYe9Uaa6I2dQAQEY8t5BK2vKglwH7Js0qQ3ZObMmdK9ezfJ0+s7uBeEWVcg41Zbbil9eveJxVSDgcPvvp0qkz/5ROWIRTYT1BtpHHgWQIZZpsZCFGRGfZCGp9C8q33/ww+p/6iSadOm2eAbS6LRM8ALHXjg2Fhqx9qrrFJaQ/f444+ztzPxYqZLDnejUJTLP/95qVVf7l2bA+q9esKbOFEITpCGMCiZOn3mDHnjzTdsiJ+Y2T/8oB6nh5G3Q2Gh7Lfvfut8b/wYK0jsOmqUTTqnKjKqa90EYZgWOmnS69ooXlhv3jMTUK/VE5kDcfAyjF94VcS2IQzKFR+4/wEpV4JUaluKY0r8nDmzpbt6nP32209at2xpadcF5WVM0ciRgQMG6HVaaUdMdQy00XgakSIlJYtsKTb0boiCkY6o1+oJYkASCINbp1FMnMfXN3G4GosqUnVATF7o5x6sBzxrxkwZw4Ce5uO63rfArpkr7dsVymGHHhq8Gf8tQCCRZcuWy2233RZ+0ExQrxPLKWkQBoJAGKqqhhj88hINGTZQLzBv3lw9oK+DtwuN7qrySvn444+ld6/ukq/tm/XFrFmzZNMhm9nE9FDW6IXhd3KkfWFbe6zAg8HmgHr3NDRAKfUYkG1DANJQDT3wwANaNfyoMYEwDqqUHXbZQfr06y259UTazp07y6CNBqqSkMW77XibKnuI+dZbb8Ximj7qlTQA4nh14Nv6Bu0HcMEFF+hfvweqUAVqF1+9zVm/OMvaIPUhASSlAIwYMSIWUw2cHu+Fv/rqq3EP2NRR76RJBaj2WKTo66+/VpL4c6wKLfPMSCuXos5dZMTw4fYmZfzzgtYCWTdAfjzbuHHjrP2kfSqNVeKq18nNVa9XsVIee+wxS9McGsQZSRoyxqddJoIM7j+gvxS2a1dNmPXMQ/c022+/vfToGV6Wo1rSE7bPucmTJ8snn3wS94JNGRlJGsZM7r73nqQz8MjHww47HPbYgJ9hPesoiOhDB3ibPN2PnTBCMSbE9tZbbw3xTRwZSZo5P/4oTz37zKpPtJUj7QrbyeFHHC5l5ZqR2iCuqCcNIQ5hjz324Cj8i8URAIsEZD1NmoHSTHj8icfDg1ENUXBupx12kLatWktBXv333CDH0E03DVVTnK/VxPn8889l8eLFJkdTRkaRhlJMY/OJx5+IDxwGhMcVKLP76N2tKrEQ8wj1CQb6jtTqz94R511xjXM5kK05VFEZtcw9JZgFBjffcguZ9cMPgQ6sCKE7FO6C/Fx5W6uIgf0HkJNhGoMmCSWDvfUjEPeHrHwzaqeddrJ9h3kXlaWwsFB7dV9Ky1br/vgi3ZExnoYsL6sol6eeedqWoI/Om4EMjAT/ZOutZQPtOUEWZt7xm/oGHmzAgAHSo0cPm79DY9sa5Nr1r9TuGqT+ePInSqim27bJKNJQmidceWX8aXP1GAyOJUdOOukkW/mKBnJDZJlXQxCHeTosigRMNtvLlZXlFbHR4dCzaorIGNIAFhv68ssvw4HmR/Ax4aBtm7ay1ZZbqYOhJVN9rr79DcSh63388cdrGyu0pYy8EFn3aSTffc896mnSe1HH9UFGkYaHgotLFtu+9WAUEAOabL7ZZtK7V2/dj5IGj+SkIWb9YSTRMHr0aOnTu7fkMxU09mndsOxalXz44Qfy6afM6KtfwqYLMoI0GJ9/YTUI5gHzgJLJXiGziouKZezY/a3aCJOxoqh/FSENPTnGbKKNYQcfHWNJEpO7CRInI0hDBjHR6TFW69Q8olqgXcPXbSEML8MdecQR1saIzQGPoX68SzJAnJ132SW0n/Q2UWrwVsQrr7zSJAkD0p40GJ4MeuXll+NzdfAmjMr00uph0aISGTp0qHTs2FHTxX6UAiALT70LWqw69QJCM5eHtz6bItKeNBCGKuCF556XnFxGeavUm+RIt+5dZc7c2fa4gJfh8DCQJlXEYb5Q167Fss+YvaWyXBu9eD73N7rP+9633HJLOG5iyJjqiQ9bkBlUOV26FMmCBQvsQSHjNQfsf4Clg2CcTwWQidHmk3/+8/jSb2HsSCXIDY3lq666yrwNaZsS0r960vD8iy/IjB9mGWe6d+8uS5aUyvLlyzQzKmSzzYfKoI0GWTWWKsI4IMZGG20k7dq18xgL9oF4BYsG+DL7TQlpTxpGXG+ZeCs5ZNUBbxosXbrMMoxJVkcccbhmSpgXnErY/TV06tTJFqzm7ngaB96FKaIffvhhljSpxorly23CVVFxUXyMJoptt93WtlYFpDBvnDS8ynLGGf8XSKvkwKA8xQB8nfdf//pXtnpKFWj8Er766mutilbIksWl9pF1nulYBil4ODhw4MB4BjYG8HJ77rmHFBd30f0K7X6rb1TW8DiDNxfeef89W6evKSFtSQMJcOt33HmHfQVlifZGaC8EcoT1VM4++2xrhDYmkIfXdFgEMgqGBlg4gEnnzz2rjfgmhLQkDbUMbZl5ixbIDTfcYG86EusehQyhy3vUUUfFjxuz3cC9d99993DAGJIem99TkcpXlsnzLzwv5eWqUSPKWJ9IW9Iw0vreBx/I8rKVqxib44EDBkqHwvZGGGAeqHFqKLs3y7PZN5U49n9VgeSvvzbJVs2ibdMUiJOWpMHw+do1euWll2VlbFQVYxMsU9Tuu+y0kwofWELGGGkaAdwX4hYXFwdvExGDczzDLFXC3HXXXU2mQZy2pGHq5FtvvikF+QVGjqry8GCQcxj/8MMP0/j0EZ821uGHHy55Km+FktqC+syqXBZFYBrozVlP09B4/fXX5f333pPevXppSWbVCW1Uqr3xMpsNHSpDBm8ar5rSAXiVzTbbzB6aJno9aMLaOaw9nOypeKYh7UhDScTL3HX3XbJixUqZPm2GLVTUIq8l5dYyhG8y5eSp98lLr1Lbs2dP2aBvP2sIQ3DA7A3khjCffvqpeaRMR9qRBsLwsO+dt99RA/OAMkdmzZot3Xp0l7yqPHvCvdtuu2lm8DpsepVaHwZI9DSA3uCEKyckPZdpSLu3ESANz2uGDdtC97VVgJE18A511y5FUqbe54OPP5A2bXlIqKyPvcudDsBLQvghQ4baA1WGhm0hRyycU2lrWzC63adPWMMvUwmUdp6GxuIll1xin//D2GQEq0DwRHvOj3PkjPFnSuvWrew5D//SCcjO/OFNNx1iXof2i/FFxfRXeflWuMVDpgxF2pGmpKREJk6cGDuqCQw/duzYWAm17LD4dICTgO3o3UYbgVj2hIY7pxjko+H+5JNPZqyHcaQdafjAV/z7kTHb2mx/de/FXYuka7eiWK8pvUSHCMjFI4UjjzzSpnzm6zEqwBHO4WGeeOIJe3U3k5E2lqeEEvjIF1ZOdN/0Rljqo8azJromaQQnDrMKdxm5S+he81ihMpwDS5cuTdtPGq4t0oI0EAQjLl+xQm69/TbzNFY8Y7DzWmZPOeW00PC1fmx6EcYBFaD7fgfsFwb2lDGVudWek3Dv/fetUigyCWlDGvDue+/KN998I1VMf9BjSmcovTmy8cYb2wRyJsWRGk5FeJVWKNMe4E+2+knyFpcK/+UXX+tOelWvdUF6kEaty2soNBJ5Q9LaLBGLQxy+Ckd7IZxSy3M+DUmDSPl5uTJoww1lwMCBkptPuyb8s8ceKvr0adNi38FUz5OB1VSjkwavgcvg88e+2KE9HY5XP1RdYUAvLzYljonb1RVBegHJIAg9vfFnjjcJGRHmhBFHCwWDln+76G/2FTwKRKZVVY0+uBeMKrJg4QIZ0H+AGpASWR1PFcQysyzKWNimrcZonFHdzrKTdsB7QIT5ixbKsC22kKWlpbbCRB7De9YmC2mmfPaJ9OjRzX7jDeVMQKN7GkyFEJddcqn2MvAwkAHolm6HepSjjv6ptGrd0sgSCAPS18hUrwzudWjfXvr27RMWrK7SLrfqVl5ZLuVV5dZAnjz5ozjBMgmNThrAmi7eDcV+zJpxM5IBhx50iPInswwLmNbB+97+vahE+Dc3M8nLgEYlDSTh8cCPP/5o7whV4VlUIh5GmiHV87QsaCUDBgy05zaxX0VCegOJjz/hhKSv7oI777wzI1/dbXTSUNIee/wxG6Oha0T1A3nsQZ9ip512lKLOnTSeE4neJr2Jg3Q9u/eQrbbYMkREgN5MAX3qqaeynqYuCD0Hkeuu+7c2FEMvia1FKqFoF/z2t7+1r8WFtgzGTQzpCxNZdRmtPb+AatLDE96ZeuqpZ4TXclA5U9o2jUoaMOWzz+Sbb7/TvdDtNqjt6J7269tXtthiWDU/jCPRA4tIa/DUe9ddd7W2GfI6MdjwQJOl1igsgTR2Ku3R6KR56ZWXtUfBvBmOYiTQngb2G7b5sJiRcfSNLuo6gYetwzbb3ObQUB1HayJ0Yyhh8seT7VzEEaU1GjUnyqsq5elnntbSyKipGlSNaIN62qbhQxV7jdkjRprMJIyDV1tOOflkrW55PyuQxdsxeNR/XPKPQJoIodIZ650b7m7xBdGCwj5xtYHfMbsN91yeuKihEqd1qzY2Fzi49cyFy7/HnnvEPiKmlqGXSIgZ7JWXX5GSJO+ppyvWK0d49L+4dLGcedYvtEH3pM2sowvJAzueJUXJ4D0l4DPXbrn5FlmxcoUNrbMUGiCeRYsOOvig+LovTQFMju/QoYPqs+q4zNJlS2X69Gm273YisF+utsSm2MwDU0r5dNHtt99ua+CYl0oh1vkxAoISpqmy222/vRGlW9euUlFWLl2Ki6RLUZGttUt3c9sRI6SrngNuMIyx595j5P0PP7Df8M4z4DSF87aJE2WvPfeKl9RMJ0+5NnbPPfcPcu11VyshyOQcya0MuvFsavz48fLnP//JjtDViQM5+FAHgQlqjGnNmDHDZjjS6xq04SCZ9MYkq/pShXUmDT9irdyPPvpYRo0OXUp6CsVKllmzfjBPo1pbQ5CMZzGiIUOGyCaDB8smm2wsXbXk/eykk2TRokV2Mf/YVzCayKefTJYe3XtYDEbMfNJUaKbPkC233MJsU2mrX+TF7dO5U2e54cb/yXfffWvr9U2ZMsUCn2/Gu6A/hbRI7ct6f1ad6e8KWrSQr778Ujp1VC8Wu1dDgsK+7p5GM5eScO+991rmQxDKD4p1LS4Os/E1Lkx4rAa1EFMhKV2MBnM2ECKQBgOOGLG1PPnEE3quuoua6aTRylqJIjbF41MlAxPnmTXE13jRsZVmfufOnbTAzTQbEBfVmX23BQspUSPNL1mkBKyUJx57XHbeaYcG7y5AGLAe9wkKTZr0hilE4BPHBXl5Mm/uvFoJA1hcEaNhHIhBaXNUKJHO//N59n4T8GtnMshsX8Z25MiRmEbhy2TTu4IwXazqAaQ328T0jm4JeB8KJx+rb6HendeXAXFOrIbEOpOG7jEz7F5/9VV7mEjGe+CiUSIAJwweysZhtIfElg9RVMWqJn7XvVt3GTZ0mJozKlpqG3r1DTI6X9tsBbl5svdeY3QLYRhWyJW22tjvWNhBZs+Zbe9/CyuYatCzHMQJk4jS0hKbl9OhfQetzj7SvFDPhftZB6yJaFSP7mWM0La3DkAZnp34Kk9eCjysAriit8utgiCh3ZIMQ7TNwww9/3B6UwE2CVVv6BRw3Ea74CzyOG/+PPNC2ISprWuLhfPnqndXD6aem6p+XQAJCPyekEg84iCNpwPrTBqAwp999pk9dDvnnHNk2LBhdlO/MYN3TBKvUmMRZd4HD0OVpHU5q3MGZgSD8av9DzzAHRDJYlgvMdMKFIhjjz3WOg1t27ZVDzPHbARZrEvNW6W8KIjBKDeaUd7G4TeA8Z4dd9xRLrroIvtK73//+1+7Ls/qkhbY1QAPQsMacrA1GWJeiykr3Jd90rkc6z1zzy8KuDA352v5M2fOlBnaqHv33ffkww8/si/JlpYusQ9Q0JPgN6He5pf8qZK2SsJPJk+WwsJ2Nl0yulpmUwE24tXcQw89VObNW2Aexv5pLtBttjUF8bKqe5cuXbQgDrXVKAi9e/e2QEMYkkAi92CgroQBTgxAnkA88/SxOK7JPnJzv3ohDeBCBBjKTe3C3EzP0b2k7i1bWSZffvmVfPD++/LBhx/YM5eZM2fI9BkzZUlpqaU9YP/95X833KBkCcI2RdJgm3nz5tmbFSxAqYpKYfv2tqQKX3UZuOEg2XKLYbLFFlvIBhtsoBkYvAtwUniBw95OGFBX0iALA4f8jmsB9pleyz3YxwlwD89Xy9v6IE1dQa1UURnqYIRjAOvpp5+Wfv36yZgxYywegYMnalrEwehk0B//+EdbuJoJ83gP7EBJZguiZGgoIAv3c4JwfzyKywK8WvI0VgU2BmmAC+z1pwtl69bp1lntRgaci4JzmUYqb2xSBSB7tIS7PqksLG5jZAJsnSTEQxKX1+VrFNK4kHEhYobyc9F4jyO9sz5et0bSZBpcfgf6RY9TpZff1wsvJGGfOI6dwOZhYjKlnDQYi8xn66UtCuJrg/+W30SZn8W6Aft5YUysGp04TpaonVNOGtwzAkaFQEAaZDTAoqRBCQLxznhXlG2U/VnUHW5fbOtenOCF0W2baOOUDoAgIHAhEM7reMYevPHlAkMKPAqk8jEEgGJOHEIWdYfbjuCeBvvSBXd4PiQipaRxNjsgDHDX6OcTheW8K+XE8+Ms1g1e6Nhia2yJ7b0jsjqkjDQuHN4jeoygkAcFIALHHkhLcOWIQzmOgZPGj7NYezgxsB02xrbEeeC4NqSMNC6c70MUBGPfPQlAYAgCIaIKeDzpnHDubbKkqTvcnlT/7uHJH+LXhJSQhkwluEC+j6DuQTiGAN7GYZ/6lbZM9Leci/6efbZZrBnY1p8zYUcKHfvYMjGsDimtnhIBMaLVDwHmE+gxUb9GPQtpKRXs89ss1h5uNwKFzAsotgbkwdoiZaRZE3shhhMIBVGK4N4EuEdykmWxZmArvAvAfhDFvYvb1psNa4tG9etRQkRBHOcABALEeUnx4yzWDLebexbvHbn3jtp0bdFopHFlokCRRDL4cWLauiranIENCdjXvbfbzwtnXZDS6qk2AhDvLXc8C8fs11YF+XmwLko3dWAf9yxuQ+xL+xB7Edh3m3tYW6TE4giEgCjixwhNXYsCKEZgn3Se1n/nCjnpnGT8pi7KNhdQ8KIFDnu57RzYbV1tl7Ji6oI7cZzx7i4BJYNjb8c4eTiPguxzDY4xCsdZ0tQEdsFGThpsSk8UuM3d3olEWlukjDQI6gNJCEtmQwrinSTsoyABQuCJ3NO4gqTBSxHH9bKkqQY2itoW4rDlBQDikoV1QcqfcruHIOMTme7Hroxv3Ri+TzxbCERo7sAW0W60exmOCW7v+rJVo0zCQgm8i3sN4ASJwslCeicIx8ANkkWwp5ODLd7F7QY8rr7s1SikcVD91KYQJQfFIZUbgTRR0jR3uE3cszAnyT048RQytm6r+rJZo5IGoKAHhytXX+60KcHthI0gi1f3tO8ohBwzgBcljqN+SCPy/5wwSPDhhEvUAAAAAElFTkSuQmCC;" parent="1" vertex="1">
          <mxGeometry x="685" y="1010" width="31.94" height="70" as="geometry" />
        </mxCell>
        <mxCell id="2kZgn2yWBnld6z_HZbz6-8" value="организатор" style="text;html=1;align=center;verticalAlign=middle;resizable=0;points=[];autosize=1;strokeColor=none;fillColor=none;" parent="1" vertex="1">
          <mxGeometry x="650" y="1078" width="90" height="30" as="geometry" />
        </mxCell>
        <mxCell id="2kZgn2yWBnld6z_HZbz6-9" value="" style="shape=image;verticalLabelPosition=bottom;labelBackgroundColor=default;verticalAlign=top;aspect=fixed;imageAspect=0;image=data:image/png,iVBORw0KGgoAAAANSUhEUgAAAI0AAAE1CAYAAADasGMJAAAAAXNSR0IArs4c6QAAAARnQU1BAACxjwv8YQUAAAAJcEhZcwAADsMAAA7DAcdvqGQAAFQ9SURBVHhe7Z0HgBXV1cfPNvpSd+lFQFQQRY2CXUQsWFCxG7sxtk+JMYlJTNEYjYlGxVhTrNh7771gryh2RZogdVnqtu/8zn3n7ezjLbCw+/a93feHuzNz576Zc87933PL3LmTs2zZsirJIos6IDe2zSKLtUaWNFnUGVnSZFFnZEmTRZ2RJU0WdUaWNFnUGVnSZFFnZDxpqqqqh5nYW9tBp3X9XRYiGT24R8YTKjXk5uZoxufoP1VH/+fk5Fga3yaioqJCf5OrSS2xxVVVVFp6D8ng94yC6zQnZPyIcHl5uWX60uXLpKSkRNoXFkqbVq0tI1eXmZAGss2eM0cWLy6RTp06SZdOnY0seXl5tZJm5cqVsmjRIttv1aqVhYKCAjtuLmgS1dM777wjW265pYwYMUIOPeQQWbJkiVRWVsZSrAp+Ayluv/122WGHHWSHHXeUkSNHyowZM+x8bYQBN998s2y33XYyfPhwOf/881fxOs0BGe1pKqhclBzbbrutfPb555bZuVpB7bP33nLTTTdJixYtYilrAjqVla2UDQcNkhL1GmYAzfydd9xJHnzwQcnPzyemBvBMH374oeyzzz7mafAwEJP7HHDAAbFUzQMZ7WnwBxWacXO0irGmSaX+0cx/7bXXZP78+SFRbVCCde7c2aqoHAsib7/9tlV3id7DPdPVV18ty5cvNzISB2m+/fbbWKrmg4wmDV4lV/P3ZyecKHmaqV4l4Qlefvlly9hk1QckKcjNk00GbSTtWreRPN13YuBRkgEyvfnmm/Frci9Id8YZZ8RSNB9kfJuGjD788MNtv2XLltbe2HfffeXuu++utV3jbRbaPvymXbt2FkeDtrYqbd68eTJz5sw4uXJycuW4Y4/X41iCZoSMJg0ZSA9pkLZNdtllF+sBkfELFy6USZMmibbXLE0iiMNzzJo1SxaVLJJlK1ZIlfJo4403tp5TIiDJE088YV4oEC6EsfvvL/l5q7Z/mjoyu02jGQhp2J588sm2JWO/+uorbeiWybRp05J6G9KtUKJ88803Uq7nl2l3HWrtsPNOoQufBI888oj9LpAwR3r26CmDNxkcPE0z8zYZRZpEr8ExAQIMHjxYFi9ebOMom266qey2227mcRJ/45g6dar1viACAYzZa0zSsZ2lS5fKu+++GzsK991pp52koEWB/lYjws+bDTKCNHgNqhrv2XjAi+BZyOiioiIZOHCg9YA++OADef/99+X++++33ycSB9/z5ddfxfYDcQq0mz14k01qkIbfcU8I5mM/wXNVyvY7bB9P09yQ1qQhgyAM3oOM9UxzwrAlHuLQFtl5552lb9++lsGzZ8+Wu+66R/eXxj1JFJxnPIZrkO00gNu0bWtpE4lA1eT3A/xu2LDNlGBKGqNg80LaexoykUyixEMOMg9wDKEInMdDENq0aSOlpUs0bZWULCqRS/5xqaWPAqWXLC61a9BtB1WVVXqtlXEiAq5Nr+nSSy+Nx3sPq1evXnacrDpr6khrjckUAkTxfT92kuBhnEgnnniiVSXebYZk33z7je0nwrrZOA68h4bl2i5aom2XRC9DYxryAO4H0XbffXerDl2eTAG6RfVj3z1oot6rQ0aQBk8CEcg0lPTgDwqJJ12fPn3koIMOinmfPOnUubMcc/Qxah1LVgPDhg2LX1MtJp07d5KOHTrUIALnaFTzmAIQX1xcHPc86Q4nA4EC5N6a6p7OA1v33h7WRq+0f/bkSrjiKMpzHwzgYypkpmW+AmPccMMN8tlnn8lpp/2fDBwwUHs5q4698DiAsRdGdPv07SPXX3e9bKINYa7pJOSeNMDZ5xkT1yR9z549jXCkdYKlI5wIFCJs5rZEZtfPgW05dp1Wp1dakwaFXRnAFu8CYVxpV869DnFuLD/26ioKyOdE4x7sE0jvhvNqifNRY3LttTFuYwKZgevocqIfiMpNnNvNdfKQDGlNGlcmShyAITwjCcAV9HRRhf06BOIxjhsTRH/jaZxAfp3ob6Lx6Qa3FVU6YJ8AnEjROO9EREGBwq5+jUSkLWlQCo/CFgVQ2DOSDIy2Z1YH8zeant9R1eA9qJrcW/mWgAvnevTAeCZFnF/fO9arv1vjAztF7eP2Qk+PA+jl8X4ctSXXgTTJCkfakobMjWaqE4dtooJRYAiQo+fLKyvkxzk/yqMPP2ztl++//95m9y1V0nD98nIteWivdsnNybUR3tatW2uDuKMUaSN69O6jZdy4A6X/wAE2BcMMXabddN0iRzKDNjbQy+XDFhyz78cEiATYogPkcHLxW9eL31K1J+qZ1qQBKONKEbwEYIQoiHfFP/roI3nksUflueefl88//1xWLF1m6cM19Jpqgyr+JEV4CEp3PC8vjMv07ddPdth5R9l/v/1l+DbbSMtYIzjd4AWMgA5OII6xD0iscpxEBHQiHb8huBeKeiiQtqRxgVECoZ3tvnVFUY4tVc57770nl2h3+Pnnn5NcNc5KiFepxogZEZdSpR7Ff8+V4spDJLYWHwxfVUEmaFSuejz1Wi0LWsimQ4bIub/7vT17KiwstOs4XLbGAm2RaLXktouSx+1l+uuxy0xa9zScC/YKhZeqOoq0IY0ribAuMMcEECVO1MVCLrrCxx57rHzPU22Nr6wK50ldGSNNIEwIOVUYpsLOc5VEp2O/tcurEfmtvenAIVVfjpInVGP//ve/ZdSoUXEvVlsbIFXwTAfYDVmIi5KDY2xmOmoc6V3uqF39N6SN2h6EO6QBXGACgkaZ7wJHFeIcT58ZN2He7tSp07TdEX5PDjOjTxPWUJBTToYoiIsGvWO4J/818IgBCWgn5SiBKH3cG6IeffTR8t1331n6qGEbG04aL3TsYxvsBglo9ONBsC9xwPc9Hb+J2t/R6J7GBcS1wnhntguPwATOYQCUIC3TOU899VSbH5yToyXdMlgpor8x7xAhht8jNzdPOnTqLN2Li6Vtu3ZavbS165ZpNbRMq7fSxYvtlZaFCxbYO1DAjS552rg06gSCu1zsMwnsrLPOkoMPPti8DgE5Uwl0JPh9GeTEjlFP4fOb2QduF7bYAbi+/A5S+e+jaFTSIDABOMsRkn1Xnq0bg3OU8iuuuEL+/ve/W5wpCWnUP5iHwM2ou8ililKvgJHoQkOwQw45xEZz/doAA3J9B8fMw2G6KCPL9Li4B/flnKf3hnSPHj2UuD9Y3FFHHWVyUYpT3VAOMiUnjQ9uQhpkc7sTSI9O6Mc5dCWerR8n6tKopEFJhGKLoAAl2Pd61onBvspqmf/UU0+ZUZQW9ltVQ7faLTdPgyFypJdm5i9//SubLtG/f/94hidDuEYgjIN97jt9+nSbUM7zJmYEmszl6mny86S4a1dZpARbplVVnt4TWbfR3tWNN95oz6jc6zQ0kMkD9zMZVXa3HeQhDg8NgbCvp4Ms5m116+cIkM0J5sRyNAppENbhQrrCrixCsgXE8YbB7373O7nvvvv0GLrodWJ/AyBNjmw0aCM54fjj5fDDDpM2he3sGolKg6gM0XPER4+jRnzsscfkmmuukfff/1A6FRXJvPnzZMXyFZKvVZf6Qy5kaXfWnhWN5O7du6eENCBqQ7Yce3y06uEcW6+m0Av7OLlIT+CY6okt14zaJOWkcaGAZ5ALRny0/uQ8Aa9yzjnnyK233mqN0UraG951poej21ZaBf3shBPkN7/+tbRqGUpIi1ahq8g9okrXBVwHGQBbSuRdd94tF1x0kcycNcvGbCromquHQzZ1eFZNbrXllnL//Q9Ihw7t1/nedQGyQQD30MjtdkVmtyvxbmfXzfUjjmsQzzX4rZMpipSSxgV0YXGXuECUgu0ISQCuHIFGJm2MNu3aqsdZHJTU/2QFv+vVq4fccsstMmTIEDOaX6O+EZXph9lz5Kijj5GPPvpQKsvLYKZ19a2HpczB94zYdoTcc/c92uhmRmB1e6Oh4OM0TlIyHFm5L2SI2hYbRj2Qk428APyGY9LxO78maFgtaoErAWG8dCQK5njooYfk3vvutfbLokUl0lXbEaFhp2k1c3Yduas8+vAjNrG8tmvUFzzTuUe3rsVy7913yk+PODyWGbBYtxAm5gWZp3zZ5ZdpGyjWA1MY4RsAnrnY04G8BCcIcnPMvh87YYhn3+Hn2BKiSImnQWgCDAfOdBcUZT3DXUDO8wbArruNsu4uYyUaae9u9+zZSxYsWCgjd9pZ/v2f66VjYXvJLUj+RLa+gVwO9laql/nV2WfLbbfdGUqpkoZGMVp42okTb5W9xuy5io71Dbcxwe8FOMYLYW+/v8sWJYznD8fR84lICWlokyAIAjibEQrhXUHOA1cUJXlT8o2339LMCee0Cae+lPkxBTJmzBi59uprrDvNO9yQxn+bKmA4pbGSpVzbXL+V//73v6KaaKwTQ88qgejmf/DeO/GM9MxrCDhpAPdxuwInQuK9SY+HomojTXQ/+nvHqjH1CG6KQAjp+2w59uBM92MEJt1VV18tb779tpo/xnp+p6U4X8mxxRZbWBeYoXwzTKRUpRLcUaXW3lOeXPjXC7Sq+qlHGplUXPOMM2ZMl9NPP72G+28oYA9sij2wI94P+5kNY/BjztvQhW79N4QouZOhwTyNCwXY+j7xCOWCEaKANAxCbTNiuEyfMVPtr70l/Q3tBHQo1G70E088LptsvInlD9fR/AmZ1UjwDJk5Y5bsvsfuMn36DNOL51xGIPWE7dq2luefe0422mijeCFpSLhMUdsD7u3HLoPZUOHH/HZ18tWbp+FGHkCisDCZc+YZNHi6ZLjwwgvtPWvIwDXU/BobSMg4CYTRC9h1GpswAAMTirsWaTf7Pq0yWwe5FCaeyserv7/+za9DpGJ1+tcHXCYIge0JXlD9mH2zYQKIXx3qlTROFNojAIHwHE4YtsS5sMmEY9ie1aaMLNZNDUanPTNCvc9uo0ZVexhg5xofXiBYRIBVLHK18V5Z6dUR3fEqmfT6JGvcu61SBezsNne7E7Bh9HhtUW+k8ZuGzK5umyAYW4Rj39meCC95PIhkFQdsas93dMt6Mh3aFcpVV15pr8+GB5LVSAfSoBM60G455zfnSPdu3bWQ1BwUW1m2Uu69915LU5dMSjfUG2mAlyC27gmicQBjeXB4Gl5Yu+qaq0ODN4d+iP6zMY8c2X///a0UF2hG2ABa5Br1qsR6gB5Hbn6edC7uLKf83ylaUNT7KOtzmLtDD091YZCSaRVuj0xEvZMGjwLIUPcwxEdJkgg3IA8Gv/zqK/NS+gv1MoQg5HHHHKsJLZmB3fQ0O24/X8but1+wQUR3towvPfTgw+ZJMxX1Rhr3JmQ4xok+7/A+f63Q9BVVlfKs9i7oolo7RUunFk/tgVTJNsO3kc2HDdOEeo3auZcWQDxC7169ZNxBB9kBugVQhYk8+NBDgUjpyfo1ot5Ig0fxdot7GAjkcA+UCLOb2o/z773/nh1QI+Uw9U5Jw/aEE0+08ZmojT1z0g3IRJuLqmj8+PHSokVLk5vmmUv9zTffKmlQkrjMQ72RBpDxEMbdMccEjj0kB+dybclV7bRrG0CjYgzhOdPmm2++mt+mJ9CbZU86deoYuBGRf+rU77WHGR4MZiLqjTRkKobiISQZTZXkYwGrA2cRYtrUqVK6qCQs6xoB1/JlPTKFOC5ra7UFr7+EZ2fWPLMHr+WVZfL8i8+HxBmIevU0UdQ1g1966aV4u4e/eCzAqg1t27a1/UwDDeJtR4wwvdwegVC58vTTT9lxJqLBSFNXsOSZNgSsw2T1f6y0svy8d98zEdttzzJrppAdG3T3zbfeqvFkOZOQFqShJH755ZcxT0MXXa2qVR1HW221Vax0RoyeQejXpy9u0wiCfqajhm++/jojCQPSxtPYSpxqQ6VHqJ80YNTevXuHBBkIaA5p8qxDAPE1DvWUNDxdJoBQWDIHaeNpwvOqmFVjxKHuZyn5TAWa0DEIHQJMTQz6MsWyepQ805A2ngYDhiqIrUXYWAftmUw1LmCuDa/WuA6JVW0mVruNThpMaU0Y7ZbaAI3VUUocPWRUeMGCBSFhBgKiLFu2zKqhanKEagrNOZ+JBSItPA0G7dCpkxmQd6Vz2Wo8x6zWmalAL9Yrpm0WJQe7rVq1tqorS5p1AOTAwfAZHYSxF/djwOjM6M9kfPHFF6ZHtacJGDigvw2A1jZVJJ2RNp6GRwWUOu+GuqFfffVVi0ssrZkC1sxJfGDL/hZbhqGETERakAZsvfXWoX2jgaF2gHFZ1Yp2QSaCl+def2NS5Cl30AuusK5NpiItSIMXGTp0qHTo2EElCjOCMTNbCPPjjz/qXmaVSh68MgNx6vRpShqfiKbxum3ZoqXsOnJkLGXmIW08DSOmzMzzagmOsGX85qOPJpvBM8WdG+n1z49z58rMGTMkL796FiMPdVmCrUP79haXiUgL0mBIDLrt8BHB2jHwCgiv9197/fVhNl/1qbQFHrKsvMzmA1922WW27h+v5TIirO5GirsUSfdu3aQgg79IlxakgTBMgeDDXsYMJ0ds+8Ybb8qUT6dkBGkAL+8tXLRQbrvtNuWJVk0qOCPCfLuhdHGJjNx5l6BbhuiTiLQgjVdJfIeSuTOUyCpemq+ssEnZWnfJbbffpt4mfAACkqUrzKBKlMcffUwqVH7WzMlTcXt26y7z584znhxy2GFSVlmeac20ONKmTQNpGLPg9VUbu9AqyxrFZtgqueeeu5MOlKUjWBlrwhUTpKIsLDhZXFxk3wlfsXy5jDtwnLRtX2hL1mYq0oY0jr333lsbjvk2MqxM0hht7+h2wfyFcvbZv7JMSNcGsRN6woQJNpLN976ZYM5Hy5avWG76HHHkkdp7KtDykKFuRpFWpMHgTIXYZ9999QijhoBf4dnUp9qu4RuV6eppkItl3q697jobo2G1iLnz5snSZeGTiJsMHiw77LiDGZ0ykalI+fJpawJd7JLSxTJ8+LYyd+58zYhQent176Fd2B+lXbu28vrrr6XdPBtkXKCNX9Y0/uzzz208Bm7zWUTQWhv6zz3/rAwdyrcvM5gxirSrnph70q5NoS3sTFumIL+FNiK7yfwF8zQDymThwgVy5pln2ocx0sHjIAPDAWUa/vLXC+STz6ZYA7i8gtl61e+j7zpqpAwY2J9fhB9mMNLO04Q2S54sX7Zc9tprjPzwwyz5Ye4PtjhjWK4+vHy311572dfeIFljgnYMLwZefsUVctE/LrY4IzP/tePHGFRxUbG8/trL0rlLR8nPY028tCurdULatWkwMiWzZauWcumll8iceT/auAfvSDNwxsTzFZpJfGXlyKN+anNVqNJS7XUgCx6mvKJcLv7HP+Sfl/1TKm2YoMpew4He2g42fc47/8+2ViBeM9MJA9JKAx+vCaiULbYcJhdddKF6kzB7z87FyMHk8yeffNq+kMuX/1Pdo4I0vMj/l7/8RSZcOcFGfuNTOmOy8PekE0+QA/Y/ICZfamVsKKQ17WkwHnvMMbLP3vsE4tg/XsoLz3LIiMcefcyWr+dLLN7l9W19gWv59bg2gU8v07a69trrtPopsnM2qKQhV6tXZNtMG72//9250kobwU0JademSQSZtaJspRx22OHy4osvaIYRGzwS50I7p9K+s33xxRdrusNiVVwoD/XhgZwoDDpSHdLtP/LII2XJkiXSpUsXma29uoryULVyP8JGgzaUF55/Ttq1bRcu0jScjCEjKlgmZv/n+utlt9GjzcsEHnh1ZUmktLRUzhg/XkaN3k0ef/zxGosPRLE6D+Tn2EbTcR8a6G+88YYcevhhMvbAA2TpsmX2/YPw6k2QxX+zycYbyx133FGzkV77bTMOae9pomCS+UknnSTPPfe8zT8PpVerIv4SoRnH1NG83HzZbtvt5Bit2vigRtduofpwL+AhiihR8Cq+xZswe/DOO++UJ595WlYsZz3ePCNMyaJFsnz5snjRy8stkCFDBstdd94hfTL4fa01IaNI40uw//rXv7YnyH4cSBOIwPA8L6dxjldgWKJk9OhRNu7DV//5hCDpeD8ckjiB2PcX2NQm9uEv7nHPPfdYHDyCnhCmX79+MnPmDFm5YqXxtjKn0pZ1Gz5ihNyr6Vu3am0yNFVkFGncG7Bk7DPPPiOnnHqq9mCWaYYST8PZJzvhKTRC/wd/EtbLYfZ/hw4dbP1hyEM3mC+NQIp58+ZZL4weEY8CSpcuMU+jNNSL0FbRTVWudO/Z3WYSVmp1xU2ptiDNBdqLOvW002yKh6aO3bdpIqNI44A4ZNZX33xtXd7HHnsyZDBdXuonSxT+hMNQ3STCqygIF7xNSGfkjOc6HoNlVAuka5dimbdgrpTFxoV4ILnt9tvKuX88V7bZemsbdCQtP82SJs1gmar/mNwEeZ588ik577y/WJXCZ3Q8jVU9RohVVeS3TizLaNLGctpOea7rfm5evvTo3lPm/TjHZuRB0A20ijr55JPlZ9rGyitQD6c/4qEqlGnKhAEZSZpkKCkplddfe11+efYvZfq0aZKXH9oURrAYgRy2nIkxI6ThjIVImkAojcvNUcL0kJmzZmqXO0fatGknf/rTH+TQQw+V9u3bW1VJddec0GRIQ7uETCcTedeIr8Ddf//91lZJRDLS+DZKHAYXi7p00Ybxctlv7FjZZ58xsu2221q7yNPhdUK11HzQZEjj3sTIEDuGQK+99po888wztv7NjBkzrBELkSwt6Szv9Y8eMNmbXlXnTp2lV+8eMnz4cA3baLd9Fxs8dETvFSVZc0GTIU0iyFC8AG0eek6M5nKMRxo9erR88sknyhPN+Fh7h5YIva+PP/hIuvformn5tmO4Dg9MeTqdRUDwz00QeADI4u9Lx+N0f2V5hZJFVacrrSaw5quSI5/JUUoinnPxO3pMLOnKYGEW1WiypAGQJBrM42hgXCeWokYIJGMBItozjM1gnvDbLKrRpEmTFEoAqil1LHFACbwRc3p9lDmL2tH8SANyKkOI9avxKN26dbPpDlmsGc2TNMBcTZjO0Fm71T/Mmq37YbFsGr9Z1I5mRxqqIhZOyq3Sxq6SpG+v3rJwwQIlClVWeKcq24ZZPZqtp2ElB16Dmfr91NCOiXmYLGHWjGZHGohBo5f5MN9P+z60arSKql54KIs1oVmRxtsqNHrnzJ5jA3/2znjMuVQ/2c5idWh2pCHwJV5m+tEIhjhZ1A3NijTWXsGb5PIluyqrkmwQj4Yx57OdprVCsyMN/4q0PcMMuyhiNVcWa4FmRRoAceb/OFe6dukiLfjyLlNFGSHWkMXaodmRBtCOmfXDD9KtazerrpjFl20Erz2aHWm8B8X8Xmbj9ejZ04hjvags1gh7yyO23+zAQ0ueds/UnpTxKEYmJ1UWq6K8PHw+u1mRJkoI26dqoi0T8TSrpMliFTQ70jAFNCcvL8wTjsXzgh1NGrrfjOEwu685TZFYU+HAw4SPuIW0za56evnll2XmzJmh++1B/9F7gii8ljJlyhQjUHMAJCCgOyFxsJM4zmMnJ1eTnSMcBW9OMi7z3HPP2fvdVEllsbXwqsExhqmUAQMGyCOPPCq9e/aQPL6pHTNaUwRehBAmpoVFwH16LN6FfYjk59hvFsWJ+b5PP/20LR5QVlYhlasQBjgpcuS776bKmDFjrKrCWF7CmiLckwC2Th62rHqBx01coi7tSIOwHtYns1xxQJV0xhlnSunSZVKlRqiMvfOdDFZd5ebItGnfywEH7B//9HP0ek0F6IQnIbAfrYJ8C6nwRBQ8vIzZJx2qp6ignjFeHXjboq7VA9cqVyVfeeUVOezQQ6WivFIq9BrlLJ1vZaWy1mdNbrwcrao23XSI3HXXXbZYACWusReGrE+gY6LNvbCiJ1uI4lUUeUFodNJ4fepCen0aLdWuHOei5CFudWR6+dVXZNy4g6RKFWZ51nI0tTcMAiBFMvg1+S4DRuKTQs8++6ytMIGcq7tnpsFtSwBRkrjNPX9c75RXTwiCEAiF60MQF8gJA+KsjsWzD8G8Do6GKPzaL73yshx3/PGyvGylrNB2DE+1g8p4mBDWBN6Novnz6Wefyx577S3fT59h148SOtPh9vMtdsZ+2N31pGryvCCknDQuDEJClqgwwDPFAyAt5yEP+ygF/DdRcO6dd96Ro446WubM/VHTewaHtKub/uCGqwa/oaoS+yziySefYm8scN9V02Ye0IFAYUQnbBclTG1eNaXVEwLiKXxaAscIhdAMqOH+o0ABzrEYEeRyuKKUAAdxeJO33n5L9h87VlaUlxGpVRP3qH7DMhgE0q1qDNCiRYHKyCu5gSxcF7AlbvOhm9q74dzb5Y96yEwBsnvBRH7sCUlcXy/MnHe7OVLqaYLhI20KFYQRWuJ58R7hIYorw3kyh31IFVWA4AqyzzLzn33xuZx40s+MMJoiLKBoKaqhSZUYNckJiOf62223nb2eSzvIVruKIdwveBzeBWchATd8JgLZPUAYbI+NCW5X4OSJImWkQRAI4VUMAQEhBcG7drCdNAQEdqFJ454HEO8EgzBffvWljDtoXBjtNZ1jhInpS3qufc45v7UvvCUCO3H+8ssut49iMKhntooYELDA0ceTP5Fjjz1OZs+Zo9cPba2ooTMF2NULIvKjf+LktGRIKWkgggNhERIw8uiZGiWLH7ty7HMd9jnv+wz777nnnqH0ay/JMpA8JNdDzts1fvnLX8ppp56q101WnQT52rVpLddcc7Vsv/32apwY4+xiARXqvXgV/PU33pRTTzvdVv9ElkwkDjYBUXsTx/7qkFLSIJALag8OdZ94J4YDrwMZgCvBlji2eBj/3ffTp8nhRxwui0oXWzxpOWcZWKXX1MBrt3/605/kjNNPl9atWibtOZHc5NF9FgGYOHGirdYZDBjkdPIEmXLktddel0MOPdTWMCYOhHTpD+SF6HgWZDbdY1vXpTakhDQI4yQA7LuXYZ/MB179kFHEU335xzKcOK4cH7KYM2+uHH3ssTJj1ky9kGaWBh48mtJKFiNAfkv5zW9+Iyed+DNtN2mDOo/2kt6jxuKNmtLe7dbuuhKqZavWUtihvdxx152yx5576PViZDBjBlJwiKxvvfWWfZ+Bzw1y7FVmOgJbUiC9UJIH7JtuirUhDEiZpwGJAiG4E4SA8F4lsaUUsPVMIK0pqftz5s6Vv150kX04jCrD8p0TQX/L1Fb5LeTnJ50ov/nVr6R161Y2W89GGZLYhSiMQeASeKfCwvZy9dXXyA7b7yAt+CSyVX1cO3YToLusZH7eeefZg1GXNd2A3dzW5IMXUGyNPk6YaKgNKSVNMriAKINSwEurK+P7Hj9/wQL53bm/l5KSRaENo/GArFQHY2vQtCzIk/G/GC9/+fN5tjB0Hj0iPc/veWCpd7PfAMwTHb9xc+Xn50qXzh3ljtsnSv8B/UJvDIIqzKYaWrdpI+UaN/H2O+V49WYsmGSjz5oheMrGBnajKYBtCdjQ7epwr7+2aFTSoAQKEIDvk7GALcaPgsWhDz7kYPnhhx/sfL56gEA8qi81DDmpl/v5z38uZ40/08iCfZycai69R+xiCYA4UfJgHCZotS8slBeef1621+54MHiQrbBdobRs2cIaw9z0pZdfluOOO1ZlXGKZU9fMaAggL94ET4MtfXoDcJsQ6oKUkSYqWHTfCZNIoGgaKx26Xbyk1FYF5xuRZBjLyVOaqXKCm6UN00KOOvKn8odzz5U2bdtIDvNh7NdrNhJeigCiKUjftl1bufW2W2S7Hba3444dOxkp5s5l9dCQGk/04osvyx/+8Me4lzHPFisEjQW3qXsZ5Gbr3qeuSClpooRg34/ZkukEGmtRI1ta3S4qKZGLL7lEPvvqC/Uu2jVu186qJdoRZBoZxtdaDjn4ELniignhnSZNxxfp+EQz+Wr30/9cMwquz/RP7soW1EyhR3k50qVrsdx48w2y4YaD7Brz58dWCY3pQaZQFdxyyy0yfvz4eCPeS3aqgP3wKngX7o2MkCPafmHca10IA1JCGhfaqxoXmmP2URIFgTd+Uc4zo6y8TCZcdaVM1+71nB9mS6/evaSlkuLbr7/RjGH9YK2X1SAnaE/q4r/9zdo5XNczPlFJrssaNbXBfhc9rxFcjWZ0t65d5amnnpKuSiBWA3UZLQX3RBgNDz30kJxyyilWnaJ7VJ+GRpSk3NuP2ffgssZlrgNS5mkciQpAGIRmn3ME4jzMX7hALp8wQaZ9P83ejOSDqP369JUl2m74aPJky6ACrYL4sv55fzlfezztpKBVgeRrW8M8h90tIGog9yiJiJMp4TytpbDNkc4d28sD990rW20xTO/NcEFNQtCbK1PiPvjwI/KXCy6UJcvCIxBCQxPH78EWXSmMFET28TROmPVBykjjQkMKlOIYj0LwOOBkwgvRwPzXVVfZk+UlWmLfeuttKWxfKB06dJRvvpmqXqbMSv/Y/faTa9QTtdFutdljDfmyRqPx+2TX0DiXj0Udb7zxRunfv7/KHjsfQ7g+3dpKuebaa+XCC/9q+qCj69kQcMJwf4J78mXLlsVSBPnXFyn1NAgMSajrgRuQksA5FLR6WOOZYXfDTTfZiO/ixSXyyksvmRF69ewtUz79TD6bMsV6OvvuM1auvupq9S4tJa9AeyvaW0r0EnWBeSAPiBfLY9tErou8/fr1kccee1R69eplesEVzzACaRg5vu666+Xss882+UF9k4dr0fB20hC4vxdKZglQYImrD6S8ekJwFEhUEgMTn09bp6Jc/v3f/8rkKZ9oO2a6vPzSy7JsyVJbU+aLL7+0ebs8gR41cleZcMUVNqWCa8QzfB3gP4WI8Sotcj2yOFlV16NHd3n88Ue1cTwgdqYmGAZgKgZTRvnMkBOnPoHu/kAXJDZyXdb6QqORBu8CII63Y/hy/lztkfz1ogvloYcfkueefU7efONNWaqEMWLpb/1bS7uP3l0m3nqrdn07xg0S/VsX2C+UFWw9JII+3KrxoefUv/8GcvNNN0tfnp7bc61EL5Jjn2C+6uqr5ZJLLrV9G8VeT3BvD8Crebw19gyebv3bMIlIOWmAM9/dJySi3mWKw1lnnaXu/Dp57913bdVN1FWzaCnnr/aS1N1vO2K43HrrLWFyVr5WA96tTpKta4vEX0a9CkhOmlBN4Z0Gb7KxPKJEb6UN8LBsSTUpEI3PJRL+fsklcsmll+n+upEmShK2eC73XtgRwjQ5TxMFSqMMCua3KLD3kh565BErMWGENyhLZ5dvXRdoF3eXHXfSUn2jGkbraLo6q7E9ytVFQZNnHfLS5ezbt699JLWPbgP8YiHDSEN+T5hwhZx33vnx6mRtgXzumQFkcY/C1qp3LYTEO7G4Z32jUUmDorxmsli7z3yP8kEtqfkYoFyNQmlF79g3mZRCsvXWw+WWiROlqKhYSaaNZzVQ0uJfR9htuI6Gcq1ePKtrYs2mIoMGDRokt95yi2ywQX89rv6NE4uwfPkKufLKK+Vqra6iPZu1QbQKYgth2EIYAl4G4vi9GgKNShqUWrFiuZxxxhly3wMP2MoNVdqazauiI11T4Z/85Cfy2COPSoe27ex3ocpaA4wNYXf10Gup4du0a2c9ML7Isi6GsapKZeOrvLfecnONb0RF4Rn6xz/+Uf79739bnHuGNYGCRiA95IBE3NerKL+2h4ZAo5DGSwtKnf3Ls+XhBx+yRwJ8jZa4Kus2q2imdKUMHbqp3HjDjdqzymPoV+O5Sk2DoAihRiwHNZOtAgxO4GtxtEXig3vxPFxr5sWB+EM3HaIN+aelqHNHVSF5NcQrMn+96G9y1VXXaHsuTFtdHXkgBkQBEAc74l3Y9zhHQxEGpJw0GAXleEZz5pln2nevOeYb2iFvPKc16PHgwYPlzttvl569esQNYSU6lmp9wb35FiX3ZwYeGbG+13UibrzRRnLTTTdJ9+7dYmeqEXTB066UP/zpTzLxtol2vDp4QSNAHu4BvGry44ZGykiDwh6ox5l+ycw4xla8PQFLwntKYQicV2IffPBB6dOHr+mvWgJXb+LVI8Y/8zAczJs31455j7tufiU5nOAjRoyQ66+/3oYGgNugJqq01/hLG8vhdxA3GTjnv/U0xFkhit0vFUgpaXCvKHvRRRfJf/7zH1lZXiYrK7QHAFnQWbsuTHzC6fTr11vu5h3qoiIzCCXJWBKzzfqaCEPzQXcG3piqmRebl6N/LJg86wmux8DjrrvuKnfffbe0adPGCkUicXjcgMfD895xxx01zkVhNlC4PRKrI5M/BWhw0kQNgFKMiv7nhv9ZI7bK2jBqiFgPibR8V5uu6z133yM9u3cPv2cgLJkdk9t2rQBhMHxJyWLbajbGzqicsVBfQIfNN9/cpkzQ88MONe4Xy3AK1TnnnCP33XefxSeSx9N5QG7IT7rEtA2JlHgauodUSf/85z/l6uuulRXa5fQBURqejI3kVAYXu/HGm8gzTz4lgzbcUPK03mZmnrUsk+XiOuQsxoUw3AsPA2q8FOe2r8c84F5tWrWQ0aNGymWX/kM6FLaV/CSyc8v5C0vkxJNOtifkvEee6E0gCWRxwhDnIVVocNJAGAJjEhMmTLB9SBAWRlRFzduoIXS/X+8+8vDDD0mXLl2CYPWYcYAMgDSU6AULFkaMrtsoAxuAOIB7jR07Vm677TbL9EREM/+YY46VJ554Mn7siKbx/cQ0DY0GIQ0ZQwaROWwvv/xy+cell8rC0sWhraDnc7SCqtSqKFeLdkXZSm2QFsodt98hXYu72mMBzVHjVDQv1xduXORjN2wxOufsVHWj3EM9gntBVF79vfPOO+0dLL1jOGkIBHBvcv7559mSb7QDnfDpgAYhDYo7aa78178sMPuOVagsV2I5VKCNXnpKfXr3lMcff1w22XhjJZEajZZwAyAQJMcG3QhkjmVETB7nSOi/NQycFLvttptcfsUV2jhum0CGMMqLt/36629sjUDWxsGe6YJ6zx0MQIAwd2mP4W9/v1iWrViu1RIjlmRLII0/se7etas8qvX3kMGDw+/tb8OBTFuwYIG0atVaQ1gIgPnFEFUpZdWkk6ehACmopg8++GC54orLhTc63W5MIe3Tt4/MmTPH0ixbvtyqqkmTJtn5dCBPvZIGhZhghTtlVts5v/utkYdMEV5Uo1BryM/Jl/KVZdKhfQd103fJBv376/kce2gJoSBOQ5OH975btmwlbVq3ljy9J41h5CRjGhLuaWzimWp50IEHyB23TZS2rVtqoz9XevToYVNbkYO0jBQvV5sefezx8sFHk22BpsZGvZDGSwnggRlTG/6s9XHpklKrjZi2EK12eGRQrO73/nvvk02HDGmU0kOboaSkRNq0bWsvvJFB5mFMjYambDV5kIOq6uKLL7YppLNmzbRC5yAdpsU7jhs3Tt57770a9m4M1JunwaPgZR544AG54soJYVEhzQacPj1mSpWyRbvYVdKtW7H2kh6RbUYMl4KWLSykGhCVgMfh/SjIA8G1yZkCygQ4cQBtFwb38EAsc7IqqmyIYNyBB8qbb74Zl78xUC+ksRfW1ADMtmNRoaVLl0nHjp1V+YIaWZCvadq0aSW33HSzDN10UyvZnG+sMhNKcZW1H1q1biWtlDwVmhFUofVWmlYD7g/wNhDg6KOPliuv/JcRiXMeAKPGgDYObaEvvvjCjhsD62Ub3CgBpe/QLuQvzjrLphiULl1qA3hFnbtIgRInz0Z9w/Okm7StM1w9DM941Dp6lWCU1AOqhnkoYN68eTYTsGWLlvGMShW4H0ShQTx2333kwgsu0O64tnniI42Yyl/34U3TpXLguIPkS+1d8apMGfOPUoh1Jo3Xq1RJjzzyiPzhD3/QNswSJQ3jCSKlpUuszdC+XXubclBcVCz333efjNp1lLaJwzhMsswhxkNDAhlDIGP0biqLLRfC4GMjAFuwcAHE+dnPTpRfnX22vQAYHuAiY2gYu9wzZs6SUaNGyccfT7bfpxJ1Jo2TJShQJa+//rqcctppsqi0xLwMClEimCLFBKvly5ZKj+7dbUR4hx13tEcDq0MqCJMUKjgNdW9jpBpuT+7Pltd6WVcHa2BT4hy+v2hRiRxxxBEyY8YMO04V1ok0kIL5MLx6esyxx8rS5UtlpTaEHepItV1QaVM3GWu49JJLZI/Ru0sBbyAkbeQ1PkI2KOm12vSynWpQVRJoDBNOPfVU+etfL7AeaSBPdYENqLLVM/bdbz/b2vBGhFwNhbXOQRfGBX7xxRflN789RxaX8gI+Q2Ia6FKbp8+1RYBaqFe58X//kzF77RVKED+MK1wLSNQYOWYI3W6MsgYpGxwUTKZSnHba6XL66afH215uHPKhoEALoQr6/dSpNv3iq6++snMNjToVe3pJsNmWDNNe0hztrvJaBjBD635ulZYWVYiSwgPKsQfsL7n+5uPagGSNkWOaF9Z+8MfvjUbcAAqZVZWV5fLnP54rp558khbCXBaviAMvXoGH10I6Z85cOfSQw+Xrr7/VfAqTzhsKdSINbpI2zEEHHWSNXuOLeQ4NPK1mSwtf//3zkkvlEO0aRjoAq4BfpkOpXgUucyMTB5D5eB1mOrJQk7d9APv+xkPZyjL5ftr3tlRteO254ay61qRBQLrXDMRVKd1Z0JD1YKznbPLx/g1zV/NsSdUjf3qkjQTHHFHGwLIDmT00IrA51RKFlXD++efLcccdZ3ZmxmE1ecTGmViV6+STf26zBRuS8XX2NNsMH24vtHXv1t0Gwky4qgpt31bZ2AKN3oMOHGfzZXKYuolGGQRIjrkbzuR1A1WUk4fJ5DxuOOGEE/SYXmiQ1B/PXHft9XLE4UfEf9NQqBNpAMIM23xzee6ZZ6WoSxeTGyF5in3u738vR//0p3YcSx3b1gLPnXTJoRiQOl2oHs189iHOhRdeJEceeWQsViyOCfj77LuPVWWka8AmTd1JQyM3PyfPlopnsnS34mKpUML889JLbT28Fiy9ytNqReLFOa4R57mTLjmkWPW9p/QARKAwEli59O9/u1COOOxQaav2vunG/8mWWw7TcyItWxWoF6KtE/thA2C9vsJC650l5pkkRCOtNdMM4l3D9ES59jaYOffZF9HuKeMfldrjK5DJH31sT5vjpIm35NOD2bRj/Ck4208//VSGDh1qZOKYXmtDo14+3YMiBEpD1J2mI9ZEmo8+/lh691DSxJFepAFeBTnc9myrmwYNh3q5g7vOdCdMU4Hb2oMfp4IwIDV3ySCsblwpi4AsaRIQ95VZ8tSKLGmyqDOypEmALUig20wbyU4lsqRJAviS5UztyJImAek6uJdOyJImGbLEWS2ypEmA8cTrp2wdlRRZ0iQg3Z5ypyOypEmCrJNZPbKkSUC2IbxmZEmTDFnirBZZ0iSgxqd7snVUUmRJkwQ4mKyTqR1Z0sTArI58PpbKfixkkRxZ0hiq7ONk3Xt0r54akXU1tSJLGgUTs7sWF8uM6dNjMVmsDs2eNLyn1alTJ5k9e45Nl/T1crJPuWtHsyQN5ABMj+zRo6ctMcKkbI/PtmlWj2ZLGt6a4DUclulgojaNGNumybvc6YxmSRraMF26dJbp06fFXwfxSfGBQDFkiZMUzYo0eBhCsTZ6bdWrcr6V6ecCcRaVlIQIkK2jkqLZkQbPwgJAvEYcvEtgBruQ6L3337NFjWxkOIukaHbV09KlSy143VPd+M2xlbtu/N8NdpxF7Wh2pGEpVdotrDKFd2HZjhw1A9/P5KOrH7z/oXwy+VNbcDKL5Gh2pLnmmmtk9uzZ0rZtW/s2QiW9pZi3sVXVlUJPPP64rTAVRmyySESTIo23WViYgHe2HXgWAo3fJ5980tLNnTvXvoDCC/M5eblSXllhCzVVKFFefPkl+x0+KItV0aRIEyUKxPD2CoA0b7/9tqwoWxlfunbevPnSsWMHI09YxFbT6fbdd96NtXuySIYmQxonCJ7GX4Z34hCIe/qZZ4w8rJZOewZAnDIlUl5u9RIpS5YukYm3TsxWTrWgXpYaSQdADAgBaSAMK5EyiMfIL4Eqa5NNh9gHNAIbai8vrBq+Qf9+8ubrk2zJuCxqIuM8jXsUwD4kgSCQAtJAGLYsVoh3IVBtvfTSS/bhDKqmNTVV+HjFHG0s0wbKYlVkBGkgBV/b9Q+QQQoPAE/i1ZHHOblo5LJK+l333GMLGtJDWhP4bcnixfLqa6/Z9aJEzSLNSUOG4UEIUVJEA3Gch0yQx9szVE1hKbHwPc33GenV3hHp428crAHXXXuteSl+kyVONdLe00AC2hVODMt0JQX7BDLV2x2Qw4lDukCqSvn2229l6tSp9lUT70bn6HkWnexaVCxdOnXCvVh8gO7r8bvvvivff/99vJrLIiCtSeOZ5V7EARkgDiCeY4jj+/67QBqxlUeddHieEAJOPfUUGT58mxrVFr+BQqyTTFuoqSDRY1YXrOq4tUFGkAZCECAKxHDlfSVLJxZb9zQezzen7r3vvrBQtrZp8DRmIw1c7+ijjpY99tjT0ieCUWFWLvUqKtPgdiJADvTATrQR+YoOWydNNKwJGVE9ORHYevsGYAQnEm2YKNwAU6Z8GtLlUDXFFjTM0bTKq/4b9JcOHTrIvvvuG79mFKR94YUXYt8ayDygv5MEoCOBwmZf0dMepuuNXb1wrIk4aU0ahKckoDiBfTwOygEy1dOwnyw888yzljYAD8QnhFgaPl923mVnyS/IlaKizjJ69G56rqaxICOEueOOO2LGjJ3IAGATgA5ODi98wIkRJRLn3J5+PhnS3tM4QqYFhVCeLcriYRK9jIPSc/edd+qPURNjQRc1SE6V1lRV9o0BroEdDxx3oJ6PrM/LU++qHL1GhTz44MNSXqY9uZXVjynSEdiHwuUemODx2It4P49tvJ3nBMGO6E9a4mtD2pIGRVxJV54thAGUDI9PBpR/4403bMIV1wqGqS49mw3dTAZtuKF2w4NL3nrrn9i3NeFMCIE8GHLKp1O0TaSN8fzQnkpXRD1FIvCYnCdgQ+yHbk4g7MzvOE88+7XpmrakQRkUcNajaNQgboBEeBpVWR5+9FGp0OOQlrNqVP3HR0tG7rqzkkDjJQwM9u/fXwb038CeS1WTKzSw5y+Yb9/Ctpgk90wnoL8XLIAdsYePkHOeOEjEFt0hCfHoypZ0TiiOE5G2pAFuABQAXgICCZJnHr8JxMqRSW9OsprJ0ts/S6BVzcpAmrzgwnNzwz1+//vf25d9wxdq+R1XCcT9+8V/j103fUGmo6t7YDyIH0MAAvb03iiB81GysO82Bsl0TtsHliiMsmzJUPZRxJWpDSiJcWb+MEuGbbmFHjMCTFc7EKpMq5mOHQrli8+m2ESsHL4ZHsPylStk0KBBsnDRIi1N9LbCbzzw8ZDevaPfTUgv0EvyYQjgtouSiYAuDrcnnid6DnJxjmtErwnSxtMgLJntzHavgiK+XRNhUJev2a2sKJerrrlavUZ4ZBD9FVMgTjrpFGnXrn0NwgCotdGGg4wu6l8szoyt9RnyMM8mavB0g3sOAFG8SjcdYvbDxhCEACHc5k4uwG88cA3PE0fakAbBEJItyrigayJKImiz8P2pBx96yK7njOHFfkjRMr9Axh2wf4hMAOn33nvv8LsQYRueWVWUV8hTTz9lx/HzaQzsRoAIEIJ9bEqAXHgPCMF59OE88Zx3m/tv/NjR6KRBYATHtSIcJcCVcYHd26wJqIaXmPrdd7Jw3ny0tldR+GVVTO/27QttUC8RXJ/7HnbYYdZoZOqn/1YFkPKqCnn88celtLTUSmc6EQdZXCYnAMd+DhAXreo9DqJEiYMNPK2nSUSjk8YF5gNjLjQKo5grsDZVk4Nr8bwI8kEENxpgf+TOu0hh23Z6EIuMgPNdu3aVnXfeWXtRDAJWg7VrFi5YKI888kjc6OmGZDaKxrFPwC7Y3YnmNvc0UZslQ6Nqj3AEBMXToAgKeByBDKoLabjGf/7zn/g11AzhhAIijP/FL2IfbK0J0lIKuf/IkSPD7zWe6o6/XIr9R7UbvzZeL9WI2gfZV0dszqOne5nE30aRzO6NXmQQHsGB16leB3MumdC1AYU/+OADmc46M0l+t+HAgTJk8GDJL6jZAAbcx++Jp2Fr5IgZkQ3nP/roIzuui1wNDZc9CkjjBMC+TiT2qXr8HL+LFgK/TiJ5okg5aRAQV4jg3uB1onh7xr1LXYCSXIen0uyjvA23VMWMqTbYZpttJFfvY1hNng9WYjHYFz6UXu2u6Y0xvwZirs6ojQHTNyYT+04GCiJ2BeyTBtt6ek8bDfyOhjLnvUBHkVLSRA2NcJDHBeWce5h1AYrSeH3hpRe10cp4cKxawzDaiFVTyL777i05+XqvtbjFL8aP17/VmeDo1q2bTJgwwe4X1aexgYzIBJDLCx025ok2BdSrIoIXWPZJg+2dJK6XXyeqP0gpafzmCIKg9FLYejXkYV2AAWZMn2Gz7Rx4ijAlIk+6dOli1Q5YU1Yjz6hRu8Vf3cWGGLBLURfrPT333HNpOenc7YqsBPQAEAFSALexe3Q/R1xiQeDYyRdFSkiDIAjgCuEuXUgXNBmj6wJ+e9ONN0p5mbpTnh1oVcIjgUr1MmDcwYdI28J2pvCalEamos6dpXfPHnpQIQV5OdKrRzdZurRUlixZYpPcv/rqq7js6QJsSHCZsAmEII6OBvaHJJ4XBKosCEScw6um2pAS0rhrdIWcIFGl/NhDXYFRGEdZVdkce0K91157xY7XnMlcA8MdcMABJltRUZG9/w1hkI3z9957rxnd2wvpALcd8jmhOUYHhjQgCPZmi34EzpM3BMD56D7nE9GgpEHwKINRguBu0/edNOuDRYtL7HnTqg1cCFAgG2+8Uex4zUAeFUiOOvYY6dmnt5QsKVWPVd1OQKf77rvPSEQGpBOwIzZ14rh3J3DOA4iej+YDW9/3tFE0GGlcUAJAQHeNBISMepn1AXd44sknZfHSJfbsqQZyqmT77bfTBmxXu28SVq0CI0dujvTp21f6btBPli1frveo1gV5Fy5cJJMmTYqXynSBZ3SUBF4Vuf2958qxEySaD35cG+qNNFGCsEUgtgiCACgRMi0I5WnrC5dddpnk54UeQCIuvPBC267OEFGY4fUfz5xGjNhWdSknMm5UO6+N7GefeV71Ss/XdqN2p3CydfnZ9xB0qS5IicfJUK+kgRSQxV0eN4fRLogLD1BoTcKtDbjX5Mkfh3tr4FUUvx+hV88+svnmm0fq5+rqcnXAMPS79tpjj/jiAFXqfSxoj6xKL/XCKy9ZtZXuQG8nEMH3PQ+CXdYe9Uaa6I2dQAQEY8t5BK2vKglwH7Js0qQ3ZObMmdK9ezfJ0+s7uBeEWVcg41Zbbil9eveJxVSDgcPvvp0qkz/5ROWIRTYT1BtpHHgWQIZZpsZCFGRGfZCGp9C8q33/ww+p/6iSadOm2eAbS6LRM8ALHXjg2Fhqx9qrrFJaQ/f444+ztzPxYqZLDnejUJTLP/95qVVf7l2bA+q9esKbOFEITpCGMCiZOn3mDHnjzTdsiJ+Y2T/8oB6nh5G3Q2Gh7Lfvfut8b/wYK0jsOmqUTTqnKjKqa90EYZgWOmnS69ooXlhv3jMTUK/VE5kDcfAyjF94VcS2IQzKFR+4/wEpV4JUaluKY0r8nDmzpbt6nP32209at2xpadcF5WVM0ciRgQMG6HVaaUdMdQy00XgakSIlJYtsKTb0boiCkY6o1+oJYkASCINbp1FMnMfXN3G4GosqUnVATF7o5x6sBzxrxkwZw4Ce5uO63rfArpkr7dsVymGHHhq8Gf8tQCCRZcuWy2233RZ+0ExQrxPLKWkQBoJAGKqqhhj88hINGTZQLzBv3lw9oK+DtwuN7qrySvn444+ld6/ukq/tm/XFrFmzZNMhm9nE9FDW6IXhd3KkfWFbe6zAg8HmgHr3NDRAKfUYkG1DANJQDT3wwANaNfyoMYEwDqqUHXbZQfr06y259UTazp07y6CNBqqSkMW77XibKnuI+dZbb8Ximj7qlTQA4nh14Nv6Bu0HcMEFF+hfvweqUAVqF1+9zVm/OMvaIPUhASSlAIwYMSIWUw2cHu+Fv/rqq3EP2NRR76RJBaj2WKTo66+/VpL4c6wKLfPMSCuXos5dZMTw4fYmZfzzgtYCWTdAfjzbuHHjrP2kfSqNVeKq18nNVa9XsVIee+wxS9McGsQZSRoyxqddJoIM7j+gvxS2a1dNmPXMQ/c022+/vfToGV6Wo1rSE7bPucmTJ8snn3wS94JNGRlJGsZM7r73nqQz8MjHww47HPbYgJ9hPesoiOhDB3ibPN2PnTBCMSbE9tZbbw3xTRwZSZo5P/4oTz37zKpPtJUj7QrbyeFHHC5l5ZqR2iCuqCcNIQ5hjz324Cj8i8URAIsEZD1NmoHSTHj8icfDg1ENUXBupx12kLatWktBXv333CDH0E03DVVTnK/VxPn8889l8eLFJkdTRkaRhlJMY/OJx5+IDxwGhMcVKLP76N2tKrEQ8wj1CQb6jtTqz94R511xjXM5kK05VFEZtcw9JZgFBjffcguZ9cMPgQ6sCKE7FO6C/Fx5W6uIgf0HkJNhGoMmCSWDvfUjEPeHrHwzaqeddrJ9h3kXlaWwsFB7dV9Ky1br/vgi3ZExnoYsL6sol6eeedqWoI/Om4EMjAT/ZOutZQPtOUEWZt7xm/oGHmzAgAHSo0cPm79DY9sa5Nr1r9TuGqT+ePInSqim27bJKNJQmidceWX8aXP1GAyOJUdOOukkW/mKBnJDZJlXQxCHeTosigRMNtvLlZXlFbHR4dCzaorIGNIAFhv68ssvw4HmR/Ax4aBtm7ay1ZZbqYOhJVN9rr79DcSh63388cdrGyu0pYy8EFn3aSTffc896mnSe1HH9UFGkYaHgotLFtu+9WAUEAOabL7ZZtK7V2/dj5IGj+SkIWb9YSTRMHr0aOnTu7fkMxU09mndsOxalXz44Qfy6afM6KtfwqYLMoI0GJ9/YTUI5gHzgJLJXiGziouKZezY/a3aCJOxoqh/FSENPTnGbKKNYQcfHWNJEpO7CRInI0hDBjHR6TFW69Q8olqgXcPXbSEML8MdecQR1saIzQGPoX68SzJAnJ132SW0n/Q2UWrwVsQrr7zSJAkD0p40GJ4MeuXll+NzdfAmjMr00uph0aISGTp0qHTs2FHTxX6UAiALT70LWqw69QJCM5eHtz6bItKeNBCGKuCF556XnFxGeavUm+RIt+5dZc7c2fa4gJfh8DCQJlXEYb5Q167Fss+YvaWyXBu9eD73N7rP+9633HJLOG5iyJjqiQ9bkBlUOV26FMmCBQvsQSHjNQfsf4Clg2CcTwWQidHmk3/+8/jSb2HsSCXIDY3lq666yrwNaZsS0r960vD8iy/IjB9mGWe6d+8uS5aUyvLlyzQzKmSzzYfKoI0GWTWWKsI4IMZGG20k7dq18xgL9oF4BYsG+DL7TQlpTxpGXG+ZeCs5ZNUBbxosXbrMMoxJVkcccbhmSpgXnErY/TV06tTJFqzm7ngaB96FKaIffvhhljSpxorly23CVVFxUXyMJoptt93WtlYFpDBvnDS8ynLGGf8XSKvkwKA8xQB8nfdf//pXtnpKFWj8Er766mutilbIksWl9pF1nulYBil4ODhw4MB4BjYG8HJ77rmHFBd30f0K7X6rb1TW8DiDNxfeef89W6evKSFtSQMJcOt33HmHfQVlifZGaC8EcoT1VM4++2xrhDYmkIfXdFgEMgqGBlg4gEnnzz2rjfgmhLQkDbUMbZl5ixbIDTfcYG86EusehQyhy3vUUUfFjxuz3cC9d99993DAGJIem99TkcpXlsnzLzwv5eWqUSPKWJ9IW9Iw0vreBx/I8rKVqxib44EDBkqHwvZGGGAeqHFqKLs3y7PZN5U49n9VgeSvvzbJVs2ibdMUiJOWpMHw+do1euWll2VlbFQVYxMsU9Tuu+y0kwofWELGGGkaAdwX4hYXFwdvExGDczzDLFXC3HXXXU2mQZy2pGHq5FtvvikF+QVGjqry8GCQcxj/8MMP0/j0EZ821uGHHy55Km+FktqC+syqXBZFYBrozVlP09B4/fXX5f333pPevXppSWbVCW1Uqr3xMpsNHSpDBm8ar5rSAXiVzTbbzB6aJno9aMLaOaw9nOypeKYh7UhDScTL3HX3XbJixUqZPm2GLVTUIq8l5dYyhG8y5eSp98lLr1Lbs2dP2aBvP2sIQ3DA7A3khjCffvqpeaRMR9qRBsLwsO+dt99RA/OAMkdmzZot3Xp0l7yqPHvCvdtuu2lm8DpsepVaHwZI9DSA3uCEKyckPZdpSLu3ESANz2uGDdtC97VVgJE18A511y5FUqbe54OPP5A2bXlIqKyPvcudDsBLQvghQ4baA1WGhm0hRyycU2lrWzC63adPWMMvUwmUdp6GxuIll1xin//D2GQEq0DwRHvOj3PkjPFnSuvWrew5D//SCcjO/OFNNx1iXof2i/FFxfRXeflWuMVDpgxF2pGmpKREJk6cGDuqCQw/duzYWAm17LD4dICTgO3o3UYbgVj2hIY7pxjko+H+5JNPZqyHcaQdafjAV/z7kTHb2mx/de/FXYuka7eiWK8pvUSHCMjFI4UjjzzSpnzm6zEqwBHO4WGeeOIJe3U3k5E2lqeEEvjIF1ZOdN/0Rljqo8azJromaQQnDrMKdxm5S+he81ihMpwDS5cuTdtPGq4t0oI0EAQjLl+xQm69/TbzNFY8Y7DzWmZPOeW00PC1fmx6EcYBFaD7fgfsFwb2lDGVudWek3Dv/fetUigyCWlDGvDue+/KN998I1VMf9BjSmcovTmy8cYb2wRyJsWRGk5FeJVWKNMe4E+2+knyFpcK/+UXX+tOelWvdUF6kEaty2soNBJ5Q9LaLBGLQxy+Ckd7IZxSy3M+DUmDSPl5uTJoww1lwMCBkptPuyb8s8ceKvr0adNi38FUz5OB1VSjkwavgcvg88e+2KE9HY5XP1RdYUAvLzYljonb1RVBegHJIAg9vfFnjjcJGRHmhBFHCwWDln+76G/2FTwKRKZVVY0+uBeMKrJg4QIZ0H+AGpASWR1PFcQysyzKWNimrcZonFHdzrKTdsB7QIT5ixbKsC22kKWlpbbCRB7De9YmC2mmfPaJ9OjRzX7jDeVMQKN7GkyFEJddcqn2MvAwkAHolm6HepSjjv6ptGrd0sgSCAPS18hUrwzudWjfXvr27RMWrK7SLrfqVl5ZLuVV5dZAnjz5ozjBMgmNThrAmi7eDcV+zJpxM5IBhx50iPInswwLmNbB+97+vahE+Dc3M8nLgEYlDSTh8cCPP/5o7whV4VlUIh5GmiHV87QsaCUDBgy05zaxX0VCegOJjz/hhKSv7oI777wzI1/dbXTSUNIee/wxG6Oha0T1A3nsQZ9ip512lKLOnTSeE4neJr2Jg3Q9u/eQrbbYMkREgN5MAX3qqaeynqYuCD0Hkeuu+7c2FEMvia1FKqFoF/z2t7+1r8WFtgzGTQzpCxNZdRmtPb+AatLDE96ZeuqpZ4TXclA5U9o2jUoaMOWzz+Sbb7/TvdDtNqjt6J7269tXtthiWDU/jCPRA4tIa/DUe9ddd7W2GfI6MdjwQJOl1igsgTR2Ku3R6KR56ZWXtUfBvBmOYiTQngb2G7b5sJiRcfSNLuo6gYetwzbb3ObQUB1HayJ0Yyhh8seT7VzEEaU1GjUnyqsq5elnntbSyKipGlSNaIN62qbhQxV7jdkjRprMJIyDV1tOOflkrW55PyuQxdsxeNR/XPKPQJoIodIZ650b7m7xBdGCwj5xtYHfMbsN91yeuKihEqd1qzY2Fzi49cyFy7/HnnvEPiKmlqGXSIgZ7JWXX5GSJO+ppyvWK0d49L+4dLGcedYvtEH3pM2sowvJAzueJUXJ4D0l4DPXbrn5FlmxcoUNrbMUGiCeRYsOOvig+LovTQFMju/QoYPqs+q4zNJlS2X69Gm273YisF+utsSm2MwDU0r5dNHtt99ua+CYl0oh1vkxAoISpqmy222/vRGlW9euUlFWLl2Ki6RLUZGttUt3c9sRI6SrngNuMIyx595j5P0PP7Df8M4z4DSF87aJE2WvPfeKl9RMJ0+5NnbPPfcPcu11VyshyOQcya0MuvFsavz48fLnP//JjtDViQM5+FAHgQlqjGnNmDHDZjjS6xq04SCZ9MYkq/pShXUmDT9irdyPPvpYRo0OXUp6CsVKllmzfjBPo1pbQ5CMZzGiIUOGyCaDB8smm2wsXbXk/eykk2TRokV2Mf/YVzCayKefTJYe3XtYDEbMfNJUaKbPkC233MJsU2mrX+TF7dO5U2e54cb/yXfffWvr9U2ZMsUCn2/Gu6A/hbRI7ct6f1ad6e8KWrSQr778Ujp1VC8Wu1dDgsK+7p5GM5eScO+991rmQxDKD4p1LS4Os/E1Lkx4rAa1EFMhKV2MBnM2ECKQBgOOGLG1PPnEE3quuoua6aTRylqJIjbF41MlAxPnmTXE13jRsZVmfufOnbTAzTQbEBfVmX23BQspUSPNL1mkBKyUJx57XHbeaYcG7y5AGLAe9wkKTZr0hilE4BPHBXl5Mm/uvFoJA1hcEaNhHIhBaXNUKJHO//N59n4T8GtnMshsX8Z25MiRmEbhy2TTu4IwXazqAaQ328T0jm4JeB8KJx+rb6HendeXAXFOrIbEOpOG7jEz7F5/9VV7mEjGe+CiUSIAJwweysZhtIfElg9RVMWqJn7XvVt3GTZ0mJozKlpqG3r1DTI6X9tsBbl5svdeY3QLYRhWyJW22tjvWNhBZs+Zbe9/CyuYatCzHMQJk4jS0hKbl9OhfQetzj7SvFDPhftZB6yJaFSP7mWM0La3DkAZnp34Kk9eCjysAriit8utgiCh3ZIMQ7TNwww9/3B6UwE2CVVv6BRw3Ea74CzyOG/+PPNC2ISprWuLhfPnqndXD6aem6p+XQAJCPyekEg84iCNpwPrTBqAwp999pk9dDvnnHNk2LBhdlO/MYN3TBKvUmMRZd4HD0OVpHU5q3MGZgSD8av9DzzAHRDJYlgvMdMKFIhjjz3WOg1t27ZVDzPHbARZrEvNW6W8KIjBKDeaUd7G4TeA8Z4dd9xRLrroIvtK73//+1+7Ls/qkhbY1QAPQsMacrA1GWJeiykr3Jd90rkc6z1zzy8KuDA352v5M2fOlBnaqHv33ffkww8/si/JlpYusQ9Q0JPgN6He5pf8qZK2SsJPJk+WwsJ2Nl0yulpmUwE24tXcQw89VObNW2Aexv5pLtBttjUF8bKqe5cuXbQgDrXVKAi9e/e2QEMYkkAi92CgroQBTgxAnkA88/SxOK7JPnJzv3ohDeBCBBjKTe3C3EzP0b2k7i1bWSZffvmVfPD++/LBhx/YM5eZM2fI9BkzZUlpqaU9YP/95X833KBkCcI2RdJgm3nz5tmbFSxAqYpKYfv2tqQKX3UZuOEg2XKLYbLFFlvIBhtsoBkYvAtwUniBw95OGFBX0iALA4f8jmsB9pleyz3YxwlwD89Xy9v6IE1dQa1UURnqYIRjAOvpp5+Wfv36yZgxYywegYMnalrEwehk0B//+EdbuJoJ83gP7EBJZguiZGgoIAv3c4JwfzyKywK8WvI0VgU2BmmAC+z1pwtl69bp1lntRgaci4JzmUYqb2xSBSB7tIS7PqksLG5jZAJsnSTEQxKX1+VrFNK4kHEhYobyc9F4jyO9sz5et0bSZBpcfgf6RY9TpZff1wsvJGGfOI6dwOZhYjKlnDQYi8xn66UtCuJrg/+W30SZn8W6Aft5YUysGp04TpaonVNOGtwzAkaFQEAaZDTAoqRBCQLxznhXlG2U/VnUHW5fbOtenOCF0W2baOOUDoAgIHAhEM7reMYevPHlAkMKPAqk8jEEgGJOHEIWdYfbjuCeBvvSBXd4PiQipaRxNjsgDHDX6OcTheW8K+XE8+Ms1g1e6Nhia2yJ7b0jsjqkjDQuHN4jeoygkAcFIALHHkhLcOWIQzmOgZPGj7NYezgxsB02xrbEeeC4NqSMNC6c70MUBGPfPQlAYAgCIaIKeDzpnHDubbKkqTvcnlT/7uHJH+LXhJSQhkwluEC+j6DuQTiGAN7GYZ/6lbZM9Leci/6efbZZrBnY1p8zYUcKHfvYMjGsDimtnhIBMaLVDwHmE+gxUb9GPQtpKRXs89ss1h5uNwKFzAsotgbkwdoiZaRZE3shhhMIBVGK4N4EuEdykmWxZmArvAvAfhDFvYvb1psNa4tG9etRQkRBHOcABALEeUnx4yzWDLebexbvHbn3jtp0bdFopHFlokCRRDL4cWLauiranIENCdjXvbfbzwtnXZDS6qk2AhDvLXc8C8fs11YF+XmwLko3dWAf9yxuQ+xL+xB7Edh3m3tYW6TE4giEgCjixwhNXYsCKEZgn3Se1n/nCjnpnGT8pi7KNhdQ8KIFDnu57RzYbV1tl7Ji6oI7cZzx7i4BJYNjb8c4eTiPguxzDY4xCsdZ0tQEdsFGThpsSk8UuM3d3olEWlukjDQI6gNJCEtmQwrinSTsoyABQuCJ3NO4gqTBSxHH9bKkqQY2itoW4rDlBQDikoV1QcqfcruHIOMTme7Hroxv3Ri+TzxbCERo7sAW0W60exmOCW7v+rJVo0zCQgm8i3sN4ASJwslCeicIx8ANkkWwp5ODLd7F7QY8rr7s1SikcVD91KYQJQfFIZUbgTRR0jR3uE3cszAnyT048RQytm6r+rJZo5IGoKAHhytXX+60KcHthI0gi1f3tO8ohBwzgBcljqN+SCPy/5wwSPDhhEvUAAAAAElFTkSuQmCC;" parent="1" vertex="1">
          <mxGeometry x="75" y="986" width="31.94" height="70" as="geometry" />
        </mxCell>
        <mxCell id="2kZgn2yWBnld6z_HZbz6-10" value="жюри" style="text;html=1;align=center;verticalAlign=middle;resizable=0;points=[];autosize=1;strokeColor=none;fillColor=none;" parent="1" vertex="1">
          <mxGeometry x="60" y="1054" width="50" height="30" as="geometry" />
        </mxCell>
        <mxCell id="2kZgn2yWBnld6z_HZbz6-11" value="пройти авторизацию" style="ellipse;whiteSpace=wrap;html=1;" parent="1" vertex="1">
          <mxGeometry x="283.5" y="252.5" width="120" height="45" as="geometry" />
        </mxCell>
        <mxCell id="2kZgn2yWBnld6z_HZbz6-12" value="" style="endArrow=none;html=1;rounded=1;entryX=0;entryY=0.5;entryDx=0;entryDy=0;exitX=1.028;exitY=0.641;exitDx=0;exitDy=0;exitPerimeter=0;" parent="1" source="2kZgn2yWBnld6z_HZbz6-1" target="2kZgn2yWBnld6z_HZbz6-11" edge="1">
          <mxGeometry width="50" height="50" relative="1" as="geometry">
            <mxPoint x="140" y="275" as="sourcePoint" />
            <mxPoint x="190" y="220" as="targetPoint" />
          </mxGeometry>
        </mxCell>
        <mxCell id="2kZgn2yWBnld6z_HZbz6-15" value="" style="endArrow=none;html=1;rounded=1;entryX=0;entryY=0.5;entryDx=0;entryDy=0;exitX=0.967;exitY=0.288;exitDx=0;exitDy=0;exitPerimeter=0;" parent="1" source="2kZgn2yWBnld6z_HZbz6-1" target="2kZgn2yWBnld6z_HZbz6-16" edge="1">
          <mxGeometry width="50" height="50" relative="1" as="geometry">
            <mxPoint x="140" y="250" as="sourcePoint" />
            <mxPoint x="270" y="150" as="targetPoint" />
            <Array as="points">
              <mxPoint x="240" y="250" />
              <mxPoint x="240" y="150" />
            </Array>
          </mxGeometry>
        </mxCell>
        <mxCell id="2kZgn2yWBnld6z_HZbz6-16" value="пройти регистрацию" style="ellipse;whiteSpace=wrap;html=1;" parent="1" vertex="1">
          <mxGeometry x="280" y="130" width="120" height="40" as="geometry" />
        </mxCell>
        <mxCell id="2kZgn2yWBnld6z_HZbz6-20" value="ввод учетных данных" style="ellipse;whiteSpace=wrap;html=1;" parent="1" vertex="1">
          <mxGeometry x="380" y="60" width="120" height="40" as="geometry" />
        </mxCell>
        <mxCell id="2kZgn2yWBnld6z_HZbz6-21" value="" style="endArrow=none;dashed=1;html=1;dashPattern=1 3;strokeWidth=2;rounded=1;entryX=0;entryY=0.5;entryDx=0;entryDy=0;exitX=0.5;exitY=0;exitDx=0;exitDy=0;startArrow=blockThin;startFill=1;" parent="1" source="2kZgn2yWBnld6z_HZbz6-16" target="2kZgn2yWBnld6z_HZbz6-20" edge="1">
          <mxGeometry width="50" height="50" relative="1" as="geometry">
            <mxPoint x="310" y="140" as="sourcePoint" />
            <mxPoint x="360" y="90" as="targetPoint" />
            <Array as="points">
              <mxPoint x="340" y="80" />
            </Array>
          </mxGeometry>
        </mxCell>
        <mxCell id="2kZgn2yWBnld6z_HZbz6-22" value="&amp;lt;&amp;lt; Extend &amp;gt;&amp;gt;" style="edgeLabel;html=1;align=center;verticalAlign=middle;resizable=0;points=[];" parent="2kZgn2yWBnld6z_HZbz6-21" vertex="1" connectable="0">
          <mxGeometry x="-0.1556" y="2" relative="1" as="geometry">
            <mxPoint x="2" y="-22" as="offset" />
          </mxGeometry>
        </mxCell>
        <mxCell id="2kZgn2yWBnld6z_HZbz6-23" value="логин" style="ellipse;whiteSpace=wrap;html=1;" parent="1" vertex="1">
          <mxGeometry x="500" y="205" width="120" height="40" as="geometry" />
        </mxCell>
        <mxCell id="2kZgn2yWBnld6z_HZbz6-24" value="" style="endArrow=blockThin;dashed=1;html=1;dashPattern=1 3;strokeWidth=2;rounded=1;entryX=0;entryY=0.5;entryDx=0;entryDy=0;exitX=0.5;exitY=0;exitDx=0;exitDy=0;startArrow=none;startFill=0;endFill=1;" parent="1" target="2kZgn2yWBnld6z_HZbz6-23" edge="1">
          <mxGeometry width="50" height="50" relative="1" as="geometry">
            <mxPoint x="360" y="252.5" as="sourcePoint" />
            <mxPoint x="380" y="212.5" as="targetPoint" />
            <Array as="points">
              <mxPoint x="360" y="225" />
            </Array>
          </mxGeometry>
        </mxCell>
        <mxCell id="2kZgn2yWBnld6z_HZbz6-25" value="&amp;lt;&amp;lt; Include &amp;gt;&amp;gt;" style="edgeLabel;html=1;align=center;verticalAlign=middle;resizable=0;points=[];" parent="2kZgn2yWBnld6z_HZbz6-24" vertex="1" connectable="0">
          <mxGeometry x="-0.1556" y="2" relative="1" as="geometry">
            <mxPoint x="17" y="-13" as="offset" />
          </mxGeometry>
        </mxCell>
        <mxCell id="2kZgn2yWBnld6z_HZbz6-26" value="пароль" style="ellipse;whiteSpace=wrap;html=1;" parent="1" vertex="1">
          <mxGeometry x="500" y="255" width="120" height="40" as="geometry" />
        </mxCell>
        <mxCell id="2kZgn2yWBnld6z_HZbz6-27" value="" style="endArrow=blockThin;dashed=1;html=1;dashPattern=1 3;strokeWidth=2;rounded=1;entryX=0;entryY=0.5;entryDx=0;entryDy=0;exitX=1;exitY=0.5;exitDx=0;exitDy=0;startArrow=none;startFill=0;endFill=1;" parent="1" source="2kZgn2yWBnld6z_HZbz6-11" target="2kZgn2yWBnld6z_HZbz6-26" edge="1">
          <mxGeometry width="50" height="50" relative="1" as="geometry">
            <mxPoint x="460" y="322.5" as="sourcePoint" />
            <mxPoint x="480" y="282.5" as="targetPoint" />
            <Array as="points" />
          </mxGeometry>
        </mxCell>
        <mxCell id="2kZgn2yWBnld6z_HZbz6-28" value="&amp;lt;&amp;lt; Include &amp;gt;&amp;gt;" style="edgeLabel;html=1;align=center;verticalAlign=middle;resizable=0;points=[];" parent="2kZgn2yWBnld6z_HZbz6-27" vertex="1" connectable="0">
          <mxGeometry x="-0.1556" y="2" relative="1" as="geometry">
            <mxPoint x="6" y="-8" as="offset" />
          </mxGeometry>
        </mxCell>
        <mxCell id="2kZgn2yWBnld6z_HZbz6-29" value="просмотреть сведения о мероприятиях" style="ellipse;whiteSpace=wrap;html=1;" parent="1" vertex="1">
          <mxGeometry x="280" y="395" width="120" height="50" as="geometry" />
        </mxCell>
        <mxCell id="2kZgn2yWBnld6z_HZbz6-30" value="" style="endArrow=none;html=1;rounded=1;entryX=0;entryY=0.5;entryDx=0;entryDy=0;exitX=1.017;exitY=0.823;exitDx=0;exitDy=0;exitPerimeter=0;" parent="1" source="2kZgn2yWBnld6z_HZbz6-1" target="2kZgn2yWBnld6z_HZbz6-29" edge="1">
          <mxGeometry width="50" height="50" relative="1" as="geometry">
            <mxPoint x="131.94000000000005" y="317.5" as="sourcePoint" />
            <mxPoint x="186.5" y="362.5" as="targetPoint" />
            <Array as="points">
              <mxPoint x="230" y="290" />
              <mxPoint x="230" y="418" />
            </Array>
          </mxGeometry>
        </mxCell>
        <mxCell id="2kZgn2yWBnld6z_HZbz6-31" value="" style="endArrow=block;html=1;rounded=0;entryX=0.466;entryY=1.001;entryDx=0;entryDy=0;endFill=0;entryPerimeter=0;" parent="1" target="2kZgn2yWBnld6z_HZbz6-29" edge="1">
          <mxGeometry width="50" height="50" relative="1" as="geometry">
            <mxPoint x="265.8" y="510" as="sourcePoint" />
            <mxPoint x="335.8" y="420" as="targetPoint" />
            <Array as="points">
              <mxPoint x="265.8" y="470" />
              <mxPoint x="335.8" y="470" />
            </Array>
          </mxGeometry>
        </mxCell>
        <mxCell id="2kZgn2yWBnld6z_HZbz6-32" value="" style="endArrow=block;html=1;rounded=0;endFill=0;entryX=0.463;entryY=1.001;entryDx=0;entryDy=0;entryPerimeter=0;" parent="1" target="2kZgn2yWBnld6z_HZbz6-29" edge="1">
          <mxGeometry width="50" height="50" relative="1" as="geometry">
            <mxPoint x="405.8" y="510" as="sourcePoint" />
            <mxPoint x="330" y="450" as="targetPoint" />
            <Array as="points">
              <mxPoint x="405.8" y="470" />
              <mxPoint x="335.8" y="470" />
            </Array>
          </mxGeometry>
        </mxCell>
        <mxCell id="2kZgn2yWBnld6z_HZbz6-33" value="фильтрация по направлению" style="ellipse;whiteSpace=wrap;html=1;" parent="1" vertex="1">
          <mxGeometry x="339.8" y="510" width="120" height="45" as="geometry" />
        </mxCell>
        <mxCell id="2kZgn2yWBnld6z_HZbz6-34" value="фильтрация по дате" style="ellipse;whiteSpace=wrap;html=1;" parent="1" vertex="1">
          <mxGeometry x="205.8" y="510" width="120" height="45" as="geometry" />
        </mxCell>
        <mxCell id="2kZgn2yWBnld6z_HZbz6-35" value="" style="endArrow=none;html=1;rounded=1;entryX=0;entryY=0.5;entryDx=0;entryDy=0;exitX=1;exitY=0.5;exitDx=0;exitDy=0;" parent="1" source="2kZgn2yWBnld6z_HZbz6-3" target="2kZgn2yWBnld6z_HZbz6-29" edge="1">
          <mxGeometry width="50" height="50" relative="1" as="geometry">
            <mxPoint x="142" y="293" as="sourcePoint" />
            <mxPoint x="290" y="395" as="targetPoint" />
            <Array as="points">
              <mxPoint x="190" y="649" />
              <mxPoint x="190" y="420" />
            </Array>
          </mxGeometry>
        </mxCell>
        <mxCell id="2kZgn2yWBnld6z_HZbz6-37" value="подать заявку на участие в мероприятии" style="ellipse;whiteSpace=wrap;html=1;" parent="1" vertex="1">
          <mxGeometry x="283" y="320" width="120" height="50" as="geometry" />
        </mxCell>
        <mxCell id="2kZgn2yWBnld6z_HZbz6-38" value="ввод персональных данных" style="ellipse;whiteSpace=wrap;html=1;" parent="1" vertex="1">
          <mxGeometry x="450" y="380" width="120" height="40" as="geometry" />
        </mxCell>
        <mxCell id="2kZgn2yWBnld6z_HZbz6-39" value="" style="endArrow=none;dashed=1;html=1;dashPattern=1 3;strokeWidth=2;rounded=1;entryX=0;entryY=0.5;entryDx=0;entryDy=0;exitX=0.975;exitY=0.6;exitDx=0;exitDy=0;startArrow=blockThin;startFill=1;exitPerimeter=0;" parent="1" source="2kZgn2yWBnld6z_HZbz6-37" target="2kZgn2yWBnld6z_HZbz6-38" edge="1">
          <mxGeometry width="50" height="50" relative="1" as="geometry">
            <mxPoint x="404.00000000000006" y="347.60000000000014" as="sourcePoint" />
            <mxPoint x="439.8" y="360" as="targetPoint" />
            <Array as="points">
              <mxPoint x="420" y="350" />
              <mxPoint x="420" y="400" />
            </Array>
          </mxGeometry>
        </mxCell>
        <mxCell id="2kZgn2yWBnld6z_HZbz6-40" value="&amp;lt;&amp;lt; Extend &amp;gt;&amp;gt;" style="edgeLabel;html=1;align=center;verticalAlign=middle;resizable=0;points=[];" parent="2kZgn2yWBnld6z_HZbz6-39" vertex="1" connectable="0">
          <mxGeometry x="-0.1556" y="2" relative="1" as="geometry">
            <mxPoint x="8" y="5" as="offset" />
          </mxGeometry>
        </mxCell>
        <mxCell id="2kZgn2yWBnld6z_HZbz6-41" value="" style="endArrow=none;html=1;rounded=1;entryX=0.001;entryY=0.534;entryDx=0;entryDy=0;exitX=0.997;exitY=0.818;exitDx=0;exitDy=0;exitPerimeter=0;entryPerimeter=0;" parent="1" source="2kZgn2yWBnld6z_HZbz6-1" target="2kZgn2yWBnld6z_HZbz6-37" edge="1">
          <mxGeometry width="50" height="50" relative="1" as="geometry">
            <mxPoint x="135.5" y="209" as="sourcePoint" />
            <mxPoint x="283.5" y="341" as="targetPoint" />
            <Array as="points">
              <mxPoint x="230" y="290" />
              <mxPoint x="230" y="347" />
            </Array>
          </mxGeometry>
        </mxCell>
        <mxCell id="2kZgn2yWBnld6z_HZbz6-42" value="" style="endArrow=none;html=1;rounded=1;entryX=0.011;entryY=0.603;entryDx=0;entryDy=0;exitX=1;exitY=0.5;exitDx=0;exitDy=0;entryPerimeter=0;" parent="1" target="2kZgn2yWBnld6z_HZbz6-37" edge="1">
          <mxGeometry width="50" height="50" relative="1" as="geometry">
            <mxPoint x="131.94" y="649" as="sourcePoint" />
            <mxPoint x="279.94" y="420" as="targetPoint" />
            <Array as="points">
              <mxPoint x="189.94" y="649" />
              <mxPoint x="190" y="350" />
            </Array>
          </mxGeometry>
        </mxCell>
        <mxCell id="2kZgn2yWBnld6z_HZbz6-44" value="просмотреть профиль" style="ellipse;whiteSpace=wrap;html=1;" parent="1" vertex="1">
          <mxGeometry x="270" y="634" width="120" height="50" as="geometry" />
        </mxCell>
        <mxCell id="2kZgn2yWBnld6z_HZbz6-45" value="" style="endArrow=none;html=1;rounded=1;entryX=0;entryY=0.5;entryDx=0;entryDy=0;exitX=0.978;exitY=0.661;exitDx=0;exitDy=0;exitPerimeter=0;" parent="1" source="2kZgn2yWBnld6z_HZbz6-3" target="2kZgn2yWBnld6z_HZbz6-44" edge="1">
          <mxGeometry width="50" height="50" relative="1" as="geometry">
            <mxPoint x="170" y="700" as="sourcePoint" />
            <mxPoint x="220" y="650" as="targetPoint" />
          </mxGeometry>
        </mxCell>
        <mxCell id="2kZgn2yWBnld6z_HZbz6-46" value="изменение персональных данных" style="ellipse;whiteSpace=wrap;html=1;" parent="1" vertex="1">
          <mxGeometry x="369.5" y="594" width="120" height="40" as="geometry" />
        </mxCell>
        <mxCell id="2kZgn2yWBnld6z_HZbz6-47" value="" style="endArrow=blockThin;dashed=1;html=1;dashPattern=1 3;strokeWidth=2;rounded=1;entryX=0;entryY=0.5;entryDx=0;entryDy=0;exitX=0.417;exitY=-0.052;exitDx=0;exitDy=0;startArrow=none;startFill=0;endFill=1;exitPerimeter=0;" parent="1" source="2kZgn2yWBnld6z_HZbz6-44" target="2kZgn2yWBnld6z_HZbz6-46" edge="1">
          <mxGeometry width="50" height="50" relative="1" as="geometry">
            <mxPoint x="283.5" y="633.9999999999998" as="sourcePoint" />
            <mxPoint x="349.5" y="621.5" as="targetPoint" />
            <Array as="points">
              <mxPoint x="320" y="614" />
            </Array>
          </mxGeometry>
        </mxCell>
        <mxCell id="2kZgn2yWBnld6z_HZbz6-48" value="&amp;lt;&amp;lt; Include &amp;gt;&amp;gt;" style="edgeLabel;html=1;align=center;verticalAlign=middle;resizable=0;points=[];" parent="2kZgn2yWBnld6z_HZbz6-47" vertex="1" connectable="0">
          <mxGeometry x="-0.1556" y="2" relative="1" as="geometry">
            <mxPoint x="-11" y="-12" as="offset" />
          </mxGeometry>
        </mxCell>
        <mxCell id="2kZgn2yWBnld6z_HZbz6-49" value="участвовать в мероприятии" style="ellipse;whiteSpace=wrap;html=1;" parent="1" vertex="1">
          <mxGeometry x="260" y="755" width="120" height="50" as="geometry" />
        </mxCell>
        <mxCell id="2kZgn2yWBnld6z_HZbz6-50" value="" style="endArrow=none;html=1;rounded=1;entryX=0;entryY=0.5;entryDx=0;entryDy=0;exitX=1.016;exitY=0.808;exitDx=0;exitDy=0;exitPerimeter=0;" parent="1" source="2kZgn2yWBnld6z_HZbz6-3" target="2kZgn2yWBnld6z_HZbz6-49" edge="1">
          <mxGeometry width="50" height="50" relative="1" as="geometry">
            <mxPoint x="141" y="670" as="sourcePoint" />
            <mxPoint x="280" y="669" as="targetPoint" />
            <Array as="points">
              <mxPoint x="230" y="670" />
              <mxPoint x="230" y="780" />
            </Array>
          </mxGeometry>
        </mxCell>
        <mxCell id="2kZgn2yWBnld6z_HZbz6-51" value="просмотр подробной инормации о мероприятии" style="ellipse;whiteSpace=wrap;html=1;" parent="1" vertex="1">
          <mxGeometry x="380" y="684" width="120" height="50" as="geometry" />
        </mxCell>
        <mxCell id="2kZgn2yWBnld6z_HZbz6-52" value="" style="endArrow=blockThin;dashed=1;html=1;dashPattern=1 3;strokeWidth=2;rounded=1;entryX=0;entryY=0.5;entryDx=0;entryDy=0;exitX=0.417;exitY=-0.052;exitDx=0;exitDy=0;startArrow=none;startFill=0;endFill=1;exitPerimeter=0;" parent="1" target="2kZgn2yWBnld6z_HZbz6-51" edge="1">
          <mxGeometry width="50" height="50" relative="1" as="geometry">
            <mxPoint x="320" y="752" as="sourcePoint" />
            <mxPoint x="370" y="722" as="targetPoint" />
            <Array as="points">
              <mxPoint x="320" y="710" />
            </Array>
          </mxGeometry>
        </mxCell>
        <mxCell id="2kZgn2yWBnld6z_HZbz6-53" value="&amp;lt;&amp;lt; Include &amp;gt;&amp;gt;" style="edgeLabel;html=1;align=center;verticalAlign=middle;resizable=0;points=[];" parent="2kZgn2yWBnld6z_HZbz6-52" vertex="1" connectable="0">
          <mxGeometry x="-0.1556" y="2" relative="1" as="geometry">
            <mxPoint x="5" y="22" as="offset" />
          </mxGeometry>
        </mxCell>
        <mxCell id="2kZgn2yWBnld6z_HZbz6-54" value="" style="endArrow=none;html=1;rounded=1;entryX=0;entryY=0.5;entryDx=0;entryDy=0;exitX=1.008;exitY=0.43;exitDx=0;exitDy=0;exitPerimeter=0;" parent="1" source="2kZgn2yWBnld6z_HZbz6-37" target="2kZgn2yWBnld6z_HZbz6-5" edge="1">
          <mxGeometry width="50" height="50" relative="1" as="geometry">
            <mxPoint x="620" y="520" as="sourcePoint" />
            <mxPoint x="670" y="470" as="targetPoint" />
          </mxGeometry>
        </mxCell>
        <mxCell id="2kZgn2yWBnld6z_HZbz6-55" value="" style="endArrow=none;html=1;rounded=1;entryX=0;entryY=0.5;entryDx=0;entryDy=0;exitX=1;exitY=0.5;exitDx=0;exitDy=0;" parent="1" source="2kZgn2yWBnld6z_HZbz6-56" target="2kZgn2yWBnld6z_HZbz6-5" edge="1">
          <mxGeometry width="50" height="50" relative="1" as="geometry">
            <mxPoint x="414" y="351" as="sourcePoint" />
            <mxPoint x="787" y="355" as="targetPoint" />
            <Array as="points">
              <mxPoint x="630" y="815" />
              <mxPoint x="630" y="345" />
            </Array>
          </mxGeometry>
        </mxCell>
        <mxCell id="2kZgn2yWBnld6z_HZbz6-56" value="управлять мероприятием" style="ellipse;whiteSpace=wrap;html=1;" parent="1" vertex="1">
          <mxGeometry x="410" y="790" width="120" height="50" as="geometry" />
        </mxCell>
        <mxCell id="2kZgn2yWBnld6z_HZbz6-57" value="" style="endArrow=blockThin;dashed=1;html=1;dashPattern=1 3;strokeWidth=2;rounded=1;entryX=0.656;entryY=0.993;entryDx=0;entryDy=0;exitX=0.433;exitY=0.023;exitDx=0;exitDy=0;startArrow=none;startFill=0;endFill=1;exitPerimeter=0;entryPerimeter=0;" parent="1" source="2kZgn2yWBnld6z_HZbz6-56" target="2kZgn2yWBnld6z_HZbz6-51" edge="1">
          <mxGeometry width="50" height="50" relative="1" as="geometry">
            <mxPoint x="330" y="762" as="sourcePoint" />
            <mxPoint x="390" y="719" as="targetPoint" />
            <Array as="points" />
          </mxGeometry>
        </mxCell>
        <mxCell id="2kZgn2yWBnld6z_HZbz6-58" value="&amp;lt;&amp;lt; Include &amp;gt;&amp;gt;" style="edgeLabel;html=1;align=center;verticalAlign=middle;resizable=0;points=[];" parent="2kZgn2yWBnld6z_HZbz6-57" vertex="1" connectable="0">
          <mxGeometry x="-0.1556" y="2" relative="1" as="geometry">
            <mxPoint x="1" y="3" as="offset" />
          </mxGeometry>
        </mxCell>
        <mxCell id="2kZgn2yWBnld6z_HZbz6-59" value="управление участниками" style="ellipse;whiteSpace=wrap;html=1;" parent="1" vertex="1">
          <mxGeometry x="519.8" y="870" width="120" height="50" as="geometry" />
        </mxCell>
        <mxCell id="2kZgn2yWBnld6z_HZbz6-60" value="" style="endArrow=blockThin;dashed=1;html=1;dashPattern=1 3;strokeWidth=2;rounded=1;entryX=0;entryY=0.5;entryDx=0;entryDy=0;exitX=0.5;exitY=1;exitDx=0;exitDy=0;startArrow=none;startFill=0;endFill=1;" parent="1" source="2kZgn2yWBnld6z_HZbz6-56" target="2kZgn2yWBnld6z_HZbz6-59" edge="1">
          <mxGeometry width="50" height="50" relative="1" as="geometry">
            <mxPoint x="499.79999999999995" y="840" as="sourcePoint" />
            <mxPoint x="509.79999999999995" y="908" as="targetPoint" />
            <Array as="points">
              <mxPoint x="470" y="895" />
            </Array>
          </mxGeometry>
        </mxCell>
        <mxCell id="2kZgn2yWBnld6z_HZbz6-61" value="&amp;lt;&amp;lt; Include &amp;gt;&amp;gt;" style="edgeLabel;html=1;align=center;verticalAlign=middle;resizable=0;points=[];" parent="2kZgn2yWBnld6z_HZbz6-60" vertex="1" connectable="0">
          <mxGeometry x="-0.1556" y="2" relative="1" as="geometry">
            <mxPoint x="5" y="22" as="offset" />
          </mxGeometry>
        </mxCell>
        <mxCell id="2kZgn2yWBnld6z_HZbz6-62" value="выбор активности для модеаторов" style="ellipse;whiteSpace=wrap;html=1;" parent="1" vertex="1">
          <mxGeometry x="289.99999999999994" y="870" width="120" height="50" as="geometry" />
        </mxCell>
        <mxCell id="2kZgn2yWBnld6z_HZbz6-63" value="" style="endArrow=blockThin;dashed=1;html=1;dashPattern=1 3;strokeWidth=2;rounded=1;entryX=1;entryY=0.5;entryDx=0;entryDy=0;exitX=0.403;exitY=1.002;exitDx=0;exitDy=0;startArrow=none;startFill=0;endFill=1;exitPerimeter=0;" parent="1" source="2kZgn2yWBnld6z_HZbz6-56" target="2kZgn2yWBnld6z_HZbz6-62" edge="1">
          <mxGeometry width="50" height="50" relative="1" as="geometry">
            <mxPoint x="474" y="851" as="sourcePoint" />
            <mxPoint x="530" y="905" as="targetPoint" />
            <Array as="points">
              <mxPoint x="460" y="895" />
            </Array>
          </mxGeometry>
        </mxCell>
        <mxCell id="2kZgn2yWBnld6z_HZbz6-64" value="&amp;lt;&amp;lt; Include &amp;gt;&amp;gt;" style="edgeLabel;html=1;align=center;verticalAlign=middle;resizable=0;points=[];" parent="2kZgn2yWBnld6z_HZbz6-63" vertex="1" connectable="0">
          <mxGeometry x="-0.1556" y="2" relative="1" as="geometry">
            <mxPoint x="5" y="22" as="offset" />
          </mxGeometry>
        </mxCell>
        <mxCell id="2kZgn2yWBnld6z_HZbz6-65" value="управлять мероприятием" style="ellipse;whiteSpace=wrap;html=1;" parent="1" vertex="1">
          <mxGeometry x="399.8" y="1028" width="120" height="50" as="geometry" />
        </mxCell>
        <mxCell id="2kZgn2yWBnld6z_HZbz6-66" value="" style="endArrow=none;html=1;rounded=0;exitX=1;exitY=0.5;exitDx=0;exitDy=0;" parent="1" source="2kZgn2yWBnld6z_HZbz6-65" edge="1">
          <mxGeometry width="50" height="50" relative="1" as="geometry">
            <mxPoint x="550" y="1130" as="sourcePoint" />
            <mxPoint x="680" y="1050" as="targetPoint" />
          </mxGeometry>
        </mxCell>
        <mxCell id="2kZgn2yWBnld6z_HZbz6-67" value="" style="endArrow=blockThin;dashed=1;html=1;dashPattern=1 3;strokeWidth=2;rounded=1;startArrow=none;startFill=0;endFill=1;entryX=0.311;entryY=0.977;entryDx=0;entryDy=0;entryPerimeter=0;exitX=0.66;exitY=0.053;exitDx=0;exitDy=0;exitPerimeter=0;" parent="1" source="2kZgn2yWBnld6z_HZbz6-65" target="2kZgn2yWBnld6z_HZbz6-59" edge="1">
          <mxGeometry width="50" height="50" relative="1" as="geometry">
            <mxPoint x="480" y="1020" as="sourcePoint" />
            <mxPoint x="530" y="930" as="targetPoint" />
            <Array as="points">
              <mxPoint x="480" y="960" />
              <mxPoint x="560" y="960" />
            </Array>
          </mxGeometry>
        </mxCell>
        <mxCell id="2kZgn2yWBnld6z_HZbz6-68" value="&amp;lt;&amp;lt; Include &amp;gt;&amp;gt;" style="edgeLabel;html=1;align=center;verticalAlign=middle;resizable=0;points=[];" parent="2kZgn2yWBnld6z_HZbz6-67" vertex="1" connectable="0">
          <mxGeometry x="-0.1556" y="2" relative="1" as="geometry">
            <mxPoint x="29" y="12" as="offset" />
          </mxGeometry>
        </mxCell>
        <mxCell id="2kZgn2yWBnld6z_HZbz6-72" value="управление информацией" style="ellipse;whiteSpace=wrap;html=1;" parent="1" vertex="1">
          <mxGeometry x="289.99999999999994" y="935" width="120" height="50" as="geometry" />
        </mxCell>
        <mxCell id="2kZgn2yWBnld6z_HZbz6-73" value="" style="endArrow=blockThin;dashed=1;html=1;dashPattern=1 3;strokeWidth=2;rounded=1;startArrow=none;startFill=0;endFill=1;entryX=1;entryY=0.5;entryDx=0;entryDy=0;exitX=0.543;exitY=0.017;exitDx=0;exitDy=0;exitPerimeter=0;" parent="1" source="2kZgn2yWBnld6z_HZbz6-65" target="2kZgn2yWBnld6z_HZbz6-72" edge="1">
          <mxGeometry width="50" height="50" relative="1" as="geometry">
            <mxPoint x="470" y="1030" as="sourcePoint" />
            <mxPoint x="420" y="960" as="targetPoint" />
            <Array as="points">
              <mxPoint x="465" y="960" />
            </Array>
          </mxGeometry>
        </mxCell>
        <mxCell id="2kZgn2yWBnld6z_HZbz6-74" value="&amp;lt;&amp;lt; Include &amp;gt;&amp;gt;" style="edgeLabel;html=1;align=center;verticalAlign=middle;resizable=0;points=[];" parent="2kZgn2yWBnld6z_HZbz6-73" vertex="1" connectable="0">
          <mxGeometry x="-0.1556" y="2" relative="1" as="geometry">
            <mxPoint x="-13" y="-27" as="offset" />
          </mxGeometry>
        </mxCell>
        <mxCell id="2kZgn2yWBnld6z_HZbz6-75" value="создать мероприятие" style="ellipse;whiteSpace=wrap;html=1;" parent="1" vertex="1">
          <mxGeometry x="410" y="1170" width="120" height="50" as="geometry" />
        </mxCell>
        <mxCell id="2kZgn2yWBnld6z_HZbz6-76" value="" style="endArrow=none;html=1;rounded=1;exitX=1;exitY=0.5;exitDx=0;exitDy=0;" parent="1" source="2kZgn2yWBnld6z_HZbz6-75" edge="1">
          <mxGeometry width="50" height="50" relative="1" as="geometry">
            <mxPoint x="530" y="1063" as="sourcePoint" />
            <mxPoint x="680" y="1050" as="targetPoint" />
            <Array as="points">
              <mxPoint x="580" y="1195" />
              <mxPoint x="579" y="1051" />
            </Array>
          </mxGeometry>
        </mxCell>
        <mxCell id="2kZgn2yWBnld6z_HZbz6-77" value="добавление активностей" style="ellipse;whiteSpace=wrap;html=1;" parent="1" vertex="1">
          <mxGeometry x="279.79999999999995" y="1090" width="120" height="50" as="geometry" />
        </mxCell>
        <mxCell id="2kZgn2yWBnld6z_HZbz6-78" value="" style="endArrow=blockThin;dashed=1;html=1;dashPattern=1 3;strokeWidth=2;rounded=1;startArrow=none;startFill=0;endFill=1;entryX=1;entryY=0.5;entryDx=0;entryDy=0;exitX=0.5;exitY=0;exitDx=0;exitDy=0;" parent="1" source="2kZgn2yWBnld6z_HZbz6-75" target="2kZgn2yWBnld6z_HZbz6-77" edge="1">
          <mxGeometry width="50" height="50" relative="1" as="geometry">
            <mxPoint x="239" y="1251" as="sourcePoint" />
            <mxPoint x="290" y="1150" as="targetPoint" />
            <Array as="points">
              <mxPoint x="470" y="1160" />
              <mxPoint x="470" y="1115" />
            </Array>
          </mxGeometry>
        </mxCell>
        <mxCell id="2kZgn2yWBnld6z_HZbz6-79" value="&amp;lt;&amp;lt; Include &amp;gt;&amp;gt;" style="edgeLabel;html=1;align=center;verticalAlign=middle;resizable=0;points=[];" parent="2kZgn2yWBnld6z_HZbz6-78" vertex="1" connectable="0">
          <mxGeometry x="-0.1556" y="2" relative="1" as="geometry">
            <mxPoint x="-8" y="-9" as="offset" />
          </mxGeometry>
        </mxCell>
        <mxCell id="2kZgn2yWBnld6z_HZbz6-86" value="просмотреть информацию оцениваемых&amp;nbsp; активностей" style="ellipse;whiteSpace=wrap;html=1;" parent="1" vertex="1">
          <mxGeometry x="190" y="1000" width="120" height="70" as="geometry" />
        </mxCell>
        <mxCell id="2kZgn2yWBnld6z_HZbz6-87" value="" style="endArrow=none;html=1;rounded=0;entryX=0;entryY=0.5;entryDx=0;entryDy=0;exitX=1.032;exitY=0.666;exitDx=0;exitDy=0;exitPerimeter=0;" parent="1" source="2kZgn2yWBnld6z_HZbz6-9" target="2kZgn2yWBnld6z_HZbz6-86" edge="1">
          <mxGeometry width="50" height="50" relative="1" as="geometry">
            <mxPoint x="110" y="1120" as="sourcePoint" />
            <mxPoint x="160" y="1070" as="targetPoint" />
          </mxGeometry>
        </mxCell>
        <mxCell id="2kZgn2yWBnld6z_HZbz6-89" value="Система" style="text;html=1;align=center;verticalAlign=middle;resizable=0;points=[];autosize=1;strokeColor=none;fillColor=none;" parent="1" vertex="1">
          <mxGeometry x="340" width="70" height="30" as="geometry" />
        </mxCell>
      </root>
    </mxGraphModel>
  </diagram>
  <diagram id="biXkqA0dwZdkMVCiOg_r" name="Регистрация жюри">
    <mxGraphModel dx="675" dy="394" grid="1" gridSize="10" guides="1" tooltips="1" connect="1" arrows="1" fold="1" page="1" pageScale="1" pageWidth="827" pageHeight="1169" math="0" shadow="0">
      <root>
        <mxCell id="0" />
        <mxCell id="1" parent="0" />
        <mxCell id="EjlTrGcfpIclTQvoEqdB-1" value="Система" style="swimlane;" parent="1" vertex="1">
          <mxGeometry x="90" y="70" width="200" height="580" as="geometry" />
        </mxCell>
        <mxCell id="EjlTrGcfpIclTQvoEqdB-13" value="" style="verticalLabelPosition=bottom;verticalAlign=top;html=1;shape=process;whiteSpace=wrap;rounded=1;size=0.14;arcSize=0;" parent="EjlTrGcfpIclTQvoEqdB-1" vertex="1">
          <mxGeometry x="44" y="244" width="110" height="60" as="geometry" />
        </mxCell>
        <mxCell id="EjlTrGcfpIclTQvoEqdB-14" value="проверить данные на соответствие требованиям" style="text;html=1;strokeColor=none;fillColor=none;align=center;verticalAlign=middle;whiteSpace=wrap;rounded=0;" parent="EjlTrGcfpIclTQvoEqdB-1" vertex="1">
          <mxGeometry x="59" y="259" width="80" height="30" as="geometry" />
        </mxCell>
        <mxCell id="EjlTrGcfpIclTQvoEqdB-23" value="Нет" style="text;html=1;align=center;verticalAlign=middle;resizable=0;points=[];autosize=1;strokeColor=none;fillColor=none;" parent="EjlTrGcfpIclTQvoEqdB-1" vertex="1">
          <mxGeometry x="160" y="330" width="40" height="30" as="geometry" />
        </mxCell>
        <mxCell id="EjlTrGcfpIclTQvoEqdB-2" value="Организатор" style="swimlane;startSize=23;" parent="1" vertex="1">
          <mxGeometry x="290" y="70" width="210" height="580" as="geometry" />
        </mxCell>
        <mxCell id="EjlTrGcfpIclTQvoEqdB-6" value="" style="edgeStyle=orthogonalEdgeStyle;rounded=0;orthogonalLoop=1;jettySize=auto;html=1;endArrow=none;endFill=0;" parent="EjlTrGcfpIclTQvoEqdB-2" source="EjlTrGcfpIclTQvoEqdB-4" target="EjlTrGcfpIclTQvoEqdB-5" edge="1">
          <mxGeometry relative="1" as="geometry" />
        </mxCell>
        <mxCell id="EjlTrGcfpIclTQvoEqdB-4" value="Начало" style="strokeWidth=2;html=1;shape=mxgraph.flowchart.terminator;whiteSpace=wrap;" parent="EjlTrGcfpIclTQvoEqdB-2" vertex="1">
          <mxGeometry x="75" y="40" width="50" height="30" as="geometry" />
        </mxCell>
        <mxCell id="EjlTrGcfpIclTQvoEqdB-8" value="" style="edgeStyle=orthogonalEdgeStyle;rounded=0;orthogonalLoop=1;jettySize=auto;html=1;entryX=0.5;entryY=0;entryDx=0;entryDy=0;endArrow=none;endFill=0;" parent="EjlTrGcfpIclTQvoEqdB-2" source="EjlTrGcfpIclTQvoEqdB-5" target="EjlTrGcfpIclTQvoEqdB-9" edge="1">
          <mxGeometry relative="1" as="geometry">
            <mxPoint x="100" y="160" as="targetPoint" />
          </mxGeometry>
        </mxCell>
        <mxCell id="EjlTrGcfpIclTQvoEqdB-5" value="Войти в окно регистрации жюри" style="rounded=0;whiteSpace=wrap;html=1;" parent="EjlTrGcfpIclTQvoEqdB-2" vertex="1">
          <mxGeometry x="45" y="100" width="110" height="30" as="geometry" />
        </mxCell>
        <mxCell id="EjlTrGcfpIclTQvoEqdB-9" value="" style="verticalLabelPosition=bottom;verticalAlign=top;html=1;shape=process;whiteSpace=wrap;rounded=1;size=0.14;arcSize=0;" parent="EjlTrGcfpIclTQvoEqdB-2" vertex="1">
          <mxGeometry x="45" y="174" width="110" height="40" as="geometry" />
        </mxCell>
        <mxCell id="EjlTrGcfpIclTQvoEqdB-12" value="" style="edgeStyle=orthogonalEdgeStyle;rounded=0;orthogonalLoop=1;jettySize=auto;html=1;exitX=0.5;exitY=1;exitDx=0;exitDy=0;endArrow=none;endFill=0;" parent="EjlTrGcfpIclTQvoEqdB-2" source="EjlTrGcfpIclTQvoEqdB-9" target="EjlTrGcfpIclTQvoEqdB-11" edge="1">
          <mxGeometry relative="1" as="geometry">
            <mxPoint x="90" y="230" as="sourcePoint" />
          </mxGeometry>
        </mxCell>
        <mxCell id="EjlTrGcfpIclTQvoEqdB-10" value="Внести персональные данные" style="text;html=1;strokeColor=none;fillColor=none;align=center;verticalAlign=middle;whiteSpace=wrap;rounded=0;" parent="EjlTrGcfpIclTQvoEqdB-2" vertex="1">
          <mxGeometry x="61" y="178" width="80" height="30" as="geometry" />
        </mxCell>
        <mxCell id="EjlTrGcfpIclTQvoEqdB-11" value="Нажать на кнопку создания" style="rounded=0;whiteSpace=wrap;html=1;" parent="EjlTrGcfpIclTQvoEqdB-2" vertex="1">
          <mxGeometry x="45" y="260" width="110" height="30" as="geometry" />
        </mxCell>
        <mxCell id="EjlTrGcfpIclTQvoEqdB-3" value="&lt;font style=&quot;font-size: 15px;&quot;&gt;Регистрация жюри&lt;/font&gt;" style="text;html=1;align=center;verticalAlign=middle;resizable=0;points=[];autosize=1;strokeColor=none;fillColor=none;" parent="1" vertex="1">
          <mxGeometry x="220" y="40" width="150" height="30" as="geometry" />
        </mxCell>
        <mxCell id="EjlTrGcfpIclTQvoEqdB-15" value="" style="edgeStyle=orthogonalEdgeStyle;rounded=0;orthogonalLoop=1;jettySize=auto;html=1;entryX=1.004;entryY=0.521;entryDx=0;entryDy=0;entryPerimeter=0;" parent="1" source="EjlTrGcfpIclTQvoEqdB-11" target="EjlTrGcfpIclTQvoEqdB-13" edge="1">
          <mxGeometry relative="1" as="geometry">
            <mxPoint x="243" y="346" as="targetPoint" />
          </mxGeometry>
        </mxCell>
        <mxCell id="EjlTrGcfpIclTQvoEqdB-30" value="" style="edgeStyle=orthogonalEdgeStyle;rounded=0;orthogonalLoop=1;jettySize=auto;html=1;entryX=0.5;entryY=0;entryDx=0;entryDy=0;endArrow=none;endFill=0;" parent="1" source="EjlTrGcfpIclTQvoEqdB-16" target="EjlTrGcfpIclTQvoEqdB-19" edge="1">
          <mxGeometry relative="1" as="geometry">
            <Array as="points">
              <mxPoint x="190" y="500" />
            </Array>
          </mxGeometry>
        </mxCell>
        <mxCell id="EjlTrGcfpIclTQvoEqdB-16" value="&lt;font style=&quot;font-size: 10px;&quot;&gt;Данные коректные ?&lt;/font&gt;" style="rhombus;whiteSpace=wrap;html=1;" parent="1" vertex="1">
          <mxGeometry x="124.25" y="400" width="131.5" height="50" as="geometry" />
        </mxCell>
        <mxCell id="EjlTrGcfpIclTQvoEqdB-32" value="" style="edgeStyle=orthogonalEdgeStyle;rounded=0;orthogonalLoop=1;jettySize=auto;html=1;endArrow=none;endFill=0;" parent="1" source="EjlTrGcfpIclTQvoEqdB-19" target="EjlTrGcfpIclTQvoEqdB-24" edge="1">
          <mxGeometry relative="1" as="geometry" />
        </mxCell>
        <mxCell id="EjlTrGcfpIclTQvoEqdB-34" value="" style="edgeStyle=orthogonalEdgeStyle;rounded=0;orthogonalLoop=1;jettySize=auto;html=1;exitX=1;exitY=0.5;exitDx=0;exitDy=0;" parent="1" source="EjlTrGcfpIclTQvoEqdB-16" edge="1">
          <mxGeometry relative="1" as="geometry">
            <mxPoint x="390" y="220" as="targetPoint" />
            <Array as="points">
              <mxPoint x="470" y="425" />
              <mxPoint x="470" y="220" />
            </Array>
          </mxGeometry>
        </mxCell>
        <mxCell id="EjlTrGcfpIclTQvoEqdB-19" value="Добавить в базу данные" style="rounded=0;whiteSpace=wrap;html=1;" parent="1" vertex="1">
          <mxGeometry x="135" y="500" width="110" height="30" as="geometry" />
        </mxCell>
        <mxCell id="EjlTrGcfpIclTQvoEqdB-24" value="Конец" style="strokeWidth=2;html=1;shape=mxgraph.flowchart.terminator;whiteSpace=wrap;" parent="1" vertex="1">
          <mxGeometry x="165" y="570" width="50" height="30" as="geometry" />
        </mxCell>
        <mxCell id="EjlTrGcfpIclTQvoEqdB-21" value="Да" style="text;html=1;align=center;verticalAlign=middle;resizable=0;points=[];autosize=1;strokeColor=none;fillColor=none;" parent="1" vertex="1">
          <mxGeometry x="150" y="460" width="40" height="30" as="geometry" />
        </mxCell>
        <mxCell id="EjlTrGcfpIclTQvoEqdB-28" value="" style="edgeStyle=orthogonalEdgeStyle;rounded=0;orthogonalLoop=1;jettySize=auto;html=1;entryX=0.5;entryY=0;entryDx=0;entryDy=0;endArrow=none;endFill=0;" parent="1" source="EjlTrGcfpIclTQvoEqdB-13" target="EjlTrGcfpIclTQvoEqdB-16" edge="1">
          <mxGeometry relative="1" as="geometry">
            <Array as="points">
              <mxPoint x="190" y="380" />
              <mxPoint x="190" y="380" />
            </Array>
          </mxGeometry>
        </mxCell>
      </root>
    </mxGraphModel>
  </diagram>
</mxfile>
